#N canvas 301 25 611 645 10;
#X obj 362 159 inlet~;
#X obj 449 160 inlet~;
#X obj 62 18 inlet;
#X symbolatom 6 388 0 0 0 0 - - -;
#X obj 6 301 date -----;
#X obj 77 301 time ------;
#X obj 31 269 t b b;
#X obj 44 247 bng 15 250 50 0 empty empty empty 0 -6 0 10 -262144 -1
-1;
#X obj 6 334 pack a a a a a;
#X obj 6 366 makesymbol /home/darma/music/pd/doku/doku_%s-%s-%s_%s-%s.wav
;
#X msg 6 499 write -wave /home/darma/music/pd/doku/doku_2008-11-11_0-51.wav
sumL sumR;
#X msg 6 411 set write -wave \$1 sumL sumR;
#X text 105 20 bang - start;
#N canvas 0 0 450 300 graph1 0;
#X array sumL 2.646e+06 float 2;
#X coords 0 0 1 1 200 40 0;
#X restore 485 31 graph;
#N canvas 0 0 450 300 graph1 0;
#X array sumR 2.646e+06 float 2;
#X coords 0 0 1 1 200 40 0;
#X restore 519 31 graph;
#X obj 6 552 soundfiler;
#X msg 124 182 bang;
#X msg 408 201 stop;
#X obj 361 241 tabwrite~ sumL;
#X obj 450 241 tabwrite~ sumR;
#X text 399 128 sound in;
#X text 153 613 report out;
#X obj 153 593 outlet;
#X obj 94 212 del 65000;
#X msg 55 158 set recording...;
#X msg 95 234 set writing...;
#X obj 177 269 del 5000;
#X obj 44 442 del 100;
#X msg 202 593 written!;
#X obj 62 117 bng 15 250 50 0 empty empty empty 0 -6 0 10 -262144 -1
-1;
#X obj 94 116 bng 15 250 50 0 empty empty empty 0 -6 0 10 -262144 -1
-1;
#X obj 126 117 bng 15 250 50 0 empty empty empty 0 -6 0 10 -262144
-1 -1;
#X msg 72 59 del;
#X msg 108 59 stop;
#X obj 49 58 bng 15 250 50 0 empty empty empty 0 -6 0 10 -262144 -1
-1;
#X msg 7 56 bang;
#X obj 191 140 print kri-doku~;
#X obj 191 115 prepend no method for;
#X msg 463 202 set stopped!;
#X msg 251 411 set rm \$1;
#X obj 251 463 shell;
#X obj 13 247 bng 15 250 50 0 empty empty empty 0 -6 0 10 -262144 -1
-1;
#X obj 391 383 print -------------------------;
#X msg 391 357 deleting :----------------------------;
#X obj 391 332 del 20;
#X msg 429 538 set deleting \$1;
#X obj 462 487 strippath;
#X msg 149 59 ls;
#X obj 62 90 route bang del stop ls;
#X obj 158 117 bng 15 250 50 0 empty empty empty 0 -6 0 10 -262144
-1 -1;
#X msg 311 280 ls /home/darma/music/pd/doku;
#X obj 300 480 print doku;
#X msg 311 307 set ls-results in pd-window;
#X obj 429 513 symbol;
#X msg 251 435 rm /home/darma/music/pd/doku/doku_2008-11-11_0-51.wav
;
#X obj 242 269 strippath;
#X obj 209 295 symbol;
#X msg 177 319 set written \$1;
#X connect 0 0 18 0;
#X connect 1 0 19 0;
#X connect 2 0 48 0;
#X connect 3 0 11 0;
#X connect 3 0 39 0;
#X connect 3 0 46 0;
#X connect 3 0 55 0;
#X connect 4 0 8 0;
#X connect 4 1 8 1;
#X connect 4 2 8 2;
#X connect 5 0 8 3;
#X connect 5 1 8 4;
#X connect 6 0 4 0;
#X connect 6 1 5 0;
#X connect 7 0 6 0;
#X connect 7 0 27 0;
#X connect 8 0 9 0;
#X connect 9 0 3 0;
#X connect 10 0 15 0;
#X connect 11 0 10 0;
#X connect 16 0 18 0;
#X connect 16 0 19 0;
#X connect 16 0 23 0;
#X connect 17 0 18 0;
#X connect 17 0 19 0;
#X connect 17 0 23 0;
#X connect 17 0 26 0;
#X connect 17 0 27 0;
#X connect 23 0 25 0;
#X connect 23 0 7 0;
#X connect 23 0 26 0;
#X connect 24 0 22 0;
#X connect 24 0 28 0;
#X connect 25 0 22 0;
#X connect 25 0 28 0;
#X connect 26 0 56 0;
#X connect 27 0 10 0;
#X connect 29 0 24 0;
#X connect 29 0 16 0;
#X connect 30 0 54 0;
#X connect 30 0 43 0;
#X connect 30 0 44 0;
#X connect 31 0 17 0;
#X connect 31 0 38 0;
#X connect 32 0 48 0;
#X connect 33 0 48 0;
#X connect 34 0 48 0;
#X connect 35 0 48 0;
#X connect 37 0 36 0;
#X connect 38 0 22 0;
#X connect 38 0 28 0;
#X connect 39 0 54 0;
#X connect 40 0 51 0;
#X connect 41 0 6 0;
#X connect 43 0 42 0;
#X connect 44 0 43 0;
#X connect 44 0 53 0;
#X connect 45 0 28 0;
#X connect 45 0 22 0;
#X connect 46 0 53 1;
#X connect 47 0 48 0;
#X connect 48 0 29 0;
#X connect 48 1 30 0;
#X connect 48 2 31 0;
#X connect 48 3 49 0;
#X connect 48 4 37 0;
#X connect 49 0 50 0;
#X connect 49 0 52 0;
#X connect 50 0 40 0;
#X connect 52 0 28 0;
#X connect 52 0 22 0;
#X connect 53 0 45 0;
#X connect 54 0 40 0;
#X connect 54 0 51 0;
#X connect 55 0 56 1;
#X connect 56 0 57 0;
#X connect 57 0 22 0;
#X connect 57 0 28 0;
