#N canvas 2 48 1020 718 10;
#X obj 532 179 inlet~;
#X obj 619 180 inlet~;
#X obj 222 8 inlet;
#X symbolatom 14 435 0 0 0 0 - - -;
#X obj 14 259 t b b;
#X obj 45 237 bng 15 250 50 0 empty empty empty 0 -6 0 10 -262144 -1
-1;
#X msg 14 546 write -wave doku/doku_2016-02-28_09-17.wav sumL sumR
;
#X msg 14 458 set write -wave \$1 sumL sumR;
#X text 265 10 bang - start;
#N canvas 2 48 1020 718 (subpatch) 0;
#X array sumL 2.646e+06 float 2;
#X coords 0 0 1 1 200 40 0;
#X restore 595 31 graph;
#N canvas 0 50 450 300 (subpatch) 0;
#X array sumR 2.646e+06 float 2;
#X coords 0 0 1 1 200 40 0;
#X restore 629 31 graph;
#X obj 14 599 soundfiler;
#X msg 124 182 bang;
#X msg 578 221 stop;
#X obj 531 261 tabwrite~ sumL;
#X obj 620 261 tabwrite~ sumR;
#X text 559 158 sound in;
#X text 159 660 report out;
#X obj 159 640 outlet;
#X obj 94 212 del 65000;
#X msg 215 148 set recording...;
#X msg 95 234 set writing...;
#X obj 205 283 del 5000;
#X obj 50 489 del 100;
#X msg 208 640 ls-results in pd-window;
#X obj 222 107 bng 15 250 50 0 empty empty empty 0 -6 0 10 -262144
-1 -1;
#X obj 254 106 bng 15 250 50 0 empty empty empty 0 -6 0 10 -262144
-1 -1;
#X obj 286 107 bng 15 250 50 0 empty empty empty 0 -6 0 10 -262144
-1 -1;
#X msg 232 49 del;
#X msg 268 49 stop;
#X obj 209 48 bng 15 250 50 0 empty empty empty 0 -6 0 10 -262144 -1
-1;
#X msg 167 46 bang;
#X obj 351 130 print kri-doku~;
#X msg 633 222 set stopped!;
#X msg 257 458 set rm \$1;
#X obj 14 237 bng 15 250 50 0 empty empty empty 0 -6 0 10 -262144 -1
-1;
#X obj 397 430 print -------------------------;
#X msg 397 404 deleting :----------------------------;
#X obj 397 379 del 20;
#X msg 435 585 set deleting \$1;
#X msg 309 49 ls;
#X obj 222 80 route bang del stop ls;
#X obj 318 107 bng 15 250 50 0 empty empty empty 0 -6 0 10 -262144
-1 -1;
#X obj 282 581 print doku;
#X msg 357 324 set ls-results in pd-window;
#X obj 435 560 symbol;
#X msg 257 482 rm doku/doku_2016-02-28_09-17.wav;
#X obj 205 332 symbol;
#X msg 205 356 set written \$1;
#X msg 357 297 ls ./pd/doku;
#X obj 238 306 ext13/strippath;
#X obj 468 534 ext13/strippath;
#X obj 14 337 symbol;
#X obj 101 306 bng 15 250 50 0 empty empty empty 0 -6 0 8 -262144 -1
-1;
#X msg 14 284 date +%Y-%m-%d_%H-%M;
#X obj 14 305 ggee/shell;
#X obj 257 510 ggee/shell;
#X obj 14 368 makefilename doku/doku_%s.wav;
#X obj 351 105 cyclone/prepend no method for;
#X connect 0 0 14 0;
#X connect 1 0 15 0;
#X connect 2 0 41 0;
#X connect 3 0 7 0;
#X connect 3 0 34 0;
#X connect 3 0 50 0;
#X connect 3 0 51 0;
#X connect 4 0 54 0;
#X connect 5 0 4 0;
#X connect 5 0 23 0;
#X connect 6 0 11 0;
#X connect 7 0 6 0;
#X connect 12 0 14 0;
#X connect 12 0 15 0;
#X connect 12 0 19 0;
#X connect 13 0 14 0;
#X connect 13 0 15 0;
#X connect 13 0 19 0;
#X connect 13 0 22 0;
#X connect 13 0 23 0;
#X connect 19 0 21 0;
#X connect 19 0 5 0;
#X connect 19 0 22 0;
#X connect 20 0 18 0;
#X connect 20 0 24 0;
#X connect 21 0 18 0;
#X connect 21 0 24 0;
#X connect 22 0 47 0;
#X connect 23 0 6 0;
#X connect 25 0 20 0;
#X connect 25 0 12 0;
#X connect 26 0 46 0;
#X connect 26 0 37 0;
#X connect 26 0 38 0;
#X connect 27 0 13 0;
#X connect 27 0 33 0;
#X connect 28 0 41 0;
#X connect 29 0 41 0;
#X connect 30 0 41 0;
#X connect 31 0 41 0;
#X connect 33 0 18 0;
#X connect 33 0 24 0;
#X connect 34 0 46 0;
#X connect 35 0 4 0;
#X connect 37 0 36 0;
#X connect 38 0 37 0;
#X connect 38 0 45 0;
#X connect 39 0 24 0;
#X connect 39 0 18 0;
#X connect 40 0 41 0;
#X connect 41 0 25 0;
#X connect 41 1 26 0;
#X connect 41 2 27 0;
#X connect 41 3 42 0;
#X connect 41 4 58 0;
#X connect 42 0 49 0;
#X connect 42 0 44 0;
#X connect 44 0 24 0;
#X connect 44 0 18 0;
#X connect 45 0 39 0;
#X connect 46 0 43 0;
#X connect 46 0 56 0;
#X connect 47 0 48 0;
#X connect 48 0 18 0;
#X connect 48 0 24 0;
#X connect 49 0 56 0;
#X connect 50 0 47 1;
#X connect 51 0 45 1;
#X connect 52 0 57 0;
#X connect 54 0 55 0;
#X connect 55 0 52 0;
#X connect 55 1 53 0;
#X connect 56 0 43 0;
#X connect 57 0 3 0;
#X connect 58 0 32 0;
