#N canvas 7 25 1040 597 10;
#X obj 123 203 noise~;
#X obj 246 493 outlet~;
#X obj 207 145 bng 15 250 50 0 empty empty empty 0 -6 0 10 -262144
-1 -1;
#X obj 201 248 /~ 10;
#X obj 215 165 del 100;
#X obj 215 198 0;
#X floatatom 290 122 5 0 0 0 - - -;
#X obj 254 143 - 100;
#X floatatom 325 201 5 0 0 0 - - -;
#X floatatom 286 201 5 0 0 0 - - -;
#X floatatom 245 201 5 0 0 0 - - -;
#X obj 110 264 *~;
#X floatatom 253 120 5 0 0 0 - - -;
#X obj 91 362 *~ 0.2;
#X floatatom 126 339 5 0 0 0 - - -;
#X obj 39 202 cycle 4;
#X obj 47 299 *~ 0.2;
#X msg 32 236 2;
#X msg 95 235 1;
#X msg 66 162 symbol foo;
#X msg 133 236 0.4;
#X msg 62 233 0.6;
#X obj 109 291 hsl 128 15 0 15000 0 0 empty empty empty -2 -6 0 10
-262144 -1 -1 0 1;
#X floatatom 124 314 5 0 0 0 - - -;
#X obj 782 279 noise~;
#X obj 850 193 bng 15 250 50 0 empty empty empty 0 -6 0 10 -262144
-1 -1;
#X obj 844 296 /~ 10;
#X obj 858 213 del 100;
#X obj 858 246 0;
#X floatatom 933 170 5 0 0 0 - - -;
#X obj 897 191 - 100;
#X floatatom 968 249 5 0 0 0 - - -;
#X floatatom 929 249 5 0 0 0 - - -;
#X floatatom 888 249 5 0 0 0 - - -;
#X obj 781 323 *~;
#X floatatom 896 168 5 0 0 0 - - -;
#X obj 207 223 eadsr~ 11 54 0.03 200;
#X obj 835 361 hsl 128 15 0 15000 0 0 empty empty empty -2 -6 0 10
-262144 -1 -1 2300 1;
#X floatatom 850 384 5 0 0 0 - - -;
#X floatatom 866 340 5 0 0 0 - - -;
#X obj 781 357 *~ 0.1;
#X obj 483 358 noise~;
#X obj 551 272 bng 15 250 50 0 empty empty empty 0 -6 0 10 -262144
-1 -1;
#X obj 545 375 /~ 10;
#X obj 559 292 del 100;
#X obj 559 325 0;
#X floatatom 634 249 5 0 0 0 - - -;
#X obj 598 270 - 100;
#X floatatom 669 328 5 0 0 0 - - -;
#X floatatom 630 328 5 0 0 0 - - -;
#X floatatom 589 328 5 0 0 0 - - -;
#X obj 482 402 *~;
#X floatatom 597 247 5 0 0 0 - - -;
#X obj 538 440 hsl 128 15 0 3000 0 0 empty empty empty -2 -6 0 10 -262144
-1 -1 600 1;
#X floatatom 551 463 5 0 0 0 - - -;
#X floatatom 567 419 5 0 0 0 - - -;
#X obj 482 436 *~ 0.1;
#X obj 768 517 outlet~ snare;
#X obj 512 525 outlet~ bd;
#X obj 500 482 lop~ 118;
#X obj 787 412 bp~ 1889 3;
#X obj 59 336 bp~ 5400 2;
#X obj 551 351 eadsr~ 4 145 35 200;
#X obj 850 271 eadsr~ 7 18 0.03 200;
#X msg 105 58 bang;
#X obj 105 15 inlet bang;
#X obj 526 28 inlet bd;
#X obj 866 33 inlet snare;
#X obj 335 344 stock;
#X obj 261 324 vsl 15 128 0 127 0 0 empty vol_1 empty 0 -8 0 10 -262144
-1 -1 12700 1;
#X obj 382 407 vsl 15 128 0 127 0 0 empty vol_2 empty 0 -8 0 10 -262144
-1 -1 12700 1;
#X obj 731 384 vsl 15 128 0 127 0 0 empty vol_3 empty 0 -8 0 10 -262144
-1 -1 12700 1;
#X obj 206 380 / 127;
#X obj 335 458 / 32;
#X obj 697 506 / 16;
#X connect 0 0 11 0;
#X connect 2 0 4 0;
#X connect 2 0 36 0;
#X connect 3 0 11 1;
#X connect 4 0 5 0;
#X connect 5 0 36 0;
#X connect 6 0 7 1;
#X connect 6 0 36 4;
#X connect 7 0 4 1;
#X connect 8 0 36 3;
#X connect 9 0 36 2;
#X connect 10 0 36 1;
#X connect 11 0 16 0;
#X connect 12 0 7 0;
#X connect 13 0 1 0;
#X connect 14 0 13 1;
#X connect 15 0 17 0;
#X connect 15 1 21 0;
#X connect 15 2 18 0;
#X connect 15 3 20 0;
#X connect 16 0 61 0;
#X connect 17 0 16 1;
#X connect 18 0 16 1;
#X connect 19 0 15 0;
#X connect 20 0 16 1;
#X connect 21 0 16 1;
#X connect 22 0 23 0;
#X connect 22 0 61 1;
#X connect 24 0 34 0;
#X connect 25 0 27 0;
#X connect 25 0 63 0;
#X connect 26 0 34 1;
#X connect 27 0 28 0;
#X connect 28 0 63 0;
#X connect 29 0 30 1;
#X connect 29 0 63 4;
#X connect 30 0 27 1;
#X connect 31 0 63 3;
#X connect 32 0 63 2;
#X connect 33 0 63 1;
#X connect 34 0 40 0;
#X connect 35 0 30 0;
#X connect 36 0 3 0;
#X connect 37 0 38 0;
#X connect 38 0 60 1;
#X connect 39 0 40 1;
#X connect 40 0 60 0;
#X connect 41 0 51 0;
#X connect 42 0 44 0;
#X connect 42 0 62 0;
#X connect 43 0 51 1;
#X connect 44 0 45 0;
#X connect 45 0 62 0;
#X connect 46 0 47 1;
#X connect 46 0 62 4;
#X connect 47 0 44 1;
#X connect 48 0 62 3;
#X connect 49 0 62 2;
#X connect 50 0 62 1;
#X connect 51 0 56 0;
#X connect 52 0 47 0;
#X connect 53 0 54 0;
#X connect 54 0 59 1;
#X connect 55 0 56 1;
#X connect 56 0 59 0;
#X connect 59 0 58 0;
#X connect 60 0 57 0;
#X connect 61 0 13 0;
#X connect 62 0 43 0;
#X connect 63 0 26 0;
#X connect 64 0 19 0;
#X connect 64 0 2 0;
#X connect 65 0 64 0;
#X connect 66 0 42 0;
#X connect 67 0 25 0;
#X connect 69 0 72 0;
#X connect 70 0 73 0;
#X connect 71 0 74 0;
#X connect 72 0 13 1;
#X connect 73 0 56 1;
#X connect 74 0 40 1;
