#N canvas 0 0 610 396 10;
#X obj 119 79 inlet~;
#X obj 265 79 inlet;
#X msg 235 243 start;
#X msg 465 210 stop;
#X obj 264 153 sel 1;
#X obj 264 177 savepanel;
#X msg 315 242 open \$1;
#X obj 264 199 t b s;
#X obj 186 78 inlet~;
#X obj 230 305 writesf~ 2;
#X obj 61 77 inlet;
#X connect 0 0 9 0;
#X connect 1 0 4 0;
#X connect 2 0 9 0;
#X connect 3 0 9 0;
#X connect 4 0 5 0;
#X connect 4 1 3 0;
#X connect 5 0 7 0;
#X connect 6 0 9 0;
#X connect 7 0 2 0;
#X connect 7 1 6 0;
#X connect 8 0 9 1;
#X connect 10 0 9 0;
