#N canvas 7 25 1212 663 10;
#X obj 61 194 noise~;
#X obj 128 137 bng 15 250 50 0 empty empty empty 0 -6 0 10 -262144
-1 -1;
#X obj 122 240 /~ 10;
#X obj 136 157 del 100;
#X floatatom 211 114 5 0 0 0 - - -;
#X obj 175 135 - 100;
#X floatatom 246 193 5 0 0 0 - - -;
#X floatatom 207 193 5 0 0 0 - - -;
#X floatatom 166 193 5 0 0 0 - - -;
#X obj 48 255 *~;
#X floatatom 174 112 5 0 0 0 - - -;
#X obj 91 422 *~ 0.2;
#X floatatom 126 339 5 0 0 0 - - -;
#X obj 47 299 *~ 0.2;
#X obj 139 287 hsl 128 15 0 15000 0 0 empty empty empty -2 -6 0 10
-262144 -1 -1 5200 1;
#X floatatom 134 318 5 0 0 0 - - -;
#X obj 619 274 noise~;
#X obj 687 188 bng 15 250 50 0 empty empty empty 0 -6 0 10 -262144
-1 -1;
#X obj 681 291 /~ 10;
#X obj 695 208 del 100;
#X obj 695 241 0;
#X floatatom 770 165 5 0 0 0 - - -;
#X obj 734 186 - 100;
#X floatatom 805 244 5 0 0 0 - - -;
#X floatatom 766 244 5 0 0 0 - - -;
#X floatatom 725 244 5 0 0 0 - - -;
#X obj 618 318 *~;
#X floatatom 733 163 5 0 0 0 - - -;
#X obj 128 215 eadsr~ 11 54 0.03 200;
#X obj 672 356 hsl 128 15 0 15000 0 0 empty empty empty -2 -6 0 10
-262144 -1 -1 0 1;
#X floatatom 687 379 5 0 0 0 - - -;
#X floatatom 703 335 5 0 0 0 - - -;
#X obj 618 352 *~ 0.1;
#X obj 357 352 noise~;
#X obj 425 266 bng 15 250 50 0 empty empty empty 0 -6 0 10 -262144
-1 -1;
#X obj 419 369 /~ 10;
#X obj 433 286 del 100;
#X obj 433 319 0;
#X floatatom 508 243 5 0 0 0 - - -;
#X obj 472 264 - 100;
#X floatatom 543 322 5 0 0 0 - - -;
#X floatatom 504 322 5 0 0 0 - - -;
#X floatatom 463 322 5 0 0 0 - - -;
#X obj 356 396 *~;
#X floatatom 471 241 5 0 0 0 - - -;
#X obj 412 434 hsl 128 15 0 3000 0 0 empty empty empty -2 -6 0 10 -262144
-1 -1 0 1;
#X floatatom 425 457 5 0 0 0 - - -;
#X floatatom 441 413 5 0 0 0 - - -;
#X obj 356 430 *~ 0.1;
#X obj 385 486 lop~ 118;
#X obj 624 407 bp~ 1889 3;
#X obj 59 336 bp~ 5400 2;
#X obj 425 345 eadsr~ 4 145 35 200;
#X obj 687 266 eadsr~ 7 18 0.03 200;
#X msg 67 67 bang;
#X obj 151 372 vsl 15 40 0 127 0 0 empty vol_1 empty 0 -8 0 10 -262144
-1 -1 3900 1;
#X obj 586 215 vsl 15 128 0 127 0 0 empty vol_2 empty 0 -8 0 10 -262144
-1 -1 0 1;
#X obj 845 192 vsl 15 128 0 127 0 0 empty vol_3 empty 0 -8 0 10 -262144
-1 -1 0 1;
#X obj 138 421 / 127;
#X obj 549 362 / 32;
#X obj 811 314 / 16;
#X obj 130 67 unpack f f f;
#X obj 95 42 t b l;
#X obj 91 508 pan~ 0;
#X obj 124 482 * 45;
#X obj 91 534 outlet~ contL;
#X obj 125 560 outlet~ contR;
#X obj 385 552 pan~ 0;
#X obj 95 14 inlet cont;
#X msg 419 91 bang;
#X obj 482 91 unpack f f f;
#X obj 447 66 t b l;
#X msg 696 92 bang;
#X obj 759 92 unpack f f f;
#X obj 724 67 t b l;
#X obj 400 22 inlet low;
#X obj 384 579 outlet~ lowL;
#X obj 419 604 outlet~ lowR;
#X obj 625 532 outlet~ highL;
#X obj 659 557 outlet~ highR;
#X obj 703 28 inlet high;
#X obj 298 63 tgl 15 0 empty empty empty 17 7 0 10 -262144 -1 -1 1
1;
#X text 314 61 track flow;
#X obj 265 86 spigot;
#X obj 265 112 unpack f f f;
#X obj 265 142 prepend set;
#X msg 265 164 0.5;
#X obj 299 186 prepend set;
#X msg 299 208 0;
#X obj 334 229 prepend set;
#X msg 334 251 1536;
#X text 289 163 volume;
#X text 329 208 pan;
#X text 364 250 ctl-val;
#X obj 625 505 pan~;
#X obj 671 456 * 45;
#X floatatom 715 422 5 0 0 0 - - -;
#X obj 619 70 tgl 15 0 empty empty empty 17 7 0 10 -262144 -1 -1 0
1;
#X obj 629 110 metro 250;
#X obj 624 458 *~ 20;
#X obj 386 514 *~ 30;
#X obj 92 461 *~ 20;
#X floatatom 279 29 5 0 0 0 - - -;
#X msg 138 185 stop;
#X obj 888 265 noise~;
#X obj 956 179 bng 15 250 50 0 empty empty empty 0 -6 0 10 -262144
-1 -1;
#X obj 950 282 /~ 10;
#X obj 964 199 del 100;
#X obj 964 232 0;
#X floatatom 1039 156 5 0 0 0 - - -;
#X obj 1003 177 - 100;
#X floatatom 1074 235 5 0 0 0 - - -;
#X floatatom 1035 235 5 0 0 0 - - -;
#X floatatom 994 235 5 0 0 0 - - -;
#X obj 887 309 *~;
#X floatatom 1002 154 5 0 0 0 - - -;
#X obj 950 346 hsl 128 15 0 15000 0 0 empty empty empty -2 -6 0 10
-262144 -1 -1 7200 1;
#X floatatom 956 370 8 0 0 0 - - -;
#X floatatom 972 326 5 0 0 0 - - -;
#X obj 887 343 *~ 0.1;
#X obj 956 257 eadsr~ 7 18 0.03 200;
#X obj 1114 183 vsl 15 128 0 127 0 0 empty vol_3 empty 0 -8 0 10 -262144
-1 -1 0 1;
#X obj 1080 305 / 16;
#X msg 965 83 bang;
#X obj 1028 83 unpack f f f;
#X obj 993 58 t b l;
#X obj 894 496 pan~;
#X obj 940 447 * 45;
#X floatatom 984 413 5 0 0 0 - - -;
#X obj 888 61 tgl 15 0 empty empty empty 17 7 0 10 -262144 -1 -1 0
1;
#X obj 898 101 metro 250;
#X obj 893 449 *~ 20;
#X obj 972 19 inlet mark;
#X obj 892 398 bp~ 7089 3;
#X obj 893 526 outlet~ markL;
#X obj 928 548 outlet~ markR;
#X floatatom 1092 358 7 0 0 0 - - -;
#X connect 0 0 9 0;
#X connect 1 0 3 0;
#X connect 1 0 28 0;
#X connect 2 0 9 1;
#X connect 3 0 103 0;
#X connect 4 0 5 1;
#X connect 4 0 28 4;
#X connect 5 0 3 1;
#X connect 6 0 28 3;
#X connect 7 0 28 2;
#X connect 8 0 28 1;
#X connect 9 0 13 0;
#X connect 10 0 5 0;
#X connect 11 0 101 0;
#X connect 12 0 11 1;
#X connect 13 0 51 0;
#X connect 14 0 15 0;
#X connect 14 0 51 1;
#X connect 16 0 26 0;
#X connect 17 0 19 0;
#X connect 17 0 53 0;
#X connect 18 0 26 1;
#X connect 19 0 20 0;
#X connect 20 0 53 0;
#X connect 21 0 22 1;
#X connect 21 0 53 4;
#X connect 22 0 19 1;
#X connect 23 0 53 3;
#X connect 24 0 53 2;
#X connect 25 0 53 1;
#X connect 26 0 32 0;
#X connect 27 0 22 0;
#X connect 28 0 2 0;
#X connect 29 0 30 0;
#X connect 30 0 50 1;
#X connect 31 0 32 1;
#X connect 32 0 50 0;
#X connect 33 0 43 0;
#X connect 34 0 36 0;
#X connect 34 0 52 0;
#X connect 35 0 43 1;
#X connect 36 0 37 0;
#X connect 37 0 52 0;
#X connect 38 0 39 1;
#X connect 38 0 52 4;
#X connect 39 0 36 1;
#X connect 40 0 52 3;
#X connect 41 0 52 2;
#X connect 42 0 52 1;
#X connect 43 0 48 0;
#X connect 44 0 39 0;
#X connect 45 0 46 0;
#X connect 46 0 49 1;
#X connect 47 0 48 1;
#X connect 48 0 49 0;
#X connect 49 0 100 0;
#X connect 50 0 99 0;
#X connect 51 0 11 0;
#X connect 52 0 35 0;
#X connect 53 0 18 0;
#X connect 54 0 1 0;
#X connect 55 0 58 0;
#X connect 56 0 59 0;
#X connect 57 0 60 0;
#X connect 58 0 11 1;
#X connect 59 0 48 1;
#X connect 60 0 31 0;
#X connect 61 0 13 1;
#X connect 61 1 64 0;
#X connect 61 2 51 1;
#X connect 62 0 54 0;
#X connect 62 1 61 0;
#X connect 63 0 65 0;
#X connect 63 1 66 0;
#X connect 64 0 63 1;
#X connect 67 0 76 0;
#X connect 67 1 77 0;
#X connect 68 0 62 0;
#X connect 68 0 83 0;
#X connect 69 0 34 0;
#X connect 70 0 48 1;
#X connect 70 1 67 1;
#X connect 70 2 49 1;
#X connect 71 0 69 0;
#X connect 71 1 70 0;
#X connect 72 0 17 0;
#X connect 73 0 32 1;
#X connect 73 2 50 1;
#X connect 74 0 72 0;
#X connect 74 1 73 0;
#X connect 75 0 71 0;
#X connect 80 0 74 0;
#X connect 81 0 83 1;
#X connect 83 0 84 0;
#X connect 84 0 85 0;
#X connect 84 1 87 0;
#X connect 84 2 89 0;
#X connect 85 0 86 0;
#X connect 87 0 88 0;
#X connect 89 0 90 0;
#X connect 94 0 78 0;
#X connect 94 1 79 0;
#X connect 95 0 94 1;
#X connect 96 0 95 1;
#X connect 97 0 98 0;
#X connect 98 0 17 0;
#X connect 98 0 34 0;
#X connect 99 0 94 0;
#X connect 100 0 67 0;
#X connect 101 0 63 0;
#X connect 103 0 28 0;
#X connect 104 0 114 0;
#X connect 105 0 107 0;
#X connect 105 0 120 0;
#X connect 106 0 114 1;
#X connect 107 0 108 0;
#X connect 108 0 120 0;
#X connect 109 0 110 1;
#X connect 109 0 120 4;
#X connect 110 0 107 1;
#X connect 111 0 120 3;
#X connect 112 0 120 2;
#X connect 113 0 120 1;
#X connect 114 0 119 0;
#X connect 115 0 110 0;
#X connect 116 0 117 0;
#X connect 117 0 133 1;
#X connect 118 0 119 1;
#X connect 119 0 133 0;
#X connect 120 0 106 0;
#X connect 121 0 122 0;
#X connect 122 0 118 0;
#X connect 123 0 105 0;
#X connect 124 0 119 1;
#X connect 124 2 133 1;
#X connect 124 2 136 0;
#X connect 125 0 123 0;
#X connect 125 1 124 0;
#X connect 126 0 134 0;
#X connect 126 1 135 0;
#X connect 127 0 126 1;
#X connect 128 0 127 1;
#X connect 129 0 130 0;
#X connect 130 0 105 0;
#X connect 131 0 126 0;
#X connect 132 0 125 0;
#X connect 133 0 131 0;
