#N canvas 2 48 1020 699 10;
#X obj 368 212 noise~;
#X obj 435 155 bng 15 250 50 0 empty empty empty 0 -6 0 10 -262144
-1 -1;
#X obj 429 258 /~ 10;
#X obj 443 175 del 100;
#X floatatom 518 132 5 0 0 0 - - -, f 5;
#X obj 482 153 - 100;
#X floatatom 553 211 5 0 0 0 - - -, f 5;
#X floatatom 514 211 5 0 0 0 - - -, f 5;
#X floatatom 473 211 5 0 0 0 - - -, f 5;
#X obj 355 273 *~;
#X floatatom 481 130 5 0 0 0 - - -, f 5;
#X obj 398 440 *~ 0.2;
#X floatatom 433 357 5 0 0 0 - - -, f 5;
#X obj 354 317 *~ 0.2;
#X obj 446 305 hsl 128 15 0 15000 0 0 empty empty empty -2 -6 0 10
-262144 -1 -1 0 1;
#X floatatom 441 336 5 0 0 0 - - -, f 5;
#X obj 926 292 noise~;
#X obj 994 206 bng 15 250 50 0 empty empty empty 0 -6 0 10 -262144
-1 -1;
#X obj 988 309 /~ 10;
#X obj 1002 226 del 100;
#X obj 1002 259 0;
#X floatatom 1077 183 5 0 0 0 - - -, f 5;
#X obj 1041 204 - 100;
#X floatatom 1112 262 5 0 0 0 - - -, f 5;
#X floatatom 1073 262 5 0 0 0 - - -, f 5;
#X floatatom 1032 262 5 0 0 0 - - -, f 5;
#X obj 925 336 *~;
#X floatatom 1040 181 5 0 0 0 - - -, f 5;
#X obj 979 374 hsl 128 15 0 15000 0 0 empty empty empty -2 -6 0 10
-262144 -1 -1 0 1;
#X floatatom 994 397 5 0 0 0 - - -, f 5;
#X floatatom 1010 353 5 0 0 0 - - -, f 5;
#X obj 925 370 *~ 0.1;
#X obj 664 370 noise~;
#X obj 732 284 bng 15 250 50 0 empty empty empty 0 -6 0 10 -262144
-1 -1;
#X obj 726 387 /~ 10;
#X obj 740 304 del 100;
#X obj 740 337 0;
#X floatatom 815 261 5 0 0 0 - - -, f 5;
#X obj 779 282 - 100;
#X floatatom 850 340 5 0 0 0 - - -, f 5;
#X floatatom 811 340 5 0 0 0 - - -, f 5;
#X floatatom 770 340 5 0 0 0 - - -, f 5;
#X obj 663 414 *~;
#X floatatom 778 259 5 0 0 0 - - -, f 5;
#X obj 717 451 hsl 128 15 0 3000 0 0 empty empty empty -2 -6 0 10 -262144
-1 -1 0 1;
#X floatatom 732 475 5 0 0 0 - - -, f 5;
#X floatatom 748 431 5 0 0 0 - - -, f 5;
#X obj 663 448 *~ 0.1;
#X obj 931 425 bp~ 1889 3;
#X msg 374 85 bang;
#X obj 458 390 vsl 15 40 0 127 0 0 empty vol_1 empty 0 -8 0 10 -262144
-1 -1 0 1;
#X obj 893 233 vsl 15 128 0 127 0 0 empty vol_2 empty 0 -8 0 10 -262144
-1 -1 0 1;
#X obj 1152 210 vsl 15 128 0 127 0 0 empty vol_3 empty 0 -8 0 10 -262144
-1 -1 0 1;
#X obj 445 439 / 127;
#X obj 856 380 / 32;
#X obj 1118 332 / 16;
#X obj 437 85 unpack f f f;
#X obj 431 500 * 45;
#X obj 398 552 outlet~ contL;
#X obj 487 552 outlet~ contR;
#X obj 402 32 inlet cont;
#X msg 726 109 bang;
#X obj 789 109 unpack f f f;
#X obj 754 84 t b l;
#X msg 1003 110 bang;
#X obj 1066 110 unpack f f f;
#X obj 1031 85 t b l;
#X obj 707 40 inlet low;
#X obj 691 597 outlet~ lowL;
#X obj 774 599 outlet~ lowR;
#X obj 932 550 outlet~ highL;
#X obj 1024 549 outlet~ highR;
#X obj 1010 46 inlet high;
#X obj 605 81 tgl 15 0 empty empty empty 17 7 0 10 -262144 -1 -1 0
1;
#X text 621 79 track flow;
#X obj 572 104 spigot;
#X obj 572 130 unpack f f f;
#X msg 572 182 0.8;
#X msg 606 226 0;
#X msg 641 269 1147;
#X text 596 181 volume;
#X text 636 226 pan;
#X text 671 268 ctl-val;
#X obj 978 474 * 45;
#X floatatom 1022 440 5 0 0 0 - - -, f 5;
#X obj 926 88 tgl 15 0 empty empty empty 17 7 0 10 -262144 -1 -1 0
1;
#X obj 936 128 metro 250;
#X obj 399 479 *~ 20;
#X floatatom 586 47 5 0 0 0 - - -, f 5;
#X msg 445 203 stop;
#X obj 1195 283 noise~;
#X obj 1263 197 bng 15 250 50 0 empty empty empty 0 -6 0 10 -262144
-1 -1;
#X obj 1257 300 /~ 10;
#X obj 1271 250 0;
#X floatatom 1346 174 5 0 0 0 - - -, f 5;
#X obj 1310 195 - 100;
#X floatatom 1381 253 5 0 0 0 - - -, f 5;
#X floatatom 1342 253 5 0 0 0 - - -, f 5;
#X floatatom 1301 253 5 0 0 0 - - -, f 5;
#X obj 1194 327 *~;
#X floatatom 1309 172 5 0 0 0 - - -, f 5;
#X obj 1257 364 hsl 128 15 0 15000 0 0 empty empty empty -2 -6 0 10
-262144 -1 -1 0 1;
#X floatatom 1263 388 8 0 0 0 - - -, f 8;
#X floatatom 1279 344 5 0 0 0 - - -, f 5;
#X obj 1194 361 *~ 0.1;
#X obj 1421 201 vsl 15 128 0 127 0 0 empty vol_3 empty 0 -8 0 10 -262144
-1 -1 0 1;
#X obj 1387 323 / 16;
#X msg 1272 101 bang;
#X obj 1335 101 unpack f f f;
#X obj 1300 76 t b l;
#X obj 1247 465 * 45;
#X floatatom 1291 431 5 0 0 0 - - -, f 5;
#X obj 1195 79 tgl 15 0 empty empty empty 17 7 0 10 -262144 -1 -1 0
1;
#X obj 1205 119 metro 250;
#X obj 1279 37 inlet mark;
#X obj 1199 416 bp~ 7089 3;
#X obj 1200 544 outlet~ markL;
#X obj 1289 544 outlet~ markR;
#X floatatom 1259 323 7 0 0 0 - - -, f 7;
#X obj 1271 217 del 500;
#X floatatom 1320 309 5 0 0 0 - - -, f 5;
#X obj 1200 467 *~ 5;
#X obj 694 505 bp~ 118 10;
#X floatatom 767 506 5 0 0 0 - - -, f 5;
#X floatatom 776 473 5 0 0 0 - - -, f 5;
#X obj 693 532 *~ 50;
#X obj 931 476 *~ 40;
#X obj 641 247 cyclone/prepend set;
#X obj 606 204 cyclone/prepend set;
#X obj 572 160 cyclone/prepend set;
#X obj 398 526 motex/pan~ 0;
#X obj 692 570 motex/pan~ 0;
#X obj 932 523 motex/pan~;
#X obj 1201 514 motex/pan~;
#X obj 435 233 creb/eadsr~ 11 54 0.03 200;
#X obj 732 363 creb/eadsr~ 4 145 35 200;
#X obj 994 284 creb/eadsr~ 7 18 0.03 200;
#X obj 1263 275 creb/eadsr~ 7 18 0.03 200;
#X floatatom 469 502 5 0 0 0 - - -, f 5;
#X obj 78 212 noise~;
#X obj 145 155 bng 15 250 50 0 empty empty empty 0 -6 0 10 -262144
-1 -1;
#X obj 139 258 /~ 10;
#X obj 153 175 del 100;
#X floatatom 228 132 5 0 0 0 - - -, f 5;
#X obj 192 153 - 100;
#X floatatom 263 211 5 0 0 0 - - -, f 5;
#X floatatom 224 211 5 0 0 0 - - -, f 5;
#X floatatom 183 211 5 0 0 0 - - -, f 5;
#X obj 65 273 *~;
#X floatatom 191 130 5 0 0 0 - - -, f 5;
#X obj 108 440 *~ 0.2;
#X floatatom 143 357 5 0 0 0 - - -, f 5;
#X obj 64 317 *~ 0.2;
#X obj 153 314 hsl 128 15 0 15000 0 0 empty empty empty -2 -6 0 10
-262144 -1 -1 0 1;
#X floatatom 151 336 5 0 0 0 - - -, f 5;
#X msg 84 85 bang;
#X obj 168 390 vsl 15 40 0 127 0 0 empty vol_1 empty 0 -8 0 10 -262144
-1 -1 0 1;
#X obj 155 439 / 127;
#X obj 147 85 unpack f f f;
#X obj 141 500 * 45;
#X obj 109 479 *~ 20;
#X msg 155 203 stop;
#X obj 108 526 motex/pan~ 0;
#X obj 145 233 creb/eadsr~ 11 54 0.03 200;
#X floatatom 179 502 5 0 0 0 - - -, f 5;
#X obj 112 32 inlet cont2;
#X obj 108 552 outlet~ cont2L;
#X obj 197 552 outlet~ cont2R;
#X obj 203 443 hsl 128 15 -1 1 0 0 empty empty empty -2 -6 0 10 -262144
-1 -1 5839 1;
#X obj 522 480 hsl 128 15 -1 1 0 0 empty empty empty -2 -6 0 10 -262144
-1 -1 4917 1;
#X obj 76 354 bp~ 5400 5;
#X obj 366 354 bp~ 5400 5;
#X obj 112 60 t a l;
#X obj 402 60 t b l;
#X obj 198 55 print cont2;
#X obj 302 73 print cont1;
#X connect 0 0 9 0;
#X connect 1 0 3 0;
#X connect 1 0 134 0;
#X connect 2 0 9 1;
#X connect 3 0 89 0;
#X connect 4 0 5 1;
#X connect 4 0 134 4;
#X connect 5 0 3 1;
#X connect 6 0 134 3;
#X connect 7 0 134 2;
#X connect 8 0 134 1;
#X connect 9 0 13 0;
#X connect 10 0 5 0;
#X connect 11 0 87 0;
#X connect 12 0 11 1;
#X connect 13 0 171 0;
#X connect 14 0 15 0;
#X connect 14 0 171 1;
#X connect 16 0 26 0;
#X connect 17 0 19 0;
#X connect 17 0 136 0;
#X connect 18 0 26 1;
#X connect 19 0 20 0;
#X connect 20 0 136 0;
#X connect 21 0 22 1;
#X connect 21 0 136 4;
#X connect 22 0 19 1;
#X connect 23 0 136 3;
#X connect 24 0 136 2;
#X connect 25 0 136 1;
#X connect 26 0 31 0;
#X connect 27 0 22 0;
#X connect 28 0 29 0;
#X connect 29 0 48 1;
#X connect 30 0 31 1;
#X connect 31 0 48 0;
#X connect 32 0 42 0;
#X connect 33 0 35 0;
#X connect 33 0 135 0;
#X connect 34 0 42 1;
#X connect 35 0 36 0;
#X connect 36 0 135 0;
#X connect 37 0 38 1;
#X connect 37 0 135 4;
#X connect 38 0 35 1;
#X connect 39 0 135 3;
#X connect 40 0 135 2;
#X connect 41 0 135 1;
#X connect 42 0 47 0;
#X connect 43 0 38 0;
#X connect 44 0 45 0;
#X connect 45 0 122 1;
#X connect 46 0 47 1;
#X connect 47 0 122 0;
#X connect 48 0 126 0;
#X connect 49 0 1 0;
#X connect 50 0 53 0;
#X connect 51 0 54 0;
#X connect 52 0 55 0;
#X connect 53 0 11 1;
#X connect 54 0 47 1;
#X connect 55 0 30 0;
#X connect 56 0 13 1;
#X connect 56 1 57 0;
#X connect 56 1 169 0;
#X connect 56 2 15 0;
#X connect 56 2 171 1;
#X connect 57 0 130 1;
#X connect 57 0 138 0;
#X connect 60 0 75 0;
#X connect 60 0 173 0;
#X connect 61 0 33 0;
#X connect 62 0 47 1;
#X connect 62 1 131 1;
#X connect 62 2 122 1;
#X connect 63 0 61 0;
#X connect 63 1 62 0;
#X connect 64 0 17 0;
#X connect 65 0 31 1;
#X connect 65 2 48 1;
#X connect 66 0 64 0;
#X connect 66 1 65 0;
#X connect 67 0 63 0;
#X connect 72 0 66 0;
#X connect 73 0 75 1;
#X connect 75 0 76 0;
#X connect 76 0 129 0;
#X connect 76 1 128 0;
#X connect 76 2 127 0;
#X connect 83 0 132 1;
#X connect 84 0 83 1;
#X connect 85 0 86 0;
#X connect 86 0 17 0;
#X connect 86 0 33 0;
#X connect 87 0 130 0;
#X connect 89 0 134 0;
#X connect 90 0 99 0;
#X connect 91 0 119 0;
#X connect 91 0 137 0;
#X connect 92 0 99 1;
#X connect 93 0 137 0;
#X connect 94 0 95 1;
#X connect 94 0 137 4;
#X connect 95 0 119 1;
#X connect 96 0 137 3;
#X connect 97 0 137 2;
#X connect 98 0 137 1;
#X connect 99 0 104 0;
#X connect 100 0 95 0;
#X connect 101 0 102 0;
#X connect 102 0 115 1;
#X connect 103 0 104 1;
#X connect 104 0 115 0;
#X connect 105 0 106 0;
#X connect 106 0 103 0;
#X connect 107 0 91 0;
#X connect 108 0 104 1;
#X connect 108 2 118 0;
#X connect 109 0 107 0;
#X connect 109 1 108 0;
#X connect 110 0 133 1;
#X connect 111 0 110 1;
#X connect 112 0 113 0;
#X connect 113 0 91 0;
#X connect 114 0 109 0;
#X connect 115 0 121 0;
#X connect 118 0 115 1;
#X connect 119 0 93 0;
#X connect 121 0 133 0;
#X connect 122 0 125 0;
#X connect 123 0 125 1;
#X connect 124 0 122 2;
#X connect 125 0 131 0;
#X connect 126 0 132 0;
#X connect 127 0 79 0;
#X connect 128 0 78 0;
#X connect 129 0 77 0;
#X connect 130 0 58 0;
#X connect 130 1 59 0;
#X connect 131 0 68 0;
#X connect 131 1 69 0;
#X connect 132 0 70 0;
#X connect 132 1 71 0;
#X connect 133 0 116 0;
#X connect 133 1 117 0;
#X connect 134 0 2 0;
#X connect 135 0 34 0;
#X connect 136 0 18 0;
#X connect 137 0 92 0;
#X connect 139 0 148 0;
#X connect 140 0 142 0;
#X connect 140 0 163 0;
#X connect 141 0 148 1;
#X connect 142 0 161 0;
#X connect 143 0 144 1;
#X connect 143 0 163 4;
#X connect 144 0 142 1;
#X connect 145 0 163 3;
#X connect 146 0 163 2;
#X connect 147 0 163 1;
#X connect 148 0 152 0;
#X connect 149 0 144 0;
#X connect 150 0 160 0;
#X connect 151 0 150 1;
#X connect 152 0 170 0;
#X connect 153 0 154 0;
#X connect 153 0 170 1;
#X connect 155 0 140 0;
#X connect 156 0 157 0;
#X connect 157 0 150 1;
#X connect 158 0 152 1;
#X connect 158 1 159 0;
#X connect 158 1 168 0;
#X connect 158 2 154 0;
#X connect 158 2 170 1;
#X connect 159 0 162 1;
#X connect 159 0 164 0;
#X connect 160 0 162 0;
#X connect 161 0 163 0;
#X connect 162 0 166 0;
#X connect 162 1 167 0;
#X connect 163 0 141 0;
#X connect 165 0 172 0;
#X connect 170 0 150 0;
#X connect 171 0 11 0;
#X connect 172 0 155 0;
#X connect 172 1 158 0;
#X connect 173 0 49 0;
#X connect 173 1 56 0;
