#N canvas 2 102 1020 645 12;
#X obj 723 563 dac~;
#X msg 52 546 \; pd dsp \$1 \;;
#X obj 52 524 tgl 15 0 empty empty empty 17 7 0 10 -262144 -1 -1 1
4;
#X obj 800 413 snapshot~;
#X obj 817 352 tgl 15 0 empty empty empty 17 7 0 10 -262144 -1 -1 0
1;
#X obj 771 35 metro 500;
#X obj 746 138 random 20;
#X obj 746 166 + 40;
#X msg 746 194 \$1;
#X obj 794 -19 tgl 15 0 empty empty empty 17 7 0 10 -262144 -1 -1 0
1;
#X obj 885 122 random 250;
#X msg 851 179 0;
#X obj 846 151 del 100;
#X obj 1099 62 random 20;
#X obj 1099 90 + 40;
#X msg 1099 118 \$1;
#X obj 1048 159 random 250;
#X msg 1065 231 0;
#X obj 1024 188 del 100;
#X obj 920 80 del 300;
#X obj 936 235 hsl 128 15 -1 1 0 0 empty empty empty -2 -8 0 10 -262144
-1 -1 5048 1;
#X obj 641 187 line;
#X obj 650 66 random 127;
#X msg 652 152 \$1 500;
#X obj 1002 123 line;
#X obj 1018 -1 random 127;
#X msg 1013 88 \$1 500;
#X obj 52 469 key;
#X obj 52 496 select 32;
#X obj 81 129 print log udp;
#X obj 87 85 spigot;
#X obj 226 129 route master 1 2 3 4;
#X obj 657 94 / 64;
#X obj 653 121 - 1;
#X obj 1030 34 / 64;
#X obj 1017 63 - 1;
#X obj 624 223 hsl 128 15 -1 1 0 0 empty empty empty -2 -8 0 10 -262144
-1 -1 3328 1;
#X obj 379 129 route 1 2 3 4;
#X obj 654 38 spigot;
#X obj 712 8 tgl 15 0 empty empty empty 17 7 0 10 -262144 -1 -1 0 1
;
#X obj 890 28 spigot;
#X obj 885 -7 tgl 15 0 empty empty empty 17 7 0 10 -262144 -1 -1 0
1;
#X obj 750 -55 loadbang;
#X msg 857 -52 0;
#N canvas 2 102 1020 645 voice 0;
#X obj 327 108 inlet;
#X obj 657 148 inlet;
#X text 323 83 trigger;
#X obj 327 136 sel 0;
#X obj 466 152 t b;
#X obj 388 261 f \$1;
#X obj 388 286 pack 0 \$2;
#X obj 714 148 inlet;
#X obj 660 278 del \$2;
#X obj 593 441 line~;
#X obj 684 301 f \$4;
#X obj 723 376 pack 0 \$3;
#X obj 776 148 inlet;
#X obj 838 148 inlet;
#X obj 911 147 inlet;
#X msg 327 167 stop;
#X obj 834 303 pack 0 \$5;
#X text 657 126 level;
#X obj 723 352 * \$1;
#X obj 442 600 outlet~;
#X text 324 373 and pack with;
#X text 325 395 attack time;
#X text 253 123 if zero;
#X text 254 140 release;
#X text 234 157 and cancel;
#X text 265 174 decay;
#X text 506 269 on attack \, set a;
#X text 500 302 recall sustain value;
#X text 537 375 pack with decay time;
#X text 827 329 on release ramp;
#X text 828 346 back to zero;
#X obj 684 326 * 0.01;
#X text 235 -1 ADSR ENVELOPE;
#X text 710 126 attack;
#X text 777 125 decay;
#X text 831 126 sustain;
#X text 908 126 release;
#X text 424 68 attack;
#X obj 426 89 moses;
#X obj 416 119 t b b;
#X msg 350 287 0;
#X text 242 270 optionally;
#X text 232 288 bash to zero;
#X text 247 243 ATTACK:;
#X text 717 626 Updated for Pd version 0.37;
#X text 477 86 test for negative trigger;
#X text 476 126 the output;
#X text 500 162 in any case;
#X text 525 352 multiply by peak level;
#X text 502 283 delay for sustain;
#X text 498 325 convert from percent;
#X text 377 337 ... then;
#X text 325 356 recall peak level;
#X text 661 109 peak;
#X text 503 146 ... do this;
#X text 430 -2 Arguments: level \, attack time \, decay time \, sustain
level \, release time. A \, D \, and R are in msec and S is in percent.
This patch is used as an abstraction in various examples.;
#X obj 96 118 mtof;
#X obj 98 48 inlet;
#X text 475 110 if so \, zero;
#X obj 279 506 *~;
#X obj 869 32 loadbang;
#X obj 779 65 bng 15 250 50 0 empty empty empty 17 7 0 10 -262144 -1
-1;
#X msg 717 97 20;
#X msg 664 84 1;
#X obj 510 59 inlet;
#X obj 523 602 outlet~;
#X obj 102 75 sel 0;
#X floatatom 51 240 5 0 0 0 - - -, f 5;
#X obj 113 162 r slide_msec_voice_1;
#X obj 52 307 pack f f;
#X msg 210 263 0;
#X obj 57 344 line~;
#X msg 180 107 0;
#X obj 129 269 + 0;
#X obj 145 307 pack f f;
#X obj 142 342 line~;
#X obj 329 507 *~;
#X obj 469 432 * 0.5;
#X obj 407 485 + 0.5;
#X floatatom 134 233 5 0 0 0 - - -, f 5;
#X msg 445 380 0;
#X msg 329 322 -0.7;
#X msg 496 380 0.7;
#X obj 138 194 r binaural_diff_voice_1;
#X obj 222 379 >= 0;
#X msg 261 320 -1;
#X msg 224 313 0;
#X msg 232 342 1;
#X obj 262 380 < 0;
#X obj 58 380 tabosc4~ sines1;
#X obj 142 407 tabosc4~ sines1;
#X obj 21 542 sinesum_from_message sines1;
#X obj 21 514 r wavetable_sines1;
#X obj 256 49 r global_speed;
#X floatatom 906 302 5 0 0 0 - - -, f 5;
#X obj 906 274 * 0.5;
#X obj 285 542 pan/gpan~;
#X msg 849 107 10;
#X msg 783 102 30;
#X msg 916 102 300;
#X msg 299 408 1;
#X obj 153 438 *~ 1;
#X obj 226 438 *~ 1;
#X connect 0 0 3 0;
#X connect 1 0 5 1;
#X connect 1 0 18 1;
#X connect 3 0 15 0;
#X connect 3 0 16 0;
#X connect 3 1 38 0;
#X connect 4 0 5 0;
#X connect 4 0 8 0;
#X connect 5 0 6 0;
#X connect 6 0 9 0;
#X connect 7 0 6 1;
#X connect 7 0 8 1;
#X connect 8 0 10 0;
#X connect 9 0 59 1;
#X connect 9 0 76 1;
#X connect 10 0 31 0;
#X connect 11 0 9 0;
#X connect 12 0 11 1;
#X connect 13 0 10 1;
#X connect 14 0 16 1;
#X connect 15 0 8 0;
#X connect 16 0 9 0;
#X connect 18 0 11 0;
#X connect 31 0 18 0;
#X connect 38 0 39 0;
#X connect 38 1 4 0;
#X connect 39 0 4 0;
#X connect 39 1 40 0;
#X connect 40 0 9 0;
#X connect 56 0 67 0;
#X connect 57 0 3 0;
#X connect 57 0 66 0;
#X connect 59 0 96 0;
#X connect 60 0 61 0;
#X connect 61 0 63 0;
#X connect 61 0 62 0;
#X connect 61 0 98 0;
#X connect 61 0 97 0;
#X connect 61 0 99 0;
#X connect 61 0 70 0;
#X connect 62 0 8 1;
#X connect 62 0 6 1;
#X connect 63 0 5 1;
#X connect 63 0 18 1;
#X connect 64 0 77 0;
#X connect 64 0 88 0;
#X connect 64 0 84 0;
#X connect 66 0 72 0;
#X connect 66 1 56 0;
#X connect 67 0 69 0;
#X connect 67 0 73 0;
#X connect 68 0 69 1;
#X connect 68 0 74 1;
#X connect 69 0 71 0;
#X connect 70 0 69 1;
#X connect 70 0 74 1;
#X connect 71 0 89 0;
#X connect 72 0 3 0;
#X connect 73 0 74 0;
#X connect 74 0 75 0;
#X connect 75 0 90 0;
#X connect 76 0 96 1;
#X connect 77 0 78 0;
#X connect 78 0 96 2;
#X connect 79 0 73 1;
#X connect 80 0 77 0;
#X connect 81 0 77 0;
#X connect 82 0 77 0;
#X connect 83 0 79 0;
#X connect 84 0 101 1;
#X connect 85 0 84 0;
#X connect 85 0 88 0;
#X connect 86 0 84 0;
#X connect 86 0 88 0;
#X connect 87 0 84 0;
#X connect 87 0 88 0;
#X connect 88 0 102 1;
#X connect 89 0 101 0;
#X connect 90 0 102 0;
#X connect 92 0 91 0;
#X connect 93 0 95 0;
#X connect 95 0 94 0;
#X connect 95 0 16 1;
#X connect 96 0 19 0;
#X connect 96 1 65 0;
#X connect 97 0 10 1;
#X connect 98 0 11 1;
#X connect 99 0 16 1;
#X connect 101 0 59 0;
#X connect 102 0 76 0;
#X restore 56 269 pd voice 1 30 30 30 30 300;
#X obj 97 214 hsl 128 15 -1 1 0 0 empty empty empty -2 -8 0 10 -262144
-1 -1 4092 1;
#X obj 327 216 hsl 128 15 -1 1 0 0 empty empty empty -2 -8 0 10 -262144
-1 -1 7815 1;
#X obj 227 185 s master_vol;
#X obj 1122 287 r master_vol;
#X obj 708 412 vsl 80 20 0 1 0 0 empty empty empty 0 -9 0 10 -262144
-1 -1 0 1;
#X obj 800 439 abs;
#X obj 202 -4 bng 15 250 50 0 empty empty empty 17 7 0 10 -262144 -1
-1;
#X obj 144 10 tgl 15 0 empty empty empty 17 7 0 10 -262144 -1 -1 0
1;
#X msg 556 47 -0.7;
#X msg 608 42 0;
#X msg 583 82 0.7;
#X obj 643 -2 bng 15 250 50 0 empty empty empty 17 7 0 10 -262144 -1
-1;
#X obj 482 278 route 1 2 3 4;
#X msg 53 330 [1_ 2_ 2_ 1_ 2_ 2_ 2];
#X msg 309 337 [2_ 1_ 1_ 2_ 2_ 4];
#X msg 563 372 [3_ 3_ 1_ 1_ 1_ 3];
#X msg 942 343 [2_ 1_ 2_ 1_ 2_ 1_ 2_ 1];
#X obj 802 382 metro 120;
#X obj 35 335 bng 15 250 50 0 empty empty empty 17 7 0 10 -262144 -1
-1;
#X obj 287 337 bng 15 250 50 0 empty empty empty 17 7 0 10 -262144
-1 -1;
#X obj 542 375 bng 15 250 50 0 empty empty empty 17 7 0 10 -262144
-1 -1;
#X obj 918 345 bng 15 250 50 0 empty empty empty 17 7 0 10 -262144
-1 -1;
#X floatatom 329 420 5 0 0 0 - - -, f 5;
#X obj 262 -48 netreceive 12321 1;
#X msg 121 160 (24__(1__2__2__1__2__2__2__1__2__2__1__2__2__2));
#N canvas 2 120 1020 627 voice 0;
#X obj 327 108 inlet;
#X obj 657 148 inlet;
#X text 323 83 trigger;
#X obj 327 136 sel 0;
#X obj 466 152 t b;
#X obj 388 261 f \$1;
#X obj 388 286 pack 0 \$2;
#X obj 714 148 inlet;
#X obj 660 278 del \$2;
#X obj 593 441 line~;
#X obj 684 301 f \$4;
#X obj 723 376 pack 0 \$3;
#X obj 776 148 inlet;
#X obj 838 148 inlet;
#X obj 911 147 inlet;
#X msg 327 167 stop;
#X obj 834 303 pack 0 \$5;
#X text 657 126 level;
#X obj 723 352 * \$1;
#X obj 442 600 outlet~;
#X text 324 373 and pack with;
#X text 325 395 attack time;
#X text 253 123 if zero;
#X text 254 140 release;
#X text 234 157 and cancel;
#X text 265 174 decay;
#X text 506 269 on attack \, set a;
#X text 500 302 recall sustain value;
#X text 537 375 pack with decay time;
#X text 827 329 on release ramp;
#X text 828 346 back to zero;
#X obj 684 326 * 0.01;
#X text 235 -1 ADSR ENVELOPE;
#X text 710 126 attack;
#X text 777 125 decay;
#X text 831 126 sustain;
#X text 908 126 release;
#X text 424 68 attack;
#X obj 426 89 moses;
#X obj 416 119 t b b;
#X msg 350 287 0;
#X text 242 270 optionally;
#X text 232 288 bash to zero;
#X text 247 243 ATTACK:;
#X text 717 626 Updated for Pd version 0.37;
#X text 477 86 test for negative trigger;
#X text 476 126 the output;
#X text 500 162 in any case;
#X text 525 352 multiply by peak level;
#X text 502 283 delay for sustain;
#X text 498 325 convert from percent;
#X text 377 337 ... then;
#X text 325 356 recall peak level;
#X text 661 109 peak;
#X text 503 146 ... do this;
#X text 430 -2 Arguments: level \, attack time \, decay time \, sustain
level \, release time. A \, D \, and R are in msec and S is in percent.
This patch is used as an abstraction in various examples.;
#X obj 96 118 mtof;
#X obj 98 48 inlet;
#X text 475 110 if so \, zero;
#X obj 279 506 *~;
#X obj 869 32 loadbang;
#X obj 779 65 bng 15 250 50 0 empty empty empty 17 7 0 10 -262144 -1
-1;
#X msg 783 102 30;
#X msg 717 97 20;
#X msg 849 107 30;
#X msg 664 84 1;
#X obj 531 64 inlet;
#X obj 523 602 outlet~;
#X obj 102 75 sel 0;
#X msg 916 102 666;
#X floatatom 51 240 5 0 0 0 - - -, f 5;
#X obj 52 307 pack f f;
#X msg 210 263 0;
#X obj 57 344 line~;
#X msg 180 107 0;
#X obj 129 269 + 0;
#X obj 145 307 pack f f;
#X obj 142 342 line~;
#X obj 329 507 *~;
#X obj 469 432 * 0.5;
#X obj 407 485 + 0.5;
#X floatatom 134 233 5 0 0 0 - - -, f 5;
#X msg 445 380 0;
#X msg 329 322 -0.7;
#X msg 496 380 0.7;
#X obj 113 162 r slide_msec_voice_2;
#X obj 137 195 r binaural_diff_voice_2;
#X obj 232 389 >= 0;
#X msg 271 330 -1;
#X msg 234 323 0;
#X msg 242 352 1;
#X obj 272 390 < 0;
#X obj 58 390 tabosc4~ sines2;
#X obj 143 417 tabosc4~ sines2;
#X obj 30 524 r wavetable_sines2;
#X obj 30 552 sinesum_from_message sines2;
#X obj 255 50 r global_speed;
#X floatatom 905 303 5 0 0 0 - - -, f 5;
#X obj 905 275 * 0.5;
#X obj 285 542 pan/gpan~;
#X msg 300 420;
#X obj 257 454 *~ 1;
#X obj 189 454 *~ 1;
#X connect 0 0 3 0;
#X connect 1 0 5 1;
#X connect 1 0 18 1;
#X connect 3 0 15 0;
#X connect 3 0 16 0;
#X connect 3 1 38 0;
#X connect 4 0 5 0;
#X connect 4 0 8 0;
#X connect 5 0 6 0;
#X connect 6 0 9 0;
#X connect 7 0 6 1;
#X connect 7 0 8 1;
#X connect 8 0 10 0;
#X connect 9 0 59 1;
#X connect 9 0 78 1;
#X connect 10 0 31 0;
#X connect 11 0 9 0;
#X connect 12 0 11 1;
#X connect 13 0 10 1;
#X connect 14 0 16 1;
#X connect 15 0 8 0;
#X connect 16 0 9 0;
#X connect 18 0 11 0;
#X connect 31 0 18 0;
#X connect 38 0 39 0;
#X connect 38 1 4 0;
#X connect 39 0 4 0;
#X connect 39 1 40 0;
#X connect 40 0 9 0;
#X connect 56 0 70 0;
#X connect 57 0 3 0;
#X connect 57 0 68 0;
#X connect 59 0 99 0;
#X connect 60 0 61 0;
#X connect 61 0 65 0;
#X connect 61 0 63 0;
#X connect 61 0 62 0;
#X connect 61 0 64 0;
#X connect 61 0 69 0;
#X connect 61 0 72 0;
#X connect 62 0 11 1;
#X connect 63 0 8 1;
#X connect 63 0 6 1;
#X connect 64 0 10 1;
#X connect 65 0 5 1;
#X connect 65 0 18 1;
#X connect 66 0 79 0;
#X connect 66 0 87 0;
#X connect 66 0 91 0;
#X connect 68 0 74 0;
#X connect 68 1 56 0;
#X connect 69 0 16 1;
#X connect 70 0 71 0;
#X connect 70 0 75 0;
#X connect 71 0 73 0;
#X connect 72 0 71 1;
#X connect 72 0 76 1;
#X connect 73 0 92 0;
#X connect 74 0 3 0;
#X connect 75 0 76 0;
#X connect 76 0 77 0;
#X connect 77 0 93 0;
#X connect 78 0 99 1;
#X connect 79 0 80 0;
#X connect 80 0 99 2;
#X connect 81 0 75 1;
#X connect 82 0 79 0;
#X connect 83 0 79 0;
#X connect 84 0 79 0;
#X connect 85 0 71 1;
#X connect 85 0 76 1;
#X connect 86 0 81 0;
#X connect 87 0 102 1;
#X connect 88 0 87 0;
#X connect 88 0 91 0;
#X connect 89 0 87 0;
#X connect 89 0 91 0;
#X connect 90 0 87 0;
#X connect 90 0 91 0;
#X connect 91 0 101 1;
#X connect 92 0 102 0;
#X connect 93 0 101 0;
#X connect 94 0 95 0;
#X connect 96 0 98 0;
#X connect 98 0 16 1;
#X connect 98 0 97 0;
#X connect 99 0 19 0;
#X connect 99 1 67 0;
#X connect 101 0 78 0;
#X connect 102 0 59 0;
#X restore 282 270 pd voice 2 30 30 30 30 300;
#N canvas 2 102 1020 645 voice 0;
#X obj 327 108 inlet;
#X obj 657 148 inlet;
#X text 323 83 trigger;
#X obj 327 136 sel 0;
#X obj 466 152 t b;
#X obj 388 261 f \$1;
#X obj 388 286 pack 0 \$2;
#X obj 714 148 inlet;
#X obj 660 278 del \$2;
#X obj 593 441 line~;
#X obj 684 301 f \$4;
#X obj 723 376 pack 0 \$3;
#X obj 776 148 inlet;
#X obj 838 148 inlet;
#X obj 911 147 inlet;
#X msg 327 167 stop;
#X obj 834 303 pack 0 \$5;
#X text 657 126 level;
#X obj 723 352 * \$1;
#X obj 442 600 outlet~;
#X text 324 373 and pack with;
#X text 325 395 attack time;
#X text 253 123 if zero;
#X text 254 140 release;
#X text 234 157 and cancel;
#X text 265 174 decay;
#X text 506 269 on attack \, set a;
#X text 500 302 recall sustain value;
#X text 537 375 pack with decay time;
#X text 827 329 on release ramp;
#X text 828 346 back to zero;
#X obj 684 326 * 0.01;
#X text 235 -1 ADSR ENVELOPE;
#X text 710 126 attack;
#X text 777 125 decay;
#X text 831 126 sustain;
#X text 908 126 release;
#X text 424 68 attack;
#X obj 426 89 moses;
#X obj 416 119 t b b;
#X msg 350 287 0;
#X text 242 270 optionally;
#X text 232 288 bash to zero;
#X text 247 243 ATTACK:;
#X text 717 626 Updated for Pd version 0.37;
#X text 477 86 test for negative trigger;
#X text 476 126 the output;
#X text 500 162 in any case;
#X text 525 352 multiply by peak level;
#X text 502 283 delay for sustain;
#X text 498 325 convert from percent;
#X text 377 337 ... then;
#X text 325 356 recall peak level;
#X text 661 109 peak;
#X text 503 146 ... do this;
#X text 430 -2 Arguments: level \, attack time \, decay time \, sustain
level \, release time. A \, D \, and R are in msec and S is in percent.
This patch is used as an abstraction in various examples.;
#X obj 96 118 mtof;
#X obj 98 48 inlet;
#X text 475 110 if so \, zero;
#X obj 218 506 *~;
#X obj 869 32 loadbang;
#X obj 779 65 bng 15 250 50 0 empty empty empty 17 7 0 10 -262144 -1
-1;
#X msg 783 102 30;
#X msg 717 97 20;
#X msg 849 107 30;
#X msg 664 84 1;
#X obj 531 64 inlet;
#X obj 523 602 outlet~;
#X obj 102 75 sel 0;
#X msg 916 102 666;
#X floatatom 51 240 5 0 0 0 - - -, f 5;
#X obj 52 307 pack f f;
#X msg 210 263 0;
#X obj 57 344 line~;
#X msg 180 107 0;
#X obj 129 269 + 0;
#X obj 145 307 pack f f;
#X obj 142 342 line~;
#X obj 268 507 *~;
#X obj 469 432 * 0.5;
#X obj 407 485 + 0.5;
#X floatatom 134 233 5 0 0 0 - - -, f 5;
#X msg 445 380 0;
#X msg 329 322 -0.7;
#X msg 496 380 0.7;
#X obj 113 162 r slide_msec_voice_3;
#X obj 137 195 r binaural_diff_voice_3;
#X obj 242 399 >= 0;
#X msg 281 340 -1;
#X msg 244 333 0;
#X msg 252 362 1;
#X obj 282 400 < 0;
#X obj 57 400 tabosc4~ sines3;
#X obj 141 427 tabosc4~ sines3;
#X obj 41 534 r wavetable_sines3;
#X obj 41 562 sinesum_from_message sines3;
#X obj 265 60 r global_speed;
#X floatatom 911 295 5 0 0 0 - - -, f 5;
#X obj 911 267 * 0.5;
#X obj 285 542 pan/gpan~;
#X obj 138 464 *~ 1;
#X obj 206 464 *~ 1;
#X connect 0 0 3 0;
#X connect 1 0 5 1;
#X connect 1 0 18 1;
#X connect 3 0 15 0;
#X connect 3 0 16 0;
#X connect 3 1 38 0;
#X connect 4 0 5 0;
#X connect 4 0 8 0;
#X connect 5 0 6 0;
#X connect 6 0 9 0;
#X connect 7 0 6 1;
#X connect 7 0 8 1;
#X connect 8 0 10 0;
#X connect 9 0 59 1;
#X connect 9 0 78 1;
#X connect 10 0 31 0;
#X connect 11 0 9 0;
#X connect 12 0 11 1;
#X connect 13 0 10 1;
#X connect 14 0 16 1;
#X connect 15 0 8 0;
#X connect 16 0 9 0;
#X connect 18 0 11 0;
#X connect 31 0 18 0;
#X connect 38 0 39 0;
#X connect 38 1 4 0;
#X connect 39 0 4 0;
#X connect 39 1 40 0;
#X connect 40 0 9 0;
#X connect 56 0 70 0;
#X connect 57 0 3 0;
#X connect 57 0 68 0;
#X connect 59 0 99 0;
#X connect 60 0 61 0;
#X connect 61 0 65 0;
#X connect 61 0 63 0;
#X connect 61 0 62 0;
#X connect 61 0 64 0;
#X connect 61 0 69 0;
#X connect 61 0 72 0;
#X connect 62 0 11 1;
#X connect 63 0 8 1;
#X connect 63 0 6 1;
#X connect 64 0 10 1;
#X connect 65 0 5 1;
#X connect 65 0 18 1;
#X connect 66 0 79 0;
#X connect 66 0 87 0;
#X connect 66 0 91 0;
#X connect 68 0 74 0;
#X connect 68 1 56 0;
#X connect 69 0 16 1;
#X connect 70 0 71 0;
#X connect 70 0 75 0;
#X connect 71 0 73 0;
#X connect 72 0 71 1;
#X connect 72 0 76 1;
#X connect 73 0 92 0;
#X connect 74 0 3 0;
#X connect 75 0 76 0;
#X connect 76 0 77 0;
#X connect 77 0 93 0;
#X connect 78 0 99 1;
#X connect 79 0 80 0;
#X connect 80 0 99 2;
#X connect 81 0 75 1;
#X connect 82 0 79 0;
#X connect 83 0 79 0;
#X connect 84 0 79 0;
#X connect 85 0 71 1;
#X connect 85 0 76 1;
#X connect 86 0 81 0;
#X connect 87 0 100 1;
#X connect 88 0 87 0;
#X connect 88 0 91 0;
#X connect 89 0 87 0;
#X connect 89 0 91 0;
#X connect 90 0 87 0;
#X connect 90 0 91 0;
#X connect 91 0 101 1;
#X connect 92 0 100 0;
#X connect 93 0 101 0;
#X connect 94 0 95 0;
#X connect 96 0 98 0;
#X connect 98 0 97 0;
#X connect 98 0 16 1;
#X connect 99 0 19 0;
#X connect 99 1 67 0;
#X connect 100 0 59 0;
#X connect 101 0 78 0;
#X restore 629 304 pd voice 3 30 30 30 30 300;
#N canvas 2 120 1020 627 voice 0;
#X obj 327 108 inlet;
#X obj 657 148 inlet;
#X text 323 83 trigger;
#X obj 327 136 sel 0;
#X obj 466 152 t b;
#X obj 388 261 f \$1;
#X obj 388 286 pack 0 \$2;
#X obj 714 148 inlet;
#X obj 660 278 del \$2;
#X obj 593 441 line~;
#X obj 684 301 f \$4;
#X obj 723 376 pack 0 \$3;
#X obj 776 148 inlet;
#X obj 838 148 inlet;
#X obj 911 147 inlet;
#X msg 327 167 stop;
#X obj 834 303 pack 0 \$5;
#X text 657 126 level;
#X obj 723 352 * \$1;
#X obj 442 600 outlet~;
#X text 324 373 and pack with;
#X text 325 395 attack time;
#X text 253 123 if zero;
#X text 254 140 release;
#X text 234 157 and cancel;
#X text 265 174 decay;
#X text 506 269 on attack \, set a;
#X text 500 302 recall sustain value;
#X text 537 375 pack with decay time;
#X text 827 329 on release ramp;
#X text 828 346 back to zero;
#X obj 684 326 * 0.01;
#X text 235 -1 ADSR ENVELOPE;
#X text 710 126 attack;
#X text 777 125 decay;
#X text 831 126 sustain;
#X text 908 126 release;
#X text 424 68 attack;
#X obj 426 89 moses;
#X obj 416 119 t b b;
#X msg 350 287 0;
#X text 242 270 optionally;
#X text 232 288 bash to zero;
#X text 247 243 ATTACK:;
#X text 717 626 Updated for Pd version 0.37;
#X text 477 86 test for negative trigger;
#X text 476 126 the output;
#X text 500 162 in any case;
#X text 525 352 multiply by peak level;
#X text 502 283 delay for sustain;
#X text 498 325 convert from percent;
#X text 377 337 ... then;
#X text 325 356 recall peak level;
#X text 661 109 peak;
#X text 503 146 ... do this;
#X text 430 -2 Arguments: level \, attack time \, decay time \, sustain
level \, release time. A \, D \, and R are in msec and S is in percent.
This patch is used as an abstraction in various examples.;
#X obj 96 118 mtof;
#X obj 98 48 inlet;
#X text 475 110 if so \, zero;
#X obj 279 506 *~;
#X obj 869 32 loadbang;
#X obj 779 65 bng 15 250 50 0 empty empty empty 17 7 0 10 -262144 -1
-1;
#X msg 783 102 30;
#X msg 717 97 20;
#X msg 849 107 30;
#X msg 664 84 1;
#X obj 531 64 inlet;
#X obj 523 602 outlet~;
#X obj 102 75 sel 0;
#X msg 916 102 666;
#X floatatom 51 240 5 0 0 0 - - -, f 5;
#X obj 52 307 pack f f;
#X msg 210 263 0;
#X obj 57 344 line~;
#X msg 180 107 0;
#X obj 129 269 + 0;
#X obj 145 307 pack f f;
#X obj 142 342 line~;
#X obj 329 507 *~;
#X obj 469 432 * 0.5;
#X obj 407 485 + 0.5;
#X floatatom 134 233 5 0 0 0 - - -, f 5;
#X msg 445 380 0;
#X msg 329 322 -0.7;
#X msg 496 380 0.7;
#X obj 113 162 r slide_msec_voice_4;
#X obj 137 195 r binaural_diff_voice_4;
#X obj 236 387 >= 0;
#X msg 273 326 -1;
#X msg 238 321 0;
#X msg 246 350 1;
#X obj 274 386 < 0;
#X obj 58 390 tabosc4~ sines4;
#X obj 142 417 tabosc4~ sines4;
#X obj 52 544 r wavetable_sines4;
#X obj 52 572 sinesum_from_message sines4;
#X obj 259 50 r global_speed;
#X floatatom 909 303 5 0 0 0 - - -, f 5;
#X obj 909 275 * 0.5;
#X obj 284 540 pan/gpan~;
#X obj 133 458 *~ 1;
#X obj 206 458 *~ 1;
#X connect 0 0 3 0;
#X connect 1 0 5 1;
#X connect 1 0 18 1;
#X connect 3 0 15 0;
#X connect 3 0 16 0;
#X connect 3 1 38 0;
#X connect 4 0 5 0;
#X connect 4 0 8 0;
#X connect 5 0 6 0;
#X connect 6 0 9 0;
#X connect 7 0 6 1;
#X connect 7 0 8 1;
#X connect 8 0 10 0;
#X connect 9 0 59 1;
#X connect 9 0 78 1;
#X connect 10 0 31 0;
#X connect 11 0 9 0;
#X connect 12 0 11 1;
#X connect 13 0 10 1;
#X connect 14 0 16 1;
#X connect 15 0 8 0;
#X connect 16 0 9 0;
#X connect 18 0 11 0;
#X connect 31 0 18 0;
#X connect 38 0 39 0;
#X connect 38 1 4 0;
#X connect 39 0 4 0;
#X connect 39 1 40 0;
#X connect 40 0 9 0;
#X connect 56 0 70 0;
#X connect 57 0 3 0;
#X connect 57 0 68 0;
#X connect 59 0 99 0;
#X connect 60 0 61 0;
#X connect 61 0 65 0;
#X connect 61 0 63 0;
#X connect 61 0 62 0;
#X connect 61 0 64 0;
#X connect 61 0 69 0;
#X connect 61 0 72 0;
#X connect 62 0 11 1;
#X connect 63 0 8 1;
#X connect 63 0 6 1;
#X connect 64 0 10 1;
#X connect 65 0 5 1;
#X connect 65 0 18 1;
#X connect 66 0 79 0;
#X connect 66 0 91 0;
#X connect 66 0 87 0;
#X connect 68 0 74 0;
#X connect 68 1 56 0;
#X connect 69 0 16 1;
#X connect 70 0 71 0;
#X connect 70 0 75 0;
#X connect 71 0 73 0;
#X connect 72 0 71 1;
#X connect 72 0 76 1;
#X connect 73 0 92 0;
#X connect 74 0 3 0;
#X connect 75 0 76 0;
#X connect 76 0 77 0;
#X connect 77 0 93 0;
#X connect 78 0 99 1;
#X connect 79 0 80 0;
#X connect 80 0 99 2;
#X connect 81 0 75 1;
#X connect 82 0 79 0;
#X connect 83 0 79 0;
#X connect 84 0 79 0;
#X connect 85 0 71 1;
#X connect 85 0 76 1;
#X connect 86 0 81 0;
#X connect 87 0 100 1;
#X connect 88 0 87 0;
#X connect 88 0 91 0;
#X connect 89 0 87 0;
#X connect 89 0 91 0;
#X connect 90 0 87 0;
#X connect 90 0 91 0;
#X connect 91 0 101 1;
#X connect 92 0 100 0;
#X connect 93 0 101 0;
#X connect 94 0 95 0;
#X connect 96 0 98 0;
#X connect 98 0 97 0;
#X connect 98 0 16 1;
#X connect 99 0 19 0;
#X connect 99 1 67 0;
#X connect 100 0 59 0;
#X connect 101 0 78 0;
#X restore 896 287 pd voice 4 30 30 30 30 300;
#X obj 485 246 route rhythm slide binaural;
#X obj 191 373 route 1 2 3 4;
#X obj 116 430 s slide_msec_voice_1;
#X obj 126 454 s slide_msec_voice_2;
#X obj 136 478 s slide_msec_voice_3;
#X obj 146 501 s slide_msec_voice_4;
#X floatatom 69 402 5 0 0 0 - - -, f 5;
#X obj 350 477 s binaural_diff_voice_1;
#X obj 361 501 s binaural_diff_voice_2;
#X obj 371 525 s binaural_diff_voice_3;
#X obj 381 548 s binaural_diff_voice_4;
#X obj 464 247 bng 15 250 50 0 empty empty empty 17 7 0 10 -262144
-1 -1;
#X obj 397 356 route 1 2 3 4 -1;
#X floatatom 520 480 5 0 0 0 - - -, f 5;
#X floatatom 533 500 5 0 0 0 - - -, f 5;
#X floatatom 559 548 5 0 0 0 - - -, f 5;
#X floatatom 551 520 5 0 0 0 - - -, f 5;
#X obj 335 -7 route sound voice perc sys;
#N canvas 2 102 1020 645 percussion 1;
#X obj -191 8 inlet ctl;
#X obj 37 85 print perc undefined;
#X obj -191 100 noise-drums-bang;
#X obj -189 268 outlet~ left;
#X obj -82 269 outlet~ right;
#X obj -190 190 *~ 1;
#X obj -83 188 *~ 1;
#X floatatom -73 145 5 0 0 0 - - -, f 5;
#X obj 42 244 snapshot~;
#X floatatom 42 270 10 0 0 0 - - -, f 10;
#X obj 54 222 bng 15 250 50 0 empty empty empty 17 7 0 10 -262144 -1
-1;
#X obj 42 192 metro 50;
#X obj 42 169 tgl 15 0 empty empty empty 17 7 0 10 -262144 -1 -1 0
1;
#X obj -1 118 s mute_drums;
#X obj -189 227 *~ 5;
#X obj -82 225 *~ 5;
#X obj -191 48 route low high cont mark vol mute cont2;
#X connect 0 0 16 0;
#X connect 2 0 5 0;
#X connect 2 1 6 0;
#X connect 2 2 5 0;
#X connect 2 3 6 0;
#X connect 2 4 5 0;
#X connect 2 5 6 0;
#X connect 2 6 5 0;
#X connect 2 7 6 0;
#X connect 2 8 5 0;
#X connect 2 9 6 0;
#X connect 5 0 8 0;
#X connect 5 0 14 0;
#X connect 6 0 8 0;
#X connect 6 0 15 0;
#X connect 7 0 6 1;
#X connect 7 0 5 1;
#X connect 8 0 9 0;
#X connect 10 0 8 0;
#X connect 11 0 8 0;
#X connect 12 0 11 0;
#X connect 14 0 3 0;
#X connect 15 0 4 0;
#X connect 16 0 2 2;
#X connect 16 1 2 3;
#X connect 16 2 2 1;
#X connect 16 3 2 4;
#X connect 16 4 7 0;
#X connect 16 5 13 0;
#X connect 16 6 2 0;
#X connect 16 7 1 0;
#X restore 449 38 pd percussion;
#X obj 28 150 spigot;
#X obj 28 175 print wild;
#X obj 45 91 tgl 15 0 empty empty empty 17 7 0 10 -262144 -1 -1 0 1
;
#X floatatom 271 431 5 0 0 0 - - -, f 5;
#X floatatom 284 457 5 0 0 0 - - -, f 5;
#X floatatom 290 479 5 0 0 0 - - -, f 5;
#X floatatom 298 501 5 0 0 0 - - -, f 5;
#X obj 1006 540 doku~;
#X obj 998 504 bng 15 250 50 0 empty empty empty 17 7 0 10 -262144
-1 -1;
#X msg 987 571 written doku_2013-1-3_22-24.wav;
#X obj 1093 541 record-stereo~;
#X obj 1188 518 tgl 15 0 empty empty empty 17 7 0 10 -262144 -1 -1
0 1;
#X msg 1024 497 ls;
#N canvas 2 50 1020 699 duration 0;
#X obj 29 6 del 250;
#X floatatom 89 123 5 0 0 0 - - -, f 5;
#X obj 29 50 0;
#X obj 29 -153 inlet;
#X text 76 -154 note or duration;
#X obj 29 122 outlet;
#X msg 61 -45 stop;
#X obj 29 -74 t b b;
#X obj 82 85 s wavetable_sines2;
#X obj 189 -13 s mute_voice_2;
#X obj 29 -119 route dur wavetable volume mute;
#X obj 136 27 s volume_voice_2;
#X connect 0 0 2 0;
#X connect 2 0 1 0;
#X connect 2 0 5 0;
#X connect 3 0 10 0;
#X connect 6 0 0 0;
#X connect 7 0 0 0;
#X connect 7 1 6 0;
#X connect 10 0 0 1;
#X connect 10 1 8 0;
#X connect 10 2 11 0;
#X connect 10 3 9 0;
#X connect 10 4 7 0;
#X connect 10 4 5 0;
#X connect 10 4 1 0;
#X restore 282 243 pd duration;
#N canvas 2 102 1020 645 volumes 1;
#X obj 14 95 inlet~;
#X obj 71 95 inlet~;
#X obj 129 95 inlet;
#X obj 15 201 *~ 1;
#X obj 72 200 *~ 1;
#X floatatom 50 163 5 0 0 0 - - -, f 5;
#X obj 207 96 inlet~;
#X obj 264 96 inlet~;
#X obj 325 96 inlet;
#X obj 208 202 *~ 1;
#X obj 265 201 *~ 1;
#X floatatom 254 167 5 0 0 0 - - -, f 5;
#X obj 417 97 inlet~;
#X obj 474 97 inlet~;
#X obj 535 97 inlet;
#X obj 418 204 *~ 1;
#X obj 475 203 *~ 1;
#X floatatom 464 169 5 0 0 0 - - -, f 5;
#X obj 613 98 inlet~;
#X obj 670 98 inlet~;
#X obj 730 98 inlet;
#X obj 613 204 *~ 1;
#X obj 670 203 *~ 1;
#X floatatom 659 171 5 0 0 0 - - -, f 5;
#X obj 805 98 inlet~;
#X obj 862 98 inlet~;
#X obj 917 98 inlet;
#X obj 806 202 *~ 1;
#X obj 863 201 *~ 1;
#X floatatom 846 168 5 0 0 0 - - -, f 5;
#X obj 324 318 outlet~;
#X obj 426 319 outlet~;
#X obj 323 284 *~ 1;
#X obj 425 285 *~ 1;
#X obj 1049 99 inlet;
#X floatatom 978 200 5 0 0 0 - - -, f 5;
#X obj 307 124 f;
#X obj 254 16 r mute_voice_2;
#X obj 307 69 bang;
#X msg 254 67 0;
#X obj 103 69 bang;
#X msg 50 67 0;
#X obj 102 123 f;
#X obj 50 16 r mute_voice_1;
#X obj 517 68 bang;
#X msg 464 66 0;
#X obj 464 15 r mute_voice_3;
#X obj 517 127 f;
#X obj 712 70 bang;
#X msg 659 68 0;
#X obj 659 17 r mute_voice_4;
#X obj 712 129 f;
#X obj 899 69 bang;
#X msg 846 67 0;
#X obj 846 17 r mute_drums;
#X obj 899 125 f;
#X obj 1031 71 bang;
#X msg 978 69 0;
#X obj 978 19 r mute_master;
#X obj 1031 137 f;
#X obj 50 42 select 1;
#X obj 254 42 select 1;
#X obj 464 41 select 1;
#X obj 659 43 select 1;
#X obj 846 42 select 1;
#X obj 978 44 select 1;
#X connect 0 0 3 0;
#X connect 1 0 4 0;
#X connect 2 0 5 0;
#X connect 2 0 42 1;
#X connect 3 0 32 0;
#X connect 4 0 33 0;
#X connect 5 0 3 1;
#X connect 5 0 4 1;
#X connect 6 0 9 0;
#X connect 7 0 10 0;
#X connect 8 0 10 1;
#X connect 8 0 36 1;
#X connect 8 0 11 0;
#X connect 9 0 32 0;
#X connect 10 0 33 0;
#X connect 11 0 9 1;
#X connect 11 0 10 1;
#X connect 12 0 15 0;
#X connect 13 0 16 0;
#X connect 14 0 17 0;
#X connect 14 0 47 1;
#X connect 15 0 32 0;
#X connect 16 0 33 0;
#X connect 17 0 15 1;
#X connect 17 0 16 1;
#X connect 18 0 21 0;
#X connect 19 0 22 0;
#X connect 20 0 51 1;
#X connect 20 0 23 0;
#X connect 21 0 32 0;
#X connect 22 0 33 0;
#X connect 23 0 21 1;
#X connect 23 0 22 1;
#X connect 24 0 27 0;
#X connect 25 0 28 0;
#X connect 26 0 29 0;
#X connect 26 0 55 1;
#X connect 27 0 32 0;
#X connect 28 0 33 0;
#X connect 29 0 27 1;
#X connect 29 0 28 1;
#X connect 32 0 30 0;
#X connect 33 0 31 0;
#X connect 34 0 35 0;
#X connect 34 0 59 1;
#X connect 35 0 33 1;
#X connect 35 0 32 1;
#X connect 36 0 11 0;
#X connect 37 0 61 0;
#X connect 38 0 36 0;
#X connect 39 0 11 0;
#X connect 40 0 42 0;
#X connect 41 0 5 0;
#X connect 42 0 5 0;
#X connect 43 0 60 0;
#X connect 44 0 47 0;
#X connect 45 0 17 0;
#X connect 46 0 62 0;
#X connect 47 0 17 0;
#X connect 48 0 51 0;
#X connect 49 0 23 0;
#X connect 50 0 63 0;
#X connect 51 0 23 0;
#X connect 52 0 55 0;
#X connect 53 0 29 0;
#X connect 54 0 64 0;
#X connect 55 0 29 0;
#X connect 56 0 59 0;
#X connect 57 0 35 0;
#X connect 58 0 65 0;
#X connect 59 0 35 0;
#X connect 60 0 41 0;
#X connect 60 1 40 0;
#X connect 61 0 39 0;
#X connect 61 1 38 0;
#X connect 62 0 45 0;
#X connect 62 1 44 0;
#X connect 63 0 49 0;
#X connect 63 1 48 0;
#X connect 64 0 53 0;
#X connect 64 1 52 0;
#X connect 65 0 57 0;
#X connect 65 1 56 0;
#X restore 599 474 pd volumes ...........................;
#X obj 894 371 vsl 50 80 0 1024 0 0 empty empty empty 0 -9 0 10 -262144
-1 -1 3000 1;
#X obj 894 454 / 666;
#X obj 944 372 vsl 50 80 0 1024 0 0 empty empty empty 0 -9 0 10 -262144
-1 -1 7900 1;
#X obj 944 454 / 666;
#X obj 994 371 vsl 50 80 0 1024 0 0 empty empty empty 0 -9 0 10 -262144
-1 -1 7900 1;
#X obj 994 453 / 666;
#X obj 1044 371 vsl 50 80 0 1024 0 0 empty empty empty 0 -9 0 10 -262144
-1 -1 3600 1;
#X obj 1044 453 / 666;
#X obj 1094 371 vsl 50 80 0 1024 0 0 empty empty empty 0 -9 0 10 -262144
-1 -1 0 1;
#X obj 1095 453 / 666;
#X msg 1081 334 666;
#X obj 1081 310 loadbang;
#X obj 1161 370 vsl 50 80 0 1024 0 0 empty empty empty 0 -9 0 10 -262144
-1 -1 6300 1;
#X obj 1162 452 / 666;
#X obj 1161 342 * 666;
#X obj 600 500 *~ 1;
#X obj 861 500 *~ 1;
#X obj 506 130 route 1 2 3 4;
#N canvas 658 107 318 301 duration 0;
#X obj 29 6 del 250;
#X floatatom 89 123 5 0 0 0 - - -, f 5;
#X obj 29 50 0;
#X obj 29 -153 inlet;
#X text 76 -154 note or duration;
#X obj 29 122 outlet;
#X msg 61 -45 stop;
#X obj 29 -74 t b b;
#X obj 29 -119 route dur wavetable volume mute;
#X obj 136 54 s volume_voice_1;
#X obj 189 17 s mute_voice_1;
#X obj 82 85 s wavetable_sines1;
#X connect 0 0 2 0;
#X connect 2 0 1 0;
#X connect 2 0 5 0;
#X connect 3 0 8 0;
#X connect 6 0 0 0;
#X connect 7 0 0 0;
#X connect 7 1 6 0;
#X connect 8 0 0 1;
#X connect 8 1 11 0;
#X connect 8 2 9 0;
#X connect 8 3 10 0;
#X connect 8 4 7 0;
#X connect 8 4 5 0;
#X connect 8 4 1 0;
#X restore 56 244 pd duration;
#N canvas 658 107 318 301 duration 0;
#X obj 29 6 del 250;
#X floatatom 89 123 5 0 0 0 - - -, f 5;
#X obj 29 50 0;
#X obj 29 -153 inlet;
#X text 76 -154 note or duration;
#X obj 29 122 outlet;
#X msg 61 -45 stop;
#X obj 29 -74 t b b;
#X obj 29 -119 route dur wavetable volume mute;
#X obj 136 46 s volume_voice_3;
#X obj 189 9 s mute_voice_3;
#X obj 82 85 s wavetable_sines3;
#X connect 0 0 2 0;
#X connect 2 0 1 0;
#X connect 2 0 5 0;
#X connect 3 0 8 0;
#X connect 6 0 0 0;
#X connect 7 0 0 0;
#X connect 7 1 6 0;
#X connect 8 0 0 1;
#X connect 8 1 11 0;
#X connect 8 2 9 0;
#X connect 8 3 10 0;
#X connect 8 4 7 0;
#X connect 8 4 5 0;
#X connect 8 4 1 0;
#X restore 629 276 pd duration;
#N canvas 658 107 318 301 duration 0;
#X obj 29 6 del 250;
#X floatatom 89 123 5 0 0 0 - - -, f 5;
#X obj 29 50 0;
#X obj 29 -153 inlet;
#X text 76 -154 note or duration;
#X obj 29 122 outlet;
#X msg 61 -45 stop;
#X obj 29 -74 t b b;
#X obj 29 -119 route dur wavetable volume mute;
#X obj 136 51 s volume_voice_4;
#X obj 189 12 s mute_voice_4;
#X obj 82 85 s wavetable_sines4;
#X connect 0 0 2 0;
#X connect 2 0 1 0;
#X connect 2 0 5 0;
#X connect 3 0 8 0;
#X connect 6 0 0 0;
#X connect 7 0 0 0;
#X connect 7 1 6 0;
#X connect 8 0 0 1;
#X connect 8 1 11 0;
#X connect 8 2 9 0;
#X connect 8 3 10 0;
#X connect 8 4 7 0;
#X connect 8 4 5 0;
#X connect 8 4 1 0;
#X restore 896 261 pd duration;
#N canvas 2 84 1020 663 voice_volume_receiver 0;
#X obj -37 33 r volume_voice_1;
#X obj -37 65 * 1024;
#X obj -37 101 outlet;
#X obj 99 65 * 1024;
#X obj 99 101 outlet;
#X obj 235 64 * 1024;
#X obj 235 100 outlet;
#X obj 371 64 * 1024;
#X obj 371 100 outlet;
#X obj 99 33 r volume_voice_2;
#X obj 235 32 r volume_voice_3;
#X obj 371 32 r volume_voice_4;
#X connect 0 0 1 0;
#X connect 1 0 2 0;
#X connect 3 0 4 0;
#X connect 5 0 6 0;
#X connect 7 0 8 0;
#X connect 9 0 3 0;
#X connect 10 0 5 0;
#X connect 11 0 7 0;
#X restore 990 260 pd voice_volume_receiver;
#X obj 124 43 route log meter speed;
#X obj 220 67 s global_speed;
#X obj 335 83 route vol pan;
#X obj 566 347 cyclone/prepend set;
#X obj 945 318 cyclone/prepend set;
#X obj 312 312 cyclone/prepend set;
#X obj 56 305 cyclone/prepend set;
#X obj 141 96 cyclone/prepend set;
#X msg 785 203 \$1;
#X obj 785 175 + 48;
#X connect 2 0 1 0;
#X connect 3 0 50 0;
#X connect 4 0 62 0;
#X connect 5 0 6 0;
#X connect 5 0 10 0;
#X connect 5 0 12 0;
#X connect 5 0 19 0;
#X connect 5 0 38 0;
#X connect 6 0 7 0;
#X connect 6 0 138 0;
#X connect 7 0 8 0;
#X connect 8 0 71 0;
#X connect 9 0 5 0;
#X connect 9 0 39 0;
#X connect 9 0 41 0;
#X connect 10 0 12 1;
#X connect 12 0 11 0;
#X connect 13 0 14 0;
#X connect 14 0 15 0;
#X connect 16 0 18 1;
#X connect 17 0 72 1;
#X connect 18 0 17 0;
#X connect 19 0 13 0;
#X connect 19 0 16 0;
#X connect 19 0 18 0;
#X connect 19 0 40 0;
#X connect 20 0 72 2;
#X connect 21 0 36 0;
#X connect 22 0 32 0;
#X connect 23 0 21 0;
#X connect 24 0 20 0;
#X connect 25 0 34 0;
#X connect 26 0 24 0;
#X connect 27 0 28 0;
#X connect 28 0 2 0;
#X connect 30 0 29 0;
#X connect 31 0 47 0;
#X connect 31 1 44 3;
#X connect 31 2 70 3;
#X connect 31 3 71 3;
#X connect 31 4 72 3;
#X connect 32 0 33 0;
#X connect 33 0 23 0;
#X connect 34 0 35 0;
#X connect 35 0 26 0;
#X connect 36 0 71 2;
#X connect 37 0 45 0;
#X connect 37 1 46 0;
#X connect 37 2 36 0;
#X connect 37 3 20 0;
#X connect 38 0 22 0;
#X connect 39 0 38 1;
#X connect 40 0 25 0;
#X connect 41 0 40 1;
#X connect 42 0 43 0;
#X connect 42 0 56 0;
#X connect 43 0 9 0;
#X connect 44 0 106 0;
#X connect 44 1 106 1;
#X connect 45 0 44 2;
#X connect 46 0 70 2;
#X connect 48 0 121 0;
#X connect 50 0 49 0;
#X connect 52 0 30 1;
#X connect 53 0 46 0;
#X connect 54 0 45 0;
#X connect 54 0 20 0;
#X connect 55 0 36 0;
#X connect 56 0 53 0;
#X connect 56 0 54 0;
#X connect 56 0 55 0;
#X connect 57 0 135 0;
#X connect 57 1 134 0;
#X connect 57 2 132 0;
#X connect 57 3 133 0;
#X connect 62 0 3 0;
#X connect 67 0 80 0;
#X connect 67 0 81 0;
#X connect 67 0 82 0;
#X connect 67 0 83 0;
#X connect 68 0 30 0;
#X connect 68 0 51 0;
#X connect 68 0 90 0;
#X connect 70 0 106 3;
#X connect 70 1 106 4;
#X connect 71 0 106 6;
#X connect 71 1 106 7;
#X connect 72 0 106 9;
#X connect 72 1 106 10;
#X connect 73 0 57 0;
#X connect 73 1 74 0;
#X connect 73 2 29 0;
#X connect 73 2 85 0;
#X connect 74 0 75 0;
#X connect 74 0 95 0;
#X connect 74 1 76 0;
#X connect 74 1 96 0;
#X connect 74 2 77 0;
#X connect 74 2 97 0;
#X connect 74 3 78 0;
#X connect 74 3 98 0;
#X connect 79 0 75 0;
#X connect 79 0 76 0;
#X connect 79 0 77 0;
#X connect 79 0 78 0;
#X connect 85 0 80 0;
#X connect 85 0 86 0;
#X connect 85 1 81 0;
#X connect 85 1 87 0;
#X connect 85 2 82 0;
#X connect 85 2 88 0;
#X connect 85 3 83 0;
#X connect 85 3 89 0;
#X connect 85 4 67 0;
#X connect 90 0 131 0;
#X connect 90 1 124 0;
#X connect 90 2 91 0;
#X connect 90 3 129 0;
#X connect 90 4 92 0;
#X connect 91 0 106 12;
#X connect 91 1 106 13;
#X connect 92 0 93 0;
#X connect 94 0 92 1;
#X connect 99 0 101 0;
#X connect 100 0 99 0;
#X connect 103 0 102 3;
#X connect 104 0 99 0;
#X connect 105 0 70 0;
#X connect 106 0 122 0;
#X connect 106 1 123 0;
#X connect 107 0 108 0;
#X connect 108 0 106 2;
#X connect 109 0 110 0;
#X connect 110 0 106 5;
#X connect 111 0 112 0;
#X connect 112 0 106 8;
#X connect 113 0 114 0;
#X connect 114 0 106 11;
#X connect 115 0 116 0;
#X connect 116 0 106 14;
#X connect 117 0 107 0;
#X connect 117 0 109 0;
#X connect 117 0 111 0;
#X connect 117 0 113 0;
#X connect 117 0 115 0;
#X connect 117 0 119 0;
#X connect 118 0 117 0;
#X connect 119 0 120 0;
#X connect 120 0 106 15;
#X connect 121 0 119 0;
#X connect 122 0 0 0;
#X connect 122 0 3 0;
#X connect 122 0 99 1;
#X connect 122 0 102 1;
#X connect 123 0 0 1;
#X connect 123 0 3 0;
#X connect 123 0 99 2;
#X connect 123 0 102 2;
#X connect 124 0 63 0;
#X connect 124 0 125 0;
#X connect 124 1 64 0;
#X connect 124 1 105 0;
#X connect 124 2 65 0;
#X connect 124 2 126 0;
#X connect 124 3 66 0;
#X connect 124 3 127 0;
#X connect 124 4 84 0;
#X connect 124 4 73 0;
#X connect 125 0 44 0;
#X connect 126 0 71 0;
#X connect 127 0 72 0;
#X connect 128 0 107 0;
#X connect 128 1 109 0;
#X connect 128 2 111 0;
#X connect 128 3 113 0;
#X connect 129 0 30 1;
#X connect 129 1 136 0;
#X connect 129 2 130 0;
#X connect 131 0 31 0;
#X connect 131 1 37 0;
#X connect 131 2 2 0;
#X connect 132 0 60 0;
#X connect 133 0 61 0;
#X connect 134 0 59 0;
#X connect 135 0 58 0;
#X connect 136 0 69 0;
#X connect 137 0 70 0;
#X connect 138 0 137 0;
