#N canvas 2 48 1020 718 10;
#X obj 602 569 dac~;
#X msg 18 546 \; pd dsp \$1 \;;
#X obj 18 524 tgl 15 0 empty empty empty 17 7 0 10 -262144 -1 -1 0
4;
#X obj 445 559 snapshot~;
#X obj 445 514 tgl 15 0 empty empty empty 17 7 0 10 -262144 -1 -1 0
1;
#X obj 564 219 hsl 128 15 -1 1 0 0 empty empty empty -2 -8 0 10 -262144
-1 -1 5549 1;
#X obj 18 469 key;
#X obj 18 496 select 32;
#X obj 252 119 print log udp;
#X obj 252 85 spigot;
#X obj 371 121 route master 1 2 3 4;
#X obj 400 218 hsl 128 15 -1 1 0 0 empty empty empty -2 -8 0 10 -262144
-1 -1 4098 1;
#X obj 408 77 route 1 2 3 4;
#X obj 63 216 hsl 128 15 -1 1 0 0 empty empty empty -2 -8 0 10 -262144
-1 -1 6912 1;
#X obj 232 216 hsl 128 15 -1 1 0 0 empty empty empty -2 -8 0 10 -262144
-1 -1 6255 1;
#X obj 371 146 s master_vol;
#X obj 776 305 r master_vol;
#X obj 445 604 vsl 80 20 0 1 0 0 empty empty empty 0 -9 0 10 -262144
-1 -1 0 1;
#X obj 445 581 abs;
#X obj 343 -26 bng 15 250 50 0 empty empty empty 17 7 0 10 -262144
-1 -1;
#X obj 285 66 tgl 15 0 empty empty empty 17 7 0 10 -262144 -1 -1 0
1;
#X obj 227 329 route 1 2 3 4;
#X obj 445 536 metro 120;
#X obj 323 189 bng 15 250 50 0 empty empty empty 17 7 0 10 -262144
-1 -1;
#X obj 338 189 bng 15 250 50 0 empty empty empty 17 7 0 10 -262144
-1 -1;
#X obj 353 189 bng 15 250 50 0 empty empty empty 17 7 0 10 -262144
-1 -1;
#X obj 369 189 bng 15 250 50 0 empty empty empty 17 7 0 10 -262144
-1 -1;
#X obj 363 -27 netreceive 12321 1;
#X obj 227 304 route rhythm slide binaural;
#X obj 206 305 bng 15 250 50 0 empty empty empty 17 7 0 10 -262144
-1 -1;
#X obj 371 4 route sound voice perc sys;
#N canvas 2 50 1020 718 percussion 0;
#X obj -191 8 inlet ctl;
#X obj 40 85 print perc undefined;
#X obj -191 100 noise-drums-bang;
#X obj -189 268 outlet~ left;
#X obj -79 269 outlet~ right;
#X obj -190 190 *~ 1;
#X obj -80 188 *~ 1;
#X floatatom -59 145 5 0 0 0 - - -, f 5;
#X obj 42 244 snapshot~;
#X floatatom 42 270 10 0 0 0 - - -, f 10;
#X obj 54 222 bng 15 250 50 0 empty empty empty 17 7 0 10 -262144 -1
-1;
#X obj 42 192 metro 50;
#X obj 42 169 tgl 15 0 empty empty empty 17 7 0 10 -262144 -1 -1 0
1;
#X obj -26 118 s mute_drums;
#X obj -189 227 *~ 5;
#X obj -79 225 *~ 5;
#X obj -191 48 route low high cont mark vol mute cont2;
#X obj -188 366 send~ percussion_signal_left;
#X obj -117 342 send~ percussion_signal_right;
#X connect 0 0 16 0;
#X connect 2 0 5 0;
#X connect 2 1 6 0;
#X connect 2 2 5 0;
#X connect 2 3 6 0;
#X connect 2 4 5 0;
#X connect 2 5 6 0;
#X connect 2 6 5 0;
#X connect 2 7 6 0;
#X connect 2 8 5 0;
#X connect 2 9 6 0;
#X connect 5 0 8 0;
#X connect 5 0 14 0;
#X connect 6 0 8 0;
#X connect 6 0 15 0;
#X connect 7 0 6 1;
#X connect 7 0 5 1;
#X connect 8 0 9 0;
#X connect 10 0 8 0;
#X connect 11 0 8 0;
#X connect 12 0 11 0;
#X connect 14 0 3 0;
#X connect 14 0 17 0;
#X connect 15 0 4 0;
#X connect 15 0 18 0;
#X connect 16 0 2 2;
#X connect 16 1 2 3;
#X connect 16 2 2 1;
#X connect 16 3 2 4;
#X connect 16 4 7 0;
#X connect 16 5 13 0;
#X connect 16 6 2 0;
#X connect 16 7 1 0;
#X restore 447 166 pd percussion;
#X obj 637 27 spigot;
#X obj 637 52 print wild;
#X obj 620 28 tgl 15 0 empty empty empty 17 7 0 10 -262144 -1 -1 0
1;
#X obj 678 586 doku~;
#X obj 678 558 bng 15 250 50 0 empty empty empty 17 7 0 10 -262144
-1 -1;
#X msg 678 609 ls-results in pd-window;
#X obj 566 610 record-stereo~;
#X obj 649 584 tgl 15 0 empty empty empty 17 7 0 10 -262144 -1 -1 0
1;
#X msg 714 558 ls;
#N canvas 2 50 1020 699 volumes 0;
#X obj 11 201 inlet~;
#X obj 68 201 inlet~;
#X obj 126 201 inlet;
#X obj 12 307 *~ 1;
#X obj 69 306 *~ 1;
#X floatatom 47 269 5 0 0 0 - - -, f 5;
#X obj 204 202 inlet~;
#X obj 261 202 inlet~;
#X obj 322 202 inlet;
#X obj 205 308 *~ 1;
#X obj 262 307 *~ 1;
#X floatatom 251 273 5 0 0 0 - - -, f 5;
#X obj 414 203 inlet~;
#X obj 471 203 inlet~;
#X obj 532 203 inlet;
#X obj 415 310 *~ 1;
#X obj 472 309 *~ 1;
#X floatatom 461 275 5 0 0 0 - - -, f 5;
#X obj 610 204 inlet~;
#X obj 667 204 inlet~;
#X obj 727 204 inlet;
#X obj 610 310 *~ 1;
#X obj 667 309 *~ 1;
#X floatatom 656 277 5 0 0 0 - - -, f 5;
#X obj 802 204 inlet~;
#X obj 859 204 inlet~;
#X obj 914 204 inlet;
#X obj 803 308 *~ 1;
#X obj 860 307 *~ 1;
#X floatatom 843 274 5 0 0 0 - - -, f 5;
#X obj 321 424 outlet~;
#X obj 423 425 outlet~;
#X obj 320 390 *~ 1;
#X obj 422 391 *~ 1;
#X obj 1046 205 inlet;
#X floatatom 975 306 5 0 0 0 - - -, f 5;
#X obj 304 230 f;
#X obj 251 122 r mute_voice_2;
#X obj 304 175 bang;
#X msg 251 173 0;
#X obj 100 175 bang;
#X msg 47 173 0;
#X obj 99 229 f;
#X obj 47 122 r mute_voice_1;
#X obj 514 174 bang;
#X msg 461 172 0;
#X obj 461 121 r mute_voice_3;
#X obj 514 233 f;
#X obj 709 176 bang;
#X msg 656 174 0;
#X obj 656 123 r mute_voice_4;
#X obj 709 235 f;
#X obj 896 175 bang;
#X msg 843 173 0;
#X obj 843 123 r mute_drums;
#X obj 896 231 f;
#X obj 1028 177 bang;
#X msg 975 175 0;
#X obj 975 125 r mute_master;
#X obj 1028 243 f;
#X obj 47 148 select 1;
#X obj 251 148 select 1;
#X obj 461 147 select 1;
#X obj 656 149 select 1;
#X obj 843 148 select 1;
#X obj 975 150 select 1;
#X obj 9 74 receive~ voice1_signal_left;
#X obj 29 95 receive~ voice1_signal_right;
#X obj 211 65 receive~ voice2_signal_left;
#X obj 239 95 receive~ voice2_signal_right;
#X obj 823 90 receive~ percussion_signal_right;
#X obj 792 67 receive~ percussion_signal_left;
#X obj 421 65 receive~ voice3_signal_left;
#X obj 449 95 receive~ voice3_signal_right;
#X obj 621 65 receive~ voice4_signal_left;
#X obj 649 95 receive~ voice4_signal_right;
#X connect 0 0 3 0;
#X connect 1 0 4 0;
#X connect 2 0 5 0;
#X connect 2 0 42 1;
#X connect 3 0 32 0;
#X connect 4 0 33 0;
#X connect 5 0 3 1;
#X connect 5 0 4 1;
#X connect 6 0 9 0;
#X connect 7 0 10 0;
#X connect 8 0 10 1;
#X connect 8 0 36 1;
#X connect 8 0 11 0;
#X connect 9 0 32 0;
#X connect 10 0 33 0;
#X connect 11 0 9 1;
#X connect 11 0 10 1;
#X connect 12 0 15 0;
#X connect 13 0 16 0;
#X connect 14 0 17 0;
#X connect 14 0 47 1;
#X connect 15 0 32 0;
#X connect 16 0 33 0;
#X connect 17 0 15 1;
#X connect 17 0 16 1;
#X connect 18 0 21 0;
#X connect 19 0 22 0;
#X connect 20 0 51 1;
#X connect 20 0 23 0;
#X connect 21 0 32 0;
#X connect 22 0 33 0;
#X connect 23 0 21 1;
#X connect 23 0 22 1;
#X connect 24 0 27 0;
#X connect 25 0 28 0;
#X connect 26 0 29 0;
#X connect 26 0 55 1;
#X connect 27 0 32 0;
#X connect 28 0 33 0;
#X connect 29 0 27 1;
#X connect 29 0 28 1;
#X connect 32 0 30 0;
#X connect 33 0 31 0;
#X connect 34 0 35 0;
#X connect 34 0 59 1;
#X connect 35 0 33 1;
#X connect 35 0 32 1;
#X connect 36 0 11 0;
#X connect 37 0 61 0;
#X connect 38 0 36 0;
#X connect 39 0 11 0;
#X connect 40 0 42 0;
#X connect 41 0 5 0;
#X connect 42 0 5 0;
#X connect 43 0 60 0;
#X connect 44 0 47 0;
#X connect 45 0 17 0;
#X connect 46 0 62 0;
#X connect 47 0 17 0;
#X connect 48 0 51 0;
#X connect 49 0 23 0;
#X connect 50 0 63 0;
#X connect 51 0 23 0;
#X connect 52 0 55 0;
#X connect 53 0 29 0;
#X connect 54 0 64 0;
#X connect 55 0 29 0;
#X connect 56 0 59 0;
#X connect 57 0 35 0;
#X connect 58 0 65 0;
#X connect 59 0 35 0;
#X connect 60 0 41 0;
#X connect 60 1 40 0;
#X connect 61 0 39 0;
#X connect 61 1 38 0;
#X connect 62 0 45 0;
#X connect 62 1 44 0;
#X connect 63 0 49 0;
#X connect 63 1 48 0;
#X connect 64 0 53 0;
#X connect 64 1 52 0;
#X connect 65 0 57 0;
#X connect 65 1 56 0;
#X connect 66 0 3 0;
#X connect 67 0 4 0;
#X connect 68 0 9 0;
#X connect 69 0 10 0;
#X connect 70 0 28 0;
#X connect 71 0 27 0;
#X connect 72 0 15 0;
#X connect 73 0 16 0;
#X connect 74 0 21 0;
#X connect 75 0 22 0;
#X restore 479 480 pd volumes ...........................;
#X obj 509 354 vsl 50 80 0 1024 0 0 empty empty empty 0 -9 0 10 -262144
-1 -1 5138 1;
#X obj 509 437 / 666;
#X obj 559 354 vsl 50 80 0 1024 0 0 empty empty empty 0 -9 0 10 -262144
-1 -1 5138 1;
#X obj 559 436 / 666;
#X obj 609 354 vsl 50 80 0 1024 0 0 empty empty empty 0 -9 0 10 -262144
-1 -1 5138 1;
#X obj 609 436 / 666;
#X obj 659 354 vsl 50 80 0 1024 0 0 empty empty empty 0 -9 0 10 -262144
-1 -1 5138 1;
#X obj 659 436 / 666;
#X obj 709 354 vsl 50 80 0 1024 0 0 empty empty empty 0 -9 0 10 -262144
-1 -1 5138 1;
#X obj 710 436 / 666;
#X msg 685 322 666;
#X obj 685 298 loadbang;
#X obj 776 352 vsl 50 80 0 1024 0 0 empty empty empty 0 -9 0 10 -262144
-1 -1 5138 1;
#X obj 777 434 / 666;
#X obj 776 327 * 666;
#X obj 479 506 *~ 1;
#X obj 704 507 *~ 1;
#X obj 323 171 route 1 2 3 4;
#N canvas 2 50 1020 718 voice_volume_receiver 0;
#X obj -37 33 r volume_voice_1;
#X obj -37 65 * 1024;
#X obj -37 101 outlet;
#X obj 99 65 * 1024;
#X obj 99 101 outlet;
#X obj 235 64 * 1024;
#X obj 235 100 outlet;
#X obj 371 64 * 1024;
#X obj 371 100 outlet;
#X obj 99 33 r volume_voice_2;
#X obj 235 32 r volume_voice_3;
#X obj 371 32 r volume_voice_4;
#X connect 0 0 1 0;
#X connect 1 0 2 0;
#X connect 3 0 4 0;
#X connect 5 0 6 0;
#X connect 7 0 8 0;
#X connect 9 0 3 0;
#X connect 10 0 5 0;
#X connect 11 0 7 0;
#X restore 509 328 pd voice_volume_receiver;
#X obj 485 27 route log meter speed;
#X obj 567 72 s global_speed;
#X obj 371 28 route vol pan;
#X obj 22 268 voice 1 30 30 30 30 300;
#X floatatom 25 342 5 0 0 0 - - -, f 5;
#X floatatom 68 342 5 0 0 0 - - -, f 5;
#X floatatom 111 342 5 0 0 0 - - -, f 5;
#X floatatom 154 342 5 0 0 0 - - -, f 5;
#N canvas 2 50 1020 699 slide_msec_dispatcher 0;
#X obj 258 128 inlet;
#X obj 258 153 route 1 2 3 4;
#X obj 82 246 s slide_msec_voice_1;
#X obj 258 251 s slide_msec_voice_2;
#X obj 429 254 s slide_msec_voice_3;
#X obj 642 255 s slide_msec_voice_4;
#X floatatom 460 159 5 0 0 0 - - -, f 5;
#X floatatom 48 246 5 0 0 0 - - -, f 5;
#X floatatom 215 250 5 0 0 0 - - -, f 5;
#X floatatom 394 253 5 0 0 0 - - -, f 5;
#X floatatom 606 259 5 0 0 0 - - -, f 5;
#X obj 460 134 inlet;
#X text 300 130 controller in;
#X obj 48 299 outlet;
#X obj 397 304 outlet;
#X obj 606 304 outlet;
#X obj 217 309 outlet;
#X text 505 137 common number;
#X connect 0 0 1 0;
#X connect 1 0 2 0;
#X connect 1 0 7 0;
#X connect 1 1 3 0;
#X connect 1 1 8 0;
#X connect 1 2 4 0;
#X connect 1 2 9 0;
#X connect 1 3 5 0;
#X connect 1 3 10 0;
#X connect 6 0 2 0;
#X connect 6 0 3 0;
#X connect 6 0 4 0;
#X connect 6 0 5 0;
#X connect 6 0 9 0;
#X connect 6 0 10 0;
#X connect 6 0 8 0;
#X connect 6 0 7 0;
#X connect 7 0 13 0;
#X connect 8 0 16 0;
#X connect 9 0 14 0;
#X connect 10 0 15 0;
#X connect 11 0 6 0;
#X restore 24 321 pd slide_msec_dispatcher;
#N canvas 2 50 1020 699 binaural_diff_dispatcher 0;
#X obj 313 132 inlet;
#X floatatom 511 168 5 0 0 0 - - -, f 5;
#X obj 68 311 s binaural_diff_voice_1;
#X obj 269 310 s binaural_diff_voice_2;
#X obj 445 313 s binaural_diff_voice_3;
#X obj 623 314 s binaural_diff_voice_4;
#X obj 313 157 route 1 2 3 4 -1;
#X floatatom 68 284 5 0 0 0 - - -, f 5;
#X floatatom 269 282 5 0 0 0 - - -, f 5;
#X floatatom 445 280 5 0 0 0 - - -, f 5;
#X floatatom 623 286 5 0 0 0 - - -, f 5;
#X obj 51 335 outlet;
#X obj 252 337 outlet;
#X obj 426 346 outlet;
#X obj 603 334 outlet;
#X obj 511 133 inlet;
#X connect 0 0 6 0;
#X connect 1 0 7 0;
#X connect 1 0 8 0;
#X connect 1 0 9 0;
#X connect 1 0 10 0;
#X connect 6 0 7 0;
#X connect 6 1 8 0;
#X connect 6 2 9 0;
#X connect 6 3 10 0;
#X connect 6 4 1 0;
#X connect 7 0 11 0;
#X connect 7 0 2 0;
#X connect 8 0 12 0;
#X connect 8 0 3 0;
#X connect 9 0 13 0;
#X connect 9 0 4 0;
#X connect 10 0 14 0;
#X connect 10 0 5 0;
#X connect 15 0 1 0;
#X restore 22 388 pd binaural_diff_dispatcher;
#X floatatom 14 414 5 0 0 0 - - -, f 5;
#X floatatom 57 414 5 0 0 0 - - -, f 5;
#X floatatom 100 414 5 0 0 0 - - -, f 5;
#X floatatom 143 414 5 0 0 0 - - -, f 5;
#X floatatom 167 365 5 0 0 0 - - -, f 5;
#X floatatom 164 300 5 0 0 0 - - -, f 5;
#X obj 22 244 voice_message_dispatcher 1;
#X obj 190 245 voice_message_dispatcher 2;
#X obj 358 245 voice_message_dispatcher 3;
#X obj 524 245 voice_message_dispatcher 4;
#X obj 190 269 voice 2 30 30 30 30 300;
#X obj 358 270 voice 3 30 30 30 30 300;
#X obj 524 271 voice 4 30 30 30 30 300;
#N canvas 2 48 1020 718 meters 0;
#X obj 483 29 inlet;
#X obj 439 29 inlet;
#X obj 537 29 inlet;
#X obj 583 29 inlet;
#X obj 386 29 inlet;
#X msg 23 166 [3_ 3_ 2_ 2_ 2];
#X msg 23 190 [2_ 1_ 2_ 1_ 2_ 1_ 2_ 1];
#X msg 23 214 [2_ 1_ 2_ 1_ 2_ 1_ 2_ 1];
#X msg 23 238 [2_ 1_ 2_ 1_ 2_ 1_ 2_ 1];
#X msg 23 142 (5__(3__2));
#X obj 541 133 cyclone/prepend set;
#X obj 581 158 cyclone/prepend set;
#X obj 514 108 cyclone/prepend set;
#X obj 464 84 cyclone/prepend set;
#X obj 441 61 cyclone/prepend set;
#X symbolatom 74 289 25 0 0 0 voice_1 - -, f 25;
#X symbolatom 74 325 25 0 0 0 voice_3 - -, f 25;
#X symbolatom 74 343 25 0 0 0 voice_4 - -, f 25;
#X symbolatom 74 307 25 0 0 0 voice_2 - -, f 25;
#X symbolatom 103 265 20 0 0 0 - - -, f 20;
#X obj 405 138 list-abs/list-l2s;
#X obj 420 160 list-abs/list-l2s;
#X obj 440 186 list-abs/list-l2s;
#X obj 470 212 list-abs/list-l2s;
#X obj 386 111 list-abs/list-l2s;
#X connect 0 0 12 0;
#X connect 0 0 21 0;
#X connect 1 0 13 0;
#X connect 1 0 20 0;
#X connect 2 0 10 0;
#X connect 2 0 22 0;
#X connect 3 0 11 0;
#X connect 3 0 23 0;
#X connect 4 0 14 0;
#X connect 4 0 24 0;
#X connect 10 0 7 0;
#X connect 11 0 8 0;
#X connect 12 0 6 0;
#X connect 13 0 5 0;
#X connect 14 0 9 0;
#X connect 20 0 15 0;
#X connect 21 0 18 0;
#X connect 22 0 16 0;
#X connect 23 0 17 0;
#X connect 24 0 19 0;
#X coords 0 -1 1 1 220 100 1 20 260;
#X restore 217 369 pd meters;
#X connect 2 0 1 0;
#X connect 3 0 18 0;
#X connect 4 0 22 0;
#X connect 5 0 83 2;
#X connect 6 0 7 0;
#X connect 7 0 2 0;
#X connect 9 0 8 0;
#X connect 10 0 15 0;
#X connect 10 1 64 3;
#X connect 10 2 81 3;
#X connect 10 3 82 3;
#X connect 10 4 83 3;
#X connect 11 0 82 2;
#X connect 12 0 13 0;
#X connect 12 1 14 0;
#X connect 12 2 11 0;
#X connect 12 3 5 0;
#X connect 13 0 64 2;
#X connect 14 0 81 2;
#X connect 16 0 56 0;
#X connect 18 0 17 0;
#X connect 20 0 9 1;
#X connect 21 0 84 1;
#X connect 21 1 84 2;
#X connect 21 2 84 3;
#X connect 21 3 84 4;
#X connect 22 0 3 0;
#X connect 27 0 9 0;
#X connect 27 0 19 0;
#X connect 27 0 30 0;
#X connect 28 0 21 0;
#X connect 28 1 69 0;
#X connect 28 2 8 0;
#X connect 28 2 70 0;
#X connect 30 0 63 0;
#X connect 30 1 59 0;
#X connect 30 2 31 0;
#X connect 30 3 61 0;
#X connect 30 4 32 0;
#X connect 32 0 33 0;
#X connect 34 0 32 1;
#X connect 35 0 37 0;
#X connect 36 0 35 0;
#X connect 39 0 38 3;
#X connect 40 0 35 0;
#X connect 41 0 57 0;
#X connect 41 1 58 0;
#X connect 42 0 43 0;
#X connect 43 0 41 2;
#X connect 44 0 45 0;
#X connect 45 0 41 5;
#X connect 46 0 47 0;
#X connect 47 0 41 8;
#X connect 48 0 49 0;
#X connect 49 0 41 11;
#X connect 50 0 51 0;
#X connect 51 0 41 14;
#X connect 52 0 42 0;
#X connect 52 0 44 0;
#X connect 52 0 46 0;
#X connect 52 0 48 0;
#X connect 52 0 50 0;
#X connect 52 0 54 0;
#X connect 53 0 52 0;
#X connect 54 0 55 0;
#X connect 55 0 41 15;
#X connect 56 0 54 0;
#X connect 57 0 0 0;
#X connect 57 0 3 0;
#X connect 57 0 35 1;
#X connect 57 0 38 1;
#X connect 58 0 0 1;
#X connect 58 0 3 0;
#X connect 58 0 35 2;
#X connect 58 0 38 2;
#X connect 59 0 23 0;
#X connect 59 0 77 0;
#X connect 59 1 24 0;
#X connect 59 1 78 0;
#X connect 59 2 25 0;
#X connect 59 2 79 0;
#X connect 59 3 26 0;
#X connect 59 3 80 0;
#X connect 59 4 29 0;
#X connect 59 4 28 0;
#X connect 60 0 42 0;
#X connect 60 1 44 0;
#X connect 60 2 46 0;
#X connect 60 3 48 0;
#X connect 61 0 9 1;
#X connect 61 1 84 0;
#X connect 61 2 62 0;
#X connect 63 0 10 0;
#X connect 63 1 12 0;
#X connect 63 2 2 0;
#X connect 69 0 65 0;
#X connect 69 1 66 0;
#X connect 69 2 67 0;
#X connect 69 3 68 0;
#X connect 70 0 71 0;
#X connect 70 1 72 0;
#X connect 70 2 73 0;
#X connect 70 3 74 0;
#X connect 75 0 70 1;
#X connect 76 0 69 1;
#X connect 77 0 64 0;
#X connect 78 0 81 0;
#X connect 79 0 82 0;
#X connect 80 0 83 0;
#X coords 0 718 1 717 85 60 0;
