#N canvas 0 0 1216 662 12;
#X obj 653 572 dac~;
#X msg 53 564 \; pd dsp \$1 \;;
#X obj 53 536 tgl 15 0 empty empty empty 17 7 0 10 -262144 -1 -1 1
1;
#X obj 229 90 route vol;
#X obj 603 542 *~ 0.2;
#X obj 670 538 *~ 0.2;
#X obj 800 413 snapshot~;
#X obj 817 352 tgl 15 0 empty empty empty 17 7 0 10 -262144 -1 -1 0
1;
#X obj 647 478 hsl 128 15 0 127 0 0 empty empty empty -2 -8 0 10 -262144
-1 -1 0 1;
#X obj 644 501 / 127;
#X obj 834 3 metro 500;
#X obj 746 138 random 20;
#X obj 746 166 + 40;
#X msg 746 194 \$1;
#X obj 843 -28 tgl 15 0 empty empty empty 17 7 0 10 -262144 -1 -1 0
1;
#X obj 863 138 random 250;
#X msg 880 211 0;
#X obj 839 166 del 100;
#X obj 1099 62 random 20;
#X obj 1099 90 + 40;
#X msg 1099 118 \$1;
#X obj 1048 159 random 250;
#X msg 1065 231 0;
#X obj 1024 188 del 100;
#X obj 920 80 del 300;
#X obj 506 130 route 1 2 3 4;
#X obj 932 260 hsl 128 15 -1 1 0 0 empty empty empty -2 -8 0 10 -262144
-1 -1 6350 1;
#X obj 641 187 line;
#X obj 650 66 random 127;
#X msg 652 152 \$1 500;
#X obj 1002 123 line;
#X obj 1018 -1 random 127;
#X msg 1013 88 \$1 500;
#X obj 57 469 key;
#X obj 52 496 select 32;
#X obj 81 129 print log udp;
#X obj 644 453 * 127;
#X obj 87 85 spigot;
#X obj 382 89 route pan;
#X obj 226 129 route master 1 2 3 4;
#X obj 657 94 / 64;
#X obj 653 121 - 1;
#X obj 1030 34 / 64;
#X obj 1017 63 - 1;
#X obj 624 223 hsl 128 15 -1 1 0 0 empty empty empty -2 -8 0 10 -262144
-1 -1 10795 1;
#X obj 380 129 route 1 2 3 4;
#X obj 720 3 spigot;
#X obj 756 -21 tgl 15 0 empty empty empty 17 7 0 10 -262144 -1 -1 0
1;
#X obj 941 -7 spigot;
#X obj 977 -31 tgl 15 0 empty empty empty 17 7 0 10 -262144 -1 -1 0
1;
#X obj 750 -55 loadbang;
#X msg 857 -52 0;
#N canvas 151 31 985 666 voice 0;
#X obj 327 108 inlet;
#X obj 657 148 inlet;
#X text 323 83 trigger;
#X obj 327 136 sel 0;
#X obj 466 152 t b;
#X obj 388 261 f \$1;
#X obj 388 286 pack 0 \$2;
#X obj 714 148 inlet;
#X obj 660 278 del \$2;
#X obj 593 441 line~;
#X obj 684 301 f \$4;
#X obj 723 376 pack 0 \$3;
#X obj 776 148 inlet;
#X obj 838 148 inlet;
#X obj 911 147 inlet;
#X msg 327 167 stop;
#X obj 834 303 pack 0 \$5;
#X text 657 126 level;
#X obj 723 352 * \$1;
#X obj 442 600 outlet~;
#X text 324 373 and pack with;
#X text 325 395 attack time;
#X text 253 123 if zero;
#X text 254 140 release;
#X text 234 157 and cancel;
#X text 265 174 decay;
#X text 506 269 on attack \, set a;
#X text 500 302 recall sustain value;
#X text 537 375 pack with decay time;
#X text 827 329 on release ramp;
#X text 828 346 back to zero;
#X obj 684 326 * 0.01;
#X text 235 -1 ADSR ENVELOPE;
#X text 710 126 attack;
#X text 777 125 decay;
#X text 831 126 sustain;
#X text 908 126 release;
#X text 424 68 attack;
#X obj 426 89 moses;
#X obj 416 119 t b b;
#X msg 350 287 0;
#X text 242 270 optionally;
#X text 232 288 bash to zero;
#X text 247 243 ATTACK:;
#X text 717 626 Updated for Pd version 0.37;
#X text 477 86 test for negative trigger;
#X text 476 126 the output;
#X text 500 162 in any case;
#X text 525 352 multiply by peak level;
#X text 502 283 delay for sustain;
#X text 498 325 convert from percent;
#X text 377 337 ... then;
#X text 325 356 recall peak level;
#X text 661 109 peak;
#X text 503 146 ... do this;
#X text 430 -2 Arguments: level \, attack time \, decay time \, sustain
level \, release time. A \, D \, and R are in msec and S is in percent.
This patch is used as an abstraction in various examples.;
#X obj 96 118 mtof;
#X obj 98 48 inlet;
#X obj 56 389 osc~ 440;
#X text 475 110 if so \, zero;
#X obj 279 506 *~;
#X obj 869 32 loadbang;
#X obj 779 65 bng 15 250 50 0 empty empty empty 17 7 0 10 -262144 -1
-1;
#X msg 783 102 30;
#X msg 717 97 20;
#X msg 849 107 30;
#X msg 664 84 1;
#X obj 531 64 inlet;
#X obj 471 548 pan~;
#X obj 523 602 outlet~;
#X obj 485 505 * 45;
#X obj 516 415 hsl 128 15 0 127 0 0 empty empty empty -2 -8 0 10 -262144
-1 -1 0 1;
#X floatatom 535 543 5 0 0 0 - - -;
#X obj 519 438 / 64;
#X obj 522 469 - 1;
#X obj 102 75 sel 0;
#X msg 916 102 666;
#X floatatom 51 240 5 0 0 0 - - -;
#X obj 113 162 r slide_msec_voice_1;
#X obj 52 307 pack f f;
#X msg 210 263 0;
#X obj 57 344 line~;
#X msg 180 107 0;
#X obj 285 542 gpan~;
#X obj 153 386 osc~ 440;
#X obj 129 269 + 0;
#X obj 145 307 pack f f;
#X obj 142 342 line~;
#X obj 329 507 *~;
#X obj 469 432 * 0.5;
#X obj 407 485 + 0.5;
#X floatatom 134 233 5 0 0 0 - - -;
#X msg 445 380 0;
#X msg 329 322 -0.7;
#X msg 496 380 0.7;
#X obj 138 194 r binaural_diff_voice_1;
#X connect 0 0 3 0;
#X connect 1 0 5 1;
#X connect 1 0 18 1;
#X connect 3 0 15 0;
#X connect 3 0 16 0;
#X connect 3 1 38 0;
#X connect 4 0 5 0;
#X connect 4 0 8 0;
#X connect 5 0 6 0;
#X connect 6 0 9 0;
#X connect 7 0 6 1;
#X connect 7 0 8 1;
#X connect 8 0 10 0;
#X connect 9 0 60 1;
#X connect 9 0 88 1;
#X connect 10 0 31 0;
#X connect 11 0 9 0;
#X connect 12 0 11 1;
#X connect 13 0 10 1;
#X connect 14 0 16 1;
#X connect 15 0 8 0;
#X connect 16 0 9 0;
#X connect 18 0 11 0;
#X connect 31 0 18 0;
#X connect 38 0 39 0;
#X connect 38 1 4 0;
#X connect 39 0 4 0;
#X connect 39 1 40 0;
#X connect 40 0 9 0;
#X connect 56 0 77 0;
#X connect 57 0 3 0;
#X connect 57 0 75 0;
#X connect 58 0 60 0;
#X connect 60 0 83 0;
#X connect 61 0 62 0;
#X connect 62 0 66 0;
#X connect 62 0 64 0;
#X connect 62 0 63 0;
#X connect 62 0 65 0;
#X connect 62 0 76 0;
#X connect 62 0 80 0;
#X connect 63 0 11 1;
#X connect 64 0 8 1;
#X connect 64 0 6 1;
#X connect 65 0 10 1;
#X connect 66 0 5 1;
#X connect 66 0 18 1;
#X connect 67 0 89 0;
#X connect 70 0 68 1;
#X connect 70 0 72 0;
#X connect 71 0 73 0;
#X connect 73 0 74 0;
#X connect 74 0 70 0;
#X connect 75 0 82 0;
#X connect 75 1 56 0;
#X connect 76 0 16 1;
#X connect 77 0 79 0;
#X connect 77 0 85 0;
#X connect 78 0 79 1;
#X connect 78 0 86 1;
#X connect 79 0 81 0;
#X connect 80 0 79 1;
#X connect 80 0 86 1;
#X connect 81 0 58 0;
#X connect 82 0 3 0;
#X connect 83 0 19 0;
#X connect 83 1 69 0;
#X connect 84 0 88 0;
#X connect 85 0 86 0;
#X connect 86 0 87 0;
#X connect 87 0 84 0;
#X connect 88 0 83 1;
#X connect 89 0 70 0;
#X connect 89 0 90 0;
#X connect 90 0 83 2;
#X connect 91 0 85 1;
#X connect 92 0 89 0;
#X connect 93 0 89 0;
#X connect 94 0 89 0;
#X connect 95 0 91 0;
#X restore 56 269 pd voice 1 30 30 30 30 300;
#X obj 97 214 hsl 128 15 -1 1 0 0 empty empty empty -2 -8 0 10 -262144
-1 -1 6350 1;
#X obj 327 216 hsl 128 15 -1 1 0 0 empty empty empty -2 -8 0 10 -262144
-1 -1 1905 1;
#X obj 226 168 s master_vol;
#X obj 586 416 r master_vol;
#X obj 819 520 vsl 80 20 0 1 0 0 empty empty empty 0 -9 0 10 -262144
-1 -1 0 1;
#X obj 816 470 abs;
#X obj 202 -4 bng 15 250 50 0 empty empty empty 17 7 0 10 -262144 -1
-1;
#X obj 144 10 tgl 15 0 empty empty empty 17 7 0 10 -262144 -1 -1 0
1;
#X floatatom 428 174 5 0 0 0 - - -;
#X floatatom 484 172 5 0 0 0 - - -;
#X floatatom 529 171 5 0 0 0 - - -;
#X floatatom 569 177 5 0 0 0 - - -;
#X msg 556 47 -0.7;
#X msg 608 42 0;
#X msg 583 82 0.7;
#X obj 643 -2 bng 15 250 50 0 empty empty empty 17 7 0 10 -262144 -1
-1;
#X obj 462 326 route 1 2 3 4;
#X obj 56 305 prepend set;
#X msg 53 330 [4_ 2_ 1_ 1];
#X obj 312 312 prepend set;
#X msg 309 337 [2_ 2_ 2_ 2];
#X obj 566 347 prepend set;
#X msg 563 372 [2_ 4_ 2];
#X obj 945 318 prepend set;
#X msg 942 343 [3_ 3_ 2];
#X obj 802 382 metro 120;
#X obj 35 335 bng 15 250 50 0 empty empty empty 17 7 0 10 -262144 -1
-1;
#X obj 287 337 bng 15 250 50 0 empty empty empty 17 7 0 10 -262144
-1 -1;
#X obj 542 375 bng 15 250 50 0 empty empty empty 17 7 0 10 -262144
-1 -1;
#X obj 918 345 bng 15 250 50 0 empty empty empty 17 7 0 10 -262144
-1 -1;
#X floatatom 329 420 5 0 0 0 - - -;
#X obj 262 -48 netreceive 12321 1;
#X msg 121 160 8;
#X obj 152 54 route log meter;
#X obj 141 96 prepend set;
#N canvas 151 31 985 666 voice 1;
#X obj 327 108 inlet;
#X obj 657 148 inlet;
#X text 323 83 trigger;
#X obj 327 136 sel 0;
#X obj 466 152 t b;
#X obj 388 261 f \$1;
#X obj 388 286 pack 0 \$2;
#X obj 714 148 inlet;
#X obj 660 278 del \$2;
#X obj 593 441 line~;
#X obj 684 301 f \$4;
#X obj 723 376 pack 0 \$3;
#X obj 776 148 inlet;
#X obj 838 148 inlet;
#X obj 911 147 inlet;
#X msg 327 167 stop;
#X obj 834 303 pack 0 \$5;
#X text 657 126 level;
#X obj 723 352 * \$1;
#X obj 442 600 outlet~;
#X text 324 373 and pack with;
#X text 325 395 attack time;
#X text 253 123 if zero;
#X text 254 140 release;
#X text 234 157 and cancel;
#X text 265 174 decay;
#X text 506 269 on attack \, set a;
#X text 500 302 recall sustain value;
#X text 537 375 pack with decay time;
#X text 827 329 on release ramp;
#X text 828 346 back to zero;
#X obj 684 326 * 0.01;
#X text 235 -1 ADSR ENVELOPE;
#X text 710 126 attack;
#X text 777 125 decay;
#X text 831 126 sustain;
#X text 908 126 release;
#X text 424 68 attack;
#X obj 426 89 moses;
#X obj 416 119 t b b;
#X msg 350 287 0;
#X text 242 270 optionally;
#X text 232 288 bash to zero;
#X text 247 243 ATTACK:;
#X text 717 626 Updated for Pd version 0.37;
#X text 477 86 test for negative trigger;
#X text 476 126 the output;
#X text 500 162 in any case;
#X text 525 352 multiply by peak level;
#X text 502 283 delay for sustain;
#X text 498 325 convert from percent;
#X text 377 337 ... then;
#X text 325 356 recall peak level;
#X text 661 109 peak;
#X text 503 146 ... do this;
#X text 430 -2 Arguments: level \, attack time \, decay time \, sustain
level \, release time. A \, D \, and R are in msec and S is in percent.
This patch is used as an abstraction in various examples.;
#X obj 96 118 mtof;
#X obj 98 48 inlet;
#X obj 56 389 osc~ 440;
#X text 475 110 if so \, zero;
#X obj 279 506 *~;
#X obj 869 32 loadbang;
#X obj 779 65 bng 15 250 50 0 empty empty empty 17 7 0 10 -262144 -1
-1;
#X msg 783 102 30;
#X msg 717 97 20;
#X msg 849 107 30;
#X msg 664 84 1;
#X obj 531 64 inlet;
#X obj 471 548 pan~;
#X obj 523 602 outlet~;
#X obj 485 505 * 45;
#X obj 516 415 hsl 128 15 0 127 0 0 empty empty empty -2 -8 0 10 -262144
-1 -1 0 1;
#X floatatom 535 543 5 0 0 0 - - -;
#X obj 519 438 / 64;
#X obj 522 469 - 1;
#X obj 102 75 sel 0;
#X msg 916 102 666;
#X floatatom 51 240 5 0 0 0 - - -;
#X obj 52 307 pack f f;
#X msg 210 263 0;
#X obj 57 344 line~;
#X msg 180 107 0;
#X obj 285 542 gpan~;
#X obj 153 386 osc~ 440;
#X obj 129 269 + 0;
#X obj 145 307 pack f f;
#X obj 142 342 line~;
#X obj 329 507 *~;
#X obj 469 432 * 0.5;
#X obj 407 485 + 0.5;
#X floatatom 134 233 5 0 0 0 - - -;
#X msg 445 380 0;
#X msg 329 322 -0.7;
#X msg 496 380 0.7;
#X obj 113 162 r slide_msec_voice_2;
#X obj 137 195 r binaural_diff_voice_2;
#X connect 0 0 3 0;
#X connect 1 0 5 1;
#X connect 1 0 18 1;
#X connect 3 0 15 0;
#X connect 3 0 16 0;
#X connect 3 1 38 0;
#X connect 4 0 5 0;
#X connect 4 0 8 0;
#X connect 5 0 6 0;
#X connect 6 0 9 0;
#X connect 7 0 6 1;
#X connect 7 0 8 1;
#X connect 8 0 10 0;
#X connect 9 0 60 1;
#X connect 9 0 87 1;
#X connect 10 0 31 0;
#X connect 11 0 9 0;
#X connect 12 0 11 1;
#X connect 13 0 10 1;
#X connect 14 0 16 1;
#X connect 15 0 8 0;
#X connect 16 0 9 0;
#X connect 18 0 11 0;
#X connect 31 0 18 0;
#X connect 38 0 39 0;
#X connect 38 1 4 0;
#X connect 39 0 4 0;
#X connect 39 1 40 0;
#X connect 40 0 9 0;
#X connect 56 0 77 0;
#X connect 57 0 3 0;
#X connect 57 0 75 0;
#X connect 58 0 60 0;
#X connect 60 0 82 0;
#X connect 61 0 62 0;
#X connect 62 0 66 0;
#X connect 62 0 64 0;
#X connect 62 0 63 0;
#X connect 62 0 65 0;
#X connect 62 0 76 0;
#X connect 62 0 79 0;
#X connect 63 0 11 1;
#X connect 64 0 8 1;
#X connect 64 0 6 1;
#X connect 65 0 10 1;
#X connect 66 0 5 1;
#X connect 66 0 18 1;
#X connect 67 0 88 0;
#X connect 70 0 68 1;
#X connect 70 0 72 0;
#X connect 71 0 73 0;
#X connect 73 0 74 0;
#X connect 74 0 70 0;
#X connect 75 0 81 0;
#X connect 75 1 56 0;
#X connect 76 0 16 1;
#X connect 77 0 78 0;
#X connect 77 0 84 0;
#X connect 78 0 80 0;
#X connect 79 0 78 1;
#X connect 79 0 85 1;
#X connect 80 0 58 0;
#X connect 81 0 3 0;
#X connect 82 0 19 0;
#X connect 82 1 69 0;
#X connect 83 0 87 0;
#X connect 84 0 85 0;
#X connect 85 0 86 0;
#X connect 86 0 83 0;
#X connect 87 0 82 1;
#X connect 88 0 70 0;
#X connect 88 0 89 0;
#X connect 89 0 82 2;
#X connect 90 0 84 1;
#X connect 91 0 88 0;
#X connect 92 0 88 0;
#X connect 93 0 88 0;
#X connect 94 0 78 1;
#X connect 94 0 85 1;
#X connect 95 0 90 0;
#X restore 282 270 pd voice 2 30 30 30 30 300;
#N canvas 151 31 985 666 voice 0;
#X obj 327 108 inlet;
#X obj 657 148 inlet;
#X text 323 83 trigger;
#X obj 327 136 sel 0;
#X obj 466 152 t b;
#X obj 388 261 f \$1;
#X obj 388 286 pack 0 \$2;
#X obj 714 148 inlet;
#X obj 660 278 del \$2;
#X obj 593 441 line~;
#X obj 684 301 f \$4;
#X obj 723 376 pack 0 \$3;
#X obj 776 148 inlet;
#X obj 838 148 inlet;
#X obj 911 147 inlet;
#X msg 327 167 stop;
#X obj 834 303 pack 0 \$5;
#X text 657 126 level;
#X obj 723 352 * \$1;
#X obj 442 600 outlet~;
#X text 324 373 and pack with;
#X text 325 395 attack time;
#X text 253 123 if zero;
#X text 254 140 release;
#X text 234 157 and cancel;
#X text 265 174 decay;
#X text 506 269 on attack \, set a;
#X text 500 302 recall sustain value;
#X text 537 375 pack with decay time;
#X text 827 329 on release ramp;
#X text 828 346 back to zero;
#X obj 684 326 * 0.01;
#X text 235 -1 ADSR ENVELOPE;
#X text 710 126 attack;
#X text 777 125 decay;
#X text 831 126 sustain;
#X text 908 126 release;
#X text 424 68 attack;
#X obj 426 89 moses;
#X obj 416 119 t b b;
#X msg 350 287 0;
#X text 242 270 optionally;
#X text 232 288 bash to zero;
#X text 247 243 ATTACK:;
#X text 717 626 Updated for Pd version 0.37;
#X text 477 86 test for negative trigger;
#X text 476 126 the output;
#X text 500 162 in any case;
#X text 525 352 multiply by peak level;
#X text 502 283 delay for sustain;
#X text 498 325 convert from percent;
#X text 377 337 ... then;
#X text 325 356 recall peak level;
#X text 661 109 peak;
#X text 503 146 ... do this;
#X text 430 -2 Arguments: level \, attack time \, decay time \, sustain
level \, release time. A \, D \, and R are in msec and S is in percent.
This patch is used as an abstraction in various examples.;
#X obj 96 118 mtof;
#X obj 98 48 inlet;
#X obj 56 389 osc~ 440;
#X text 475 110 if so \, zero;
#X obj 279 506 *~;
#X obj 869 32 loadbang;
#X obj 779 65 bng 15 250 50 0 empty empty empty 17 7 0 10 -262144 -1
-1;
#X msg 783 102 30;
#X msg 717 97 20;
#X msg 849 107 30;
#X msg 664 84 1;
#X obj 531 64 inlet;
#X obj 471 548 pan~;
#X obj 523 602 outlet~;
#X obj 485 505 * 45;
#X obj 516 415 hsl 128 15 0 127 0 0 empty empty empty -2 -8 0 10 -262144
-1 -1 0 1;
#X floatatom 535 543 5 0 0 0 - - -;
#X obj 519 438 / 64;
#X obj 522 469 - 1;
#X obj 102 75 sel 0;
#X msg 916 102 666;
#X floatatom 51 240 5 0 0 0 - - -;
#X obj 52 307 pack f f;
#X msg 210 263 0;
#X obj 57 344 line~;
#X msg 180 107 0;
#X obj 285 542 gpan~;
#X obj 153 386 osc~ 440;
#X obj 129 269 + 0;
#X obj 145 307 pack f f;
#X obj 142 342 line~;
#X obj 329 507 *~;
#X obj 469 432 * 0.5;
#X obj 407 485 + 0.5;
#X floatatom 134 233 5 0 0 0 - - -;
#X msg 445 380 0;
#X msg 329 322 -0.7;
#X msg 496 380 0.7;
#X obj 113 162 r slide_msec_voice_3;
#X obj 137 195 r binaural_diff_voice_3;
#X connect 0 0 3 0;
#X connect 1 0 5 1;
#X connect 1 0 18 1;
#X connect 3 0 15 0;
#X connect 3 0 16 0;
#X connect 3 1 38 0;
#X connect 4 0 5 0;
#X connect 4 0 8 0;
#X connect 5 0 6 0;
#X connect 6 0 9 0;
#X connect 7 0 6 1;
#X connect 7 0 8 1;
#X connect 8 0 10 0;
#X connect 9 0 60 1;
#X connect 9 0 87 1;
#X connect 10 0 31 0;
#X connect 11 0 9 0;
#X connect 12 0 11 1;
#X connect 13 0 10 1;
#X connect 14 0 16 1;
#X connect 15 0 8 0;
#X connect 16 0 9 0;
#X connect 18 0 11 0;
#X connect 31 0 18 0;
#X connect 38 0 39 0;
#X connect 38 1 4 0;
#X connect 39 0 4 0;
#X connect 39 1 40 0;
#X connect 40 0 9 0;
#X connect 56 0 77 0;
#X connect 57 0 3 0;
#X connect 57 0 75 0;
#X connect 58 0 60 0;
#X connect 60 0 82 0;
#X connect 61 0 62 0;
#X connect 62 0 66 0;
#X connect 62 0 64 0;
#X connect 62 0 63 0;
#X connect 62 0 65 0;
#X connect 62 0 76 0;
#X connect 62 0 79 0;
#X connect 63 0 11 1;
#X connect 64 0 8 1;
#X connect 64 0 6 1;
#X connect 65 0 10 1;
#X connect 66 0 5 1;
#X connect 66 0 18 1;
#X connect 67 0 88 0;
#X connect 70 0 68 1;
#X connect 70 0 72 0;
#X connect 71 0 73 0;
#X connect 73 0 74 0;
#X connect 74 0 70 0;
#X connect 75 0 81 0;
#X connect 75 1 56 0;
#X connect 76 0 16 1;
#X connect 77 0 78 0;
#X connect 77 0 84 0;
#X connect 78 0 80 0;
#X connect 79 0 78 1;
#X connect 79 0 85 1;
#X connect 80 0 58 0;
#X connect 81 0 3 0;
#X connect 82 0 19 0;
#X connect 82 1 69 0;
#X connect 83 0 87 0;
#X connect 84 0 85 0;
#X connect 85 0 86 0;
#X connect 86 0 83 0;
#X connect 87 0 82 1;
#X connect 88 0 70 0;
#X connect 88 0 89 0;
#X connect 89 0 82 2;
#X connect 90 0 84 1;
#X connect 91 0 88 0;
#X connect 92 0 88 0;
#X connect 93 0 88 0;
#X connect 94 0 78 1;
#X connect 94 0 85 1;
#X connect 95 0 90 0;
#X restore 604 275 pd voice 3 30 30 30 30 300;
#N canvas 151 31 985 666 voice 0;
#X obj 327 108 inlet;
#X obj 657 148 inlet;
#X text 323 83 trigger;
#X obj 327 136 sel 0;
#X obj 466 152 t b;
#X obj 388 261 f \$1;
#X obj 388 286 pack 0 \$2;
#X obj 714 148 inlet;
#X obj 660 278 del \$2;
#X obj 593 441 line~;
#X obj 684 301 f \$4;
#X obj 723 376 pack 0 \$3;
#X obj 776 148 inlet;
#X obj 838 148 inlet;
#X obj 911 147 inlet;
#X msg 327 167 stop;
#X obj 834 303 pack 0 \$5;
#X text 657 126 level;
#X obj 723 352 * \$1;
#X obj 442 600 outlet~;
#X text 324 373 and pack with;
#X text 325 395 attack time;
#X text 253 123 if zero;
#X text 254 140 release;
#X text 234 157 and cancel;
#X text 265 174 decay;
#X text 506 269 on attack \, set a;
#X text 500 302 recall sustain value;
#X text 537 375 pack with decay time;
#X text 827 329 on release ramp;
#X text 828 346 back to zero;
#X obj 684 326 * 0.01;
#X text 235 -1 ADSR ENVELOPE;
#X text 710 126 attack;
#X text 777 125 decay;
#X text 831 126 sustain;
#X text 908 126 release;
#X text 424 68 attack;
#X obj 426 89 moses;
#X obj 416 119 t b b;
#X msg 350 287 0;
#X text 242 270 optionally;
#X text 232 288 bash to zero;
#X text 247 243 ATTACK:;
#X text 717 626 Updated for Pd version 0.37;
#X text 477 86 test for negative trigger;
#X text 476 126 the output;
#X text 500 162 in any case;
#X text 525 352 multiply by peak level;
#X text 502 283 delay for sustain;
#X text 498 325 convert from percent;
#X text 377 337 ... then;
#X text 325 356 recall peak level;
#X text 661 109 peak;
#X text 503 146 ... do this;
#X text 430 -2 Arguments: level \, attack time \, decay time \, sustain
level \, release time. A \, D \, and R are in msec and S is in percent.
This patch is used as an abstraction in various examples.;
#X obj 96 118 mtof;
#X obj 98 48 inlet;
#X obj 56 389 osc~ 440;
#X text 475 110 if so \, zero;
#X obj 279 506 *~;
#X obj 869 32 loadbang;
#X obj 779 65 bng 15 250 50 0 empty empty empty 17 7 0 10 -262144 -1
-1;
#X msg 783 102 30;
#X msg 717 97 20;
#X msg 849 107 30;
#X msg 664 84 1;
#X obj 531 64 inlet;
#X obj 471 548 pan~;
#X obj 523 602 outlet~;
#X obj 485 505 * 45;
#X obj 516 415 hsl 128 15 0 127 0 0 empty empty empty -2 -8 0 10 -262144
-1 -1 0 1;
#X floatatom 535 543 5 0 0 0 - - -;
#X obj 519 438 / 64;
#X obj 522 469 - 1;
#X obj 102 75 sel 0;
#X msg 916 102 666;
#X floatatom 51 240 5 0 0 0 - - -;
#X obj 52 307 pack f f;
#X msg 210 263 0;
#X obj 57 344 line~;
#X msg 180 107 0;
#X obj 285 542 gpan~;
#X obj 153 386 osc~ 440;
#X obj 129 269 + 0;
#X obj 145 307 pack f f;
#X obj 142 342 line~;
#X obj 329 507 *~;
#X obj 469 432 * 0.5;
#X obj 407 485 + 0.5;
#X floatatom 134 233 5 0 0 0 - - -;
#X msg 445 380 0;
#X msg 329 322 -0.7;
#X msg 496 380 0.7;
#X obj 113 162 r slide_msec_voice_4;
#X obj 137 195 r binaural_diff_voice_4;
#X connect 0 0 3 0;
#X connect 1 0 5 1;
#X connect 1 0 18 1;
#X connect 3 0 15 0;
#X connect 3 0 16 0;
#X connect 3 1 38 0;
#X connect 4 0 5 0;
#X connect 4 0 8 0;
#X connect 5 0 6 0;
#X connect 6 0 9 0;
#X connect 7 0 6 1;
#X connect 7 0 8 1;
#X connect 8 0 10 0;
#X connect 9 0 60 1;
#X connect 9 0 87 1;
#X connect 10 0 31 0;
#X connect 11 0 9 0;
#X connect 12 0 11 1;
#X connect 13 0 10 1;
#X connect 14 0 16 1;
#X connect 15 0 8 0;
#X connect 16 0 9 0;
#X connect 18 0 11 0;
#X connect 31 0 18 0;
#X connect 38 0 39 0;
#X connect 38 1 4 0;
#X connect 39 0 4 0;
#X connect 39 1 40 0;
#X connect 40 0 9 0;
#X connect 56 0 77 0;
#X connect 57 0 3 0;
#X connect 57 0 75 0;
#X connect 58 0 60 0;
#X connect 60 0 82 0;
#X connect 61 0 62 0;
#X connect 62 0 66 0;
#X connect 62 0 64 0;
#X connect 62 0 63 0;
#X connect 62 0 65 0;
#X connect 62 0 76 0;
#X connect 62 0 79 0;
#X connect 63 0 11 1;
#X connect 64 0 8 1;
#X connect 64 0 6 1;
#X connect 65 0 10 1;
#X connect 66 0 5 1;
#X connect 66 0 18 1;
#X connect 67 0 88 0;
#X connect 70 0 68 1;
#X connect 70 0 72 0;
#X connect 71 0 73 0;
#X connect 73 0 74 0;
#X connect 74 0 70 0;
#X connect 75 0 81 0;
#X connect 75 1 56 0;
#X connect 76 0 16 1;
#X connect 77 0 78 0;
#X connect 77 0 84 0;
#X connect 78 0 80 0;
#X connect 79 0 78 1;
#X connect 79 0 85 1;
#X connect 80 0 58 0;
#X connect 81 0 3 0;
#X connect 82 0 19 0;
#X connect 82 1 69 0;
#X connect 83 0 87 0;
#X connect 84 0 85 0;
#X connect 85 0 86 0;
#X connect 86 0 83 0;
#X connect 87 0 82 1;
#X connect 88 0 70 0;
#X connect 88 0 89 0;
#X connect 89 0 82 2;
#X connect 90 0 84 1;
#X connect 91 0 88 0;
#X connect 92 0 88 0;
#X connect 93 0 88 0;
#X connect 94 0 78 1;
#X connect 94 0 85 1;
#X connect 95 0 90 0;
#X restore 896 287 pd voice 4 30 30 30 30 300;
#X obj 485 246 route rhythm slide binaural;
#X obj 191 373 route 1 2 3 4;
#X obj 116 430 s slide_msec_voice_1;
#X obj 126 454 s slide_msec_voice_2;
#X obj 136 478 s slide_msec_voice_3;
#X obj 146 501 s slide_msec_voice_4;
#X floatatom 69 402 5 0 0 0 - - -;
#X obj 350 477 s binaural_diff_voice_1;
#X obj 361 501 s binaural_diff_voice_2;
#X obj 371 525 s binaural_diff_voice_3;
#X obj 381 548 s binaural_diff_voice_4;
#X obj 464 247 bng 15 250 50 0 empty empty empty 17 7 0 10 -262144
-1 -1;
#X obj 397 356 route 1 2 3 4 -1;
#X floatatom 520 480 5 0 0 0 - - -;
#X floatatom 533 500 5 0 0 0 - - -;
#X floatatom 543 525 5 0 0 0 - - -;
#X floatatom 554 549 5 0 0 0 - - -;
#X obj 800 100 doku~;
#X obj 335 -7 route sound voice perc sys;
#N canvas 0 0 351 320 percussion 1;
#X obj -191 8 inlet ctl;
#X obj -33 96 print perc undefined;
#X obj -191 100 noise-drums-bang;
#X obj -189 268 outlet~ left;
#X obj -82 269 outlet~ right;
#X obj -190 190 *~ 1;
#X obj -83 188 *~ 1;
#X floatatom -73 145 5 0 0 0 - - -;
#X obj 42 244 snapshot~;
#X floatatom 42 270 5 0 0 0 - - -;
#X obj 54 211 bng 15 250 50 0 empty empty empty 17 7 0 10 -262144 -1
-1;
#X obj 42 181 metro 50;
#X obj 42 158 tgl 15 0 empty empty empty 17 7 0 10 -262144 -1 -1 0
1;
#X obj -191 48 route low high cont vol;
#X connect 0 0 13 0;
#X connect 2 0 5 0;
#X connect 2 1 6 0;
#X connect 2 2 5 0;
#X connect 2 3 6 0;
#X connect 2 4 5 0;
#X connect 2 5 6 0;
#X connect 5 0 3 0;
#X connect 5 0 8 0;
#X connect 6 0 4 0;
#X connect 6 0 8 0;
#X connect 7 0 6 1;
#X connect 7 0 5 1;
#X connect 8 0 9 0;
#X connect 10 0 8 0;
#X connect 11 0 8 0;
#X connect 12 0 11 0;
#X connect 13 0 2 1;
#X connect 13 1 2 2;
#X connect 13 2 2 0;
#X connect 13 3 7 0;
#X connect 13 4 1 0;
#X restore 449 38 pd percussion;
#X obj 35 136 spigot;
#X obj 29 181 print wild;
#X obj 45 91 tgl 15 0 empty empty empty 17 7 0 10 -262144 -1 -1 0 1
;
#X obj 141 -26 tgl 15 0 empty empty empty 17 7 0 10 -262144 -1 -1 1
1;
#X floatatom 271 431 5 0 0 0 - - -;
#X floatatom 284 457 5 0 0 0 - - -;
#X floatatom 290 479 5 0 0 0 - - -;
#X floatatom 298 501 5 0 0 0 - - -;
#X connect 2 0 1 0;
#X connect 3 0 39 0;
#X connect 3 1 2 0;
#X connect 4 0 0 0;
#X connect 4 0 6 0;
#X connect 5 0 0 1;
#X connect 5 0 6 0;
#X connect 6 0 58 0;
#X connect 7 0 78 0;
#X connect 8 0 9 0;
#X connect 9 0 4 1;
#X connect 9 0 5 1;
#X connect 10 0 11 0;
#X connect 10 0 15 0;
#X connect 10 0 17 0;
#X connect 10 0 24 0;
#X connect 10 0 46 0;
#X connect 11 0 12 0;
#X connect 12 0 13 0;
#X connect 13 0 89 0;
#X connect 14 0 10 0;
#X connect 14 0 47 0;
#X connect 14 0 49 0;
#X connect 15 0 17 1;
#X connect 17 0 16 0;
#X connect 18 0 19 0;
#X connect 19 0 20 0;
#X connect 21 0 23 1;
#X connect 22 0 90 1;
#X connect 23 0 22 0;
#X connect 24 0 18 0;
#X connect 24 0 21 0;
#X connect 24 0 23 0;
#X connect 24 0 48 0;
#X connect 25 0 52 0;
#X connect 25 0 61 0;
#X connect 25 0 79 0;
#X connect 25 1 62 0;
#X connect 25 1 80 0;
#X connect 25 1 88 0;
#X connect 25 2 63 0;
#X connect 25 2 81 0;
#X connect 25 2 89 0;
#X connect 25 3 64 0;
#X connect 25 3 82 0;
#X connect 25 3 90 0;
#X connect 25 4 91 0;
#X connect 25 4 102 0;
#X connect 26 0 90 2;
#X connect 27 0 44 0;
#X connect 28 0 40 0;
#X connect 29 0 27 0;
#X connect 30 0 26 0;
#X connect 31 0 42 0;
#X connect 32 0 30 0;
#X connect 33 0 34 0;
#X connect 34 0 2 0;
#X connect 36 0 8 0;
#X connect 37 0 35 0;
#X connect 38 0 45 0;
#X connect 39 0 55 0;
#X connect 39 1 52 3;
#X connect 39 2 88 3;
#X connect 39 3 89 3;
#X connect 39 4 90 3;
#X connect 40 0 41 0;
#X connect 41 0 29 0;
#X connect 42 0 43 0;
#X connect 43 0 32 0;
#X connect 44 0 89 2;
#X connect 45 0 53 0;
#X connect 45 1 54 0;
#X connect 45 2 44 0;
#X connect 45 3 26 0;
#X connect 46 0 28 0;
#X connect 47 0 46 1;
#X connect 48 0 31 0;
#X connect 49 0 48 1;
#X connect 50 0 51 0;
#X connect 50 0 68 0;
#X connect 51 0 14 0;
#X connect 52 0 4 0;
#X connect 52 1 5 0;
#X connect 53 0 52 2;
#X connect 54 0 88 2;
#X connect 56 0 36 0;
#X connect 56 0 4 1;
#X connect 56 0 5 1;
#X connect 58 0 57 0;
#X connect 59 0 114 0;
#X connect 60 0 37 1;
#X connect 65 0 54 0;
#X connect 66 0 53 0;
#X connect 66 0 26 0;
#X connect 67 0 44 0;
#X connect 68 0 65 0;
#X connect 68 0 66 0;
#X connect 68 0 67 0;
#X connect 69 0 70 0;
#X connect 69 1 72 0;
#X connect 69 2 74 0;
#X connect 69 3 76 0;
#X connect 70 0 71 0;
#X connect 72 0 73 0;
#X connect 74 0 75 0;
#X connect 76 0 77 0;
#X connect 78 0 6 0;
#X connect 83 0 98 0;
#X connect 83 0 99 0;
#X connect 83 0 100 0;
#X connect 83 0 101 0;
#X connect 84 0 37 0;
#X connect 84 0 59 0;
#X connect 84 0 109 0;
#X connect 86 0 37 1;
#X connect 86 1 87 0;
#X connect 87 0 85 0;
#X connect 88 0 4 0;
#X connect 88 1 5 0;
#X connect 89 0 4 0;
#X connect 89 1 5 0;
#X connect 90 0 4 0;
#X connect 90 1 5 0;
#X connect 91 0 69 0;
#X connect 91 1 92 0;
#X connect 91 2 35 0;
#X connect 91 2 103 0;
#X connect 92 0 93 0;
#X connect 92 0 115 0;
#X connect 92 1 94 0;
#X connect 92 1 116 0;
#X connect 92 2 95 0;
#X connect 92 2 117 0;
#X connect 92 3 96 0;
#X connect 92 3 118 0;
#X connect 97 0 93 0;
#X connect 97 0 94 0;
#X connect 97 0 95 0;
#X connect 97 0 96 0;
#X connect 103 0 98 0;
#X connect 103 0 104 0;
#X connect 103 1 99 0;
#X connect 103 1 105 0;
#X connect 103 2 100 0;
#X connect 103 2 106 0;
#X connect 103 3 101 0;
#X connect 103 3 107 0;
#X connect 103 4 83 0;
#X connect 109 0 3 0;
#X connect 109 0 38 0;
#X connect 109 1 25 0;
#X connect 109 2 110 0;
#X connect 109 3 86 0;
#X connect 109 4 111 0;
#X connect 110 0 4 0;
#X connect 110 1 5 0;
#X connect 111 0 112 0;
#X connect 113 0 111 1;
