#N canvas 2 48 1020 718 10;
#X obj 602 569 dac~;
#X msg 718 206 \; pd dsp \$1 \;;
#X obj 718 184 tgl 15 0 empty empty empty 17 7 0 10 -262144 -1 -1 4
4;
#X obj 445 559 snapshot~;
#X obj 445 514 tgl 15 0 empty empty empty 17 7 0 10 -262144 -1 -1 0
1;
#X obj 718 129 key;
#X obj 718 156 select 32;
#X obj 252 89 print log udp;
#X obj 252 68 spigot;
#X obj 371 98 route master 1 2 3 4;
#X obj 408 67 route 1 2 3 4;
#X obj 371 123 s master_vol;
#X obj 445 604 vsl 80 20 0 1 0 0 empty empty empty 0 -9 0 10 -262144
-1 -1 0 1;
#X obj 445 581 abs;
#X obj 343 -26 bng 15 250 50 0 empty empty empty 17 7 0 10 -262144
-1 -1;
#X obj 285 49 tgl 15 0 empty empty empty 17 7 0 10 -262144 -1 -1 0
1;
#X obj 227 329 route 1 2 3 4;
#X obj 445 536 metro 120;
#X obj 363 -27 netreceive 12321 1;
#X obj 227 304 route rhythm slide binaural;
#X obj 371 4 route sound voice perc sys;
#N canvas 2 50 1020 718 percussion 0;
#X obj -191 8 inlet ctl;
#X obj 40 85 print perc undefined;
#X obj -191 100 noise-drums-bang;
#X obj -190 190 *~ 1;
#X obj -80 188 *~ 1;
#X floatatom -59 145 5 0 0 0 - - -, f 5;
#X obj 42 244 snapshot~;
#X floatatom 42 270 10 0 0 0 - - -, f 10;
#X obj 54 222 bng 15 250 50 0 empty empty empty 17 7 0 10 -262144 -1
-1;
#X obj 42 192 metro 50;
#X obj 42 169 tgl 15 0 empty empty empty 17 7 0 10 -262144 -1 -1 0
1;
#X obj -26 118 s mute_drums;
#X obj -189 227 *~ 5;
#X obj -79 225 *~ 5;
#X obj -191 48 route low high cont mark vol mute cont2;
#X obj -188 366 send~ percussion_signal_left;
#X obj -117 342 send~ percussion_signal_right;
#X connect 0 0 14 0;
#X connect 2 0 3 0;
#X connect 2 1 4 0;
#X connect 2 2 3 0;
#X connect 2 3 4 0;
#X connect 2 4 3 0;
#X connect 2 5 4 0;
#X connect 2 6 3 0;
#X connect 2 7 4 0;
#X connect 2 8 3 0;
#X connect 2 9 4 0;
#X connect 3 0 6 0;
#X connect 3 0 12 0;
#X connect 4 0 6 0;
#X connect 4 0 13 0;
#X connect 5 0 4 1;
#X connect 5 0 3 1;
#X connect 6 0 7 0;
#X connect 8 0 6 0;
#X connect 9 0 6 0;
#X connect 10 0 9 0;
#X connect 12 0 15 0;
#X connect 13 0 16 0;
#X connect 14 0 2 2;
#X connect 14 1 2 3;
#X connect 14 2 2 1;
#X connect 14 3 2 4;
#X connect 14 4 5 0;
#X connect 14 5 11 0;
#X connect 14 6 2 0;
#X connect 14 7 1 0;
#X restore 447 147 pd percussion;
#X obj 637 27 spigot;
#X obj 637 52 print wild;
#X obj 620 28 tgl 15 0 empty empty empty 17 7 0 10 -262144 -1 -1 0
1;
#X obj 678 586 doku~;
#X obj 678 558 bng 15 250 50 0 empty empty empty 17 7 0 10 -262144
-1 -1;
#X msg 678 609 ls-results in pd-window;
#X obj 566 610 record-stereo~;
#X obj 649 584 tgl 15 0 empty empty empty 17 7 0 10 -262144 -1 -1 0
1;
#X msg 714 558 ls;
#N canvas 2 50 1020 699 volumes 0;
#X obj 11 201 inlet~;
#X obj 68 201 inlet~;
#X obj 126 201 inlet;
#X obj 12 307 *~ 1;
#X obj 69 306 *~ 1;
#X floatatom 47 269 5 0 0 0 - - -, f 5;
#X obj 204 202 inlet~;
#X obj 261 202 inlet~;
#X obj 322 202 inlet;
#X obj 205 308 *~ 1;
#X obj 262 307 *~ 1;
#X floatatom 251 273 5 0 0 0 - - -, f 5;
#X obj 414 203 inlet~;
#X obj 471 203 inlet~;
#X obj 532 203 inlet;
#X obj 415 310 *~ 1;
#X obj 472 309 *~ 1;
#X floatatom 461 275 5 0 0 0 - - -, f 5;
#X obj 610 204 inlet~;
#X obj 667 204 inlet~;
#X obj 727 204 inlet;
#X obj 610 310 *~ 1;
#X obj 667 309 *~ 1;
#X floatatom 656 277 5 0 0 0 - - -, f 5;
#X obj 802 204 inlet~;
#X obj 859 204 inlet~;
#X obj 914 204 inlet;
#X obj 803 308 *~ 1;
#X obj 860 307 *~ 1;
#X floatatom 843 274 5 0 0 0 - - -, f 5;
#X obj 321 424 outlet~;
#X obj 423 425 outlet~;
#X obj 320 390 *~ 1;
#X obj 422 391 *~ 1;
#X obj 1046 205 inlet;
#X floatatom 975 306 5 0 0 0 - - -, f 5;
#X obj 304 230 f;
#X obj 251 122 r mute_voice_2;
#X obj 304 175 bang;
#X msg 251 173 0;
#X obj 100 175 bang;
#X msg 47 173 0;
#X obj 99 229 f;
#X obj 47 122 r mute_voice_1;
#X obj 514 174 bang;
#X msg 461 172 0;
#X obj 461 121 r mute_voice_3;
#X obj 514 233 f;
#X obj 709 176 bang;
#X msg 656 174 0;
#X obj 656 123 r mute_voice_4;
#X obj 709 235 f;
#X obj 896 175 bang;
#X msg 843 173 0;
#X obj 843 123 r mute_drums;
#X obj 896 231 f;
#X obj 1028 177 bang;
#X msg 975 175 0;
#X obj 975 125 r mute_master;
#X obj 1028 243 f;
#X obj 47 148 select 1;
#X obj 251 148 select 1;
#X obj 461 147 select 1;
#X obj 656 149 select 1;
#X obj 843 148 select 1;
#X obj 975 150 select 1;
#X obj 9 74 receive~ voice1_signal_left;
#X obj 29 95 receive~ voice1_signal_right;
#X obj 211 65 receive~ voice2_signal_left;
#X obj 239 95 receive~ voice2_signal_right;
#X obj 823 90 receive~ percussion_signal_right;
#X obj 792 67 receive~ percussion_signal_left;
#X obj 421 65 receive~ voice3_signal_left;
#X obj 449 95 receive~ voice3_signal_right;
#X obj 621 65 receive~ voice4_signal_left;
#X obj 649 95 receive~ voice4_signal_right;
#X connect 0 0 3 0;
#X connect 1 0 4 0;
#X connect 2 0 5 0;
#X connect 2 0 42 1;
#X connect 3 0 32 0;
#X connect 4 0 33 0;
#X connect 5 0 3 1;
#X connect 5 0 4 1;
#X connect 6 0 9 0;
#X connect 7 0 10 0;
#X connect 8 0 10 1;
#X connect 8 0 36 1;
#X connect 8 0 11 0;
#X connect 9 0 32 0;
#X connect 10 0 33 0;
#X connect 11 0 9 1;
#X connect 11 0 10 1;
#X connect 12 0 15 0;
#X connect 13 0 16 0;
#X connect 14 0 17 0;
#X connect 14 0 47 1;
#X connect 15 0 32 0;
#X connect 16 0 33 0;
#X connect 17 0 15 1;
#X connect 17 0 16 1;
#X connect 18 0 21 0;
#X connect 19 0 22 0;
#X connect 20 0 51 1;
#X connect 20 0 23 0;
#X connect 21 0 32 0;
#X connect 22 0 33 0;
#X connect 23 0 21 1;
#X connect 23 0 22 1;
#X connect 24 0 27 0;
#X connect 25 0 28 0;
#X connect 26 0 29 0;
#X connect 26 0 55 1;
#X connect 27 0 32 0;
#X connect 28 0 33 0;
#X connect 29 0 27 1;
#X connect 29 0 28 1;
#X connect 32 0 30 0;
#X connect 33 0 31 0;
#X connect 34 0 35 0;
#X connect 34 0 59 1;
#X connect 35 0 33 1;
#X connect 35 0 32 1;
#X connect 36 0 11 0;
#X connect 37 0 61 0;
#X connect 38 0 36 0;
#X connect 39 0 11 0;
#X connect 40 0 42 0;
#X connect 41 0 5 0;
#X connect 42 0 5 0;
#X connect 43 0 60 0;
#X connect 44 0 47 0;
#X connect 45 0 17 0;
#X connect 46 0 62 0;
#X connect 47 0 17 0;
#X connect 48 0 51 0;
#X connect 49 0 23 0;
#X connect 50 0 63 0;
#X connect 51 0 23 0;
#X connect 52 0 55 0;
#X connect 53 0 29 0;
#X connect 54 0 64 0;
#X connect 55 0 29 0;
#X connect 56 0 59 0;
#X connect 57 0 35 0;
#X connect 58 0 65 0;
#X connect 59 0 35 0;
#X connect 60 0 41 0;
#X connect 60 1 40 0;
#X connect 61 0 39 0;
#X connect 61 1 38 0;
#X connect 62 0 45 0;
#X connect 62 1 44 0;
#X connect 63 0 49 0;
#X connect 63 1 48 0;
#X connect 64 0 53 0;
#X connect 64 1 52 0;
#X connect 65 0 57 0;
#X connect 65 1 56 0;
#X connect 66 0 3 0;
#X connect 67 0 4 0;
#X connect 68 0 9 0;
#X connect 69 0 10 0;
#X connect 70 0 28 0;
#X connect 71 0 27 0;
#X connect 72 0 15 0;
#X connect 73 0 16 0;
#X connect 74 0 21 0;
#X connect 75 0 22 0;
#X restore 479 480 pd volumes ...........................;
#X obj 479 506 *~ 1;
#X obj 704 507 *~ 1;
#X obj 323 148 route 1 2 3 4;
#X obj 485 27 route log meter speed;
#X obj 567 72 s global_speed;
#X obj 371 28 route vol pan;
#N canvas 2 48 1020 718 meters 0;
#X obj 483 29 inlet;
#X obj 439 29 inlet;
#X obj 537 29 inlet;
#X obj 583 29 inlet;
#X obj 386 29 inlet;
#X msg 680 246 [5];
#X msg 680 270 [2_ 3];
#X msg 680 294 [2_ 1_ 1_ 1];
#X msg 680 318 [2_ 2_ 1];
#X msg 680 222 (8__(4__4));
#X obj 541 133 cyclone/prepend set;
#X obj 581 158 cyclone/prepend set;
#X obj 514 108 cyclone/prepend set;
#X obj 464 84 cyclone/prepend set;
#X obj 441 61 cyclone/prepend set;
#X obj 405 138 list-abs/list-l2s;
#X obj 420 160 list-abs/list-l2s;
#X obj 440 186 list-abs/list-l2s;
#X obj 470 212 list-abs/list-l2s;
#X obj 386 111 list-abs/list-l2s;
#X obj 20 260 cnv 15 440 100 empty empty Voices 20 12 0 14 -191407
-262144 0;
#X symbolatom 304 323 25 0 0 0 voice_3 - -, f 25;
#X symbolatom 304 289 25 0 0 0 voice_1 - -, f 25;
#X symbolatom 304 307 25 0 0 0 voice_2 - -, f 25;
#X symbolatom 333 265 20 0 0 0 - - -, f 20;
#X symbolatom 304 341 25 0 0 0 voice_4 - -, f 25;
#N canvas 2 50 1020 699 binaural_diff_dispatcher 0;
#X obj 313 132 inlet;
#X floatatom 511 168 5 0 0 0 - - -, f 5;
#X obj 68 311 s binaural_diff_voice_1;
#X obj 269 310 s binaural_diff_voice_2;
#X obj 445 313 s binaural_diff_voice_3;
#X obj 623 314 s binaural_diff_voice_4;
#X obj 313 157 route 1 2 3 4 -1;
#X floatatom 68 284 5 0 0 0 - - -, f 5;
#X floatatom 269 282 5 0 0 0 - - -, f 5;
#X floatatom 445 280 5 0 0 0 - - -, f 5;
#X floatatom 623 286 5 0 0 0 - - -, f 5;
#X obj 51 335 outlet;
#X obj 252 337 outlet;
#X obj 426 346 outlet;
#X obj 603 334 outlet;
#X obj 511 133 inlet;
#X connect 0 0 6 0;
#X connect 1 0 7 0;
#X connect 1 0 8 0;
#X connect 1 0 9 0;
#X connect 1 0 10 0;
#X connect 6 0 7 0;
#X connect 6 1 8 0;
#X connect 6 2 9 0;
#X connect 6 3 10 0;
#X connect 6 4 1 0;
#X connect 7 0 11 0;
#X connect 7 0 2 0;
#X connect 8 0 12 0;
#X connect 8 0 3 0;
#X connect 9 0 13 0;
#X connect 9 0 4 0;
#X connect 10 0 14 0;
#X connect 10 0 5 0;
#X connect 15 0 1 0;
#X restore 248 209 pd binaural_diff_dispatcher;
#X floatatom 202 289 8 0 0 0 - - -, f 8;
#X floatatom 202 307 8 0 0 0 - - -, f 8;
#X floatatom 202 324 8 0 0 0 - - -, f 8;
#X floatatom 202 342 8 0 0 0 - - -, f 8;
#X floatatom 407 189 5 0 0 0 - - -, f 5;
#X obj 248 30 inlet;
#X text 201 269 binaural;
#X floatatom 121 289 8 0 0 0 - - -, f 8;
#X floatatom 121 306 8 0 0 0 - - -, f 8;
#X floatatom 121 324 8 0 0 0 - - -, f 8;
#X floatatom 121 342 8 0 0 0 - - -, f 8;
#N canvas 2 50 1020 699 slide_msec_dispatcher 0;
#X obj 258 128 inlet;
#X obj 258 153 route 1 2 3 4;
#X obj 82 246 s slide_msec_voice_1;
#X obj 258 251 s slide_msec_voice_2;
#X obj 429 254 s slide_msec_voice_3;
#X obj 642 255 s slide_msec_voice_4;
#X floatatom 460 159 5 0 0 0 - - -, f 5;
#X floatatom 48 246 5 0 0 0 - - -, f 5;
#X floatatom 215 250 5 0 0 0 - - -, f 5;
#X floatatom 394 253 5 0 0 0 - - -, f 5;
#X floatatom 606 259 5 0 0 0 - - -, f 5;
#X obj 460 134 inlet;
#X text 300 130 controller in;
#X obj 48 299 outlet;
#X obj 397 304 outlet;
#X obj 606 304 outlet;
#X obj 217 309 outlet;
#X text 505 137 common number;
#X connect 0 0 1 0;
#X connect 1 0 2 0;
#X connect 1 0 7 0;
#X connect 1 1 3 0;
#X connect 1 1 8 0;
#X connect 1 2 4 0;
#X connect 1 2 9 0;
#X connect 1 3 5 0;
#X connect 1 3 10 0;
#X connect 6 0 2 0;
#X connect 6 0 3 0;
#X connect 6 0 4 0;
#X connect 6 0 5 0;
#X connect 6 0 9 0;
#X connect 6 0 10 0;
#X connect 6 0 8 0;
#X connect 6 0 7 0;
#X connect 7 0 13 0;
#X connect 8 0 16 0;
#X connect 9 0 14 0;
#X connect 10 0 15 0;
#X connect 11 0 6 0;
#X restore 53 117 pd slide_msec_dispatcher;
#X floatatom 193 96 5 0 0 0 - - -, f 5;
#X obj 53 45 inlet;
#X text 125 270 slide;
#X connect 0 0 12 0;
#X connect 0 0 16 0;
#X connect 1 0 13 0;
#X connect 1 0 15 0;
#X connect 2 0 10 0;
#X connect 2 0 17 0;
#X connect 3 0 11 0;
#X connect 3 0 18 0;
#X connect 4 0 14 0;
#X connect 4 0 19 0;
#X connect 10 0 7 0;
#X connect 11 0 8 0;
#X connect 12 0 6 0;
#X connect 13 0 5 0;
#X connect 14 0 9 0;
#X connect 15 0 22 0;
#X connect 16 0 23 0;
#X connect 17 0 21 0;
#X connect 18 0 25 0;
#X connect 19 0 24 0;
#X connect 26 0 27 0;
#X connect 26 1 28 0;
#X connect 26 2 29 0;
#X connect 26 3 30 0;
#X connect 31 0 26 1;
#X connect 32 0 26 0;
#X connect 38 0 34 0;
#X connect 38 1 35 0;
#X connect 38 2 36 0;
#X connect 38 3 37 0;
#X connect 39 0 38 1;
#X connect 40 0 38 0;
#X coords 0 -1 1 1 440 100 1 20 260;
#X restore 15 353 pd meters;
#N canvas 2 50 1020 718 volumes 0;
#X obj 100 100 cnv 100 330 120 empty empty Volumes 20 12 0 14 -191407
-262144 0;
#X obj 370 51 r master_vol;
#X obj 103 131 vsl 50 80 0 1024 0 0 empty empty empty 0 -9 0 10 -262144
-1 -1 5138 1;
#X obj 103 249 / 666;
#X obj 153 131 vsl 50 80 0 1024 0 0 empty empty empty 0 -9 0 10 -262144
-1 -1 5138 1;
#X obj 153 248 / 666;
#X obj 203 131 vsl 50 80 0 1024 0 0 empty empty empty 0 -9 0 10 -262144
-1 -1 5138 1;
#X obj 203 248 / 666;
#X obj 253 131 vsl 50 80 0 1024 0 0 empty empty empty 0 -9 0 10 -262144
-1 -1 5138 1;
#X obj 253 248 / 666;
#X obj 303 131 vsl 50 80 0 1024 0 0 empty empty drums 0 -9 0 10 -262144
-1 -1 638 1;
#X obj 303 248 / 666;
#X msg 279 68 666;
#X obj 279 44 loadbang;
#X obj 359 131 vsl 50 80 0 1024 0 0 empty empty main 0 -9 0 10 -262144
-1 -1 538 1;
#X obj 370 246 / 666;
#X obj 370 73 * 666;
#N canvas 2 50 1020 718 voice_volume_receiver 0;
#X obj -37 33 r volume_voice_1;
#X obj -37 65 * 1024;
#X obj -37 101 outlet;
#X obj 99 65 * 1024;
#X obj 99 101 outlet;
#X obj 235 64 * 1024;
#X obj 235 100 outlet;
#X obj 371 64 * 1024;
#X obj 371 100 outlet;
#X obj 99 33 r volume_voice_2;
#X obj 235 32 r volume_voice_3;
#X obj 371 32 r volume_voice_4;
#X connect 0 0 1 0;
#X connect 1 0 2 0;
#X connect 3 0 4 0;
#X connect 5 0 6 0;
#X connect 7 0 8 0;
#X connect 9 0 3 0;
#X connect 10 0 5 0;
#X connect 11 0 7 0;
#X restore 103 74 pd voice_volume_receiver;
#X obj 103 271 outlet;
#X obj 153 271 outlet;
#X obj 203 271 outlet;
#X obj 253 271 outlet;
#X obj 303 271 outlet;
#X obj 370 271 outlet;
#X connect 1 0 16 0;
#X connect 2 0 3 0;
#X connect 3 0 18 0;
#X connect 4 0 5 0;
#X connect 5 0 19 0;
#X connect 6 0 7 0;
#X connect 7 0 20 0;
#X connect 8 0 9 0;
#X connect 9 0 21 0;
#X connect 10 0 11 0;
#X connect 11 0 22 0;
#X connect 12 0 2 0;
#X connect 12 0 4 0;
#X connect 12 0 6 0;
#X connect 12 0 8 0;
#X connect 12 0 10 0;
#X connect 12 0 14 0;
#X connect 13 0 12 0;
#X connect 14 0 15 0;
#X connect 15 0 23 0;
#X connect 16 0 14 0;
#X connect 17 0 2 0;
#X connect 17 1 4 0;
#X connect 17 2 6 0;
#X connect 17 3 8 0;
#X coords 0 -1 1 1 330 120 1 100 100;
#X restore 456 353 pd volumes;
#N canvas 2 48 1020 718 message_dispatcher 0;
#X obj 606 304 print log udp;
#X obj 606 283 spigot;
#X obj 279 194 route master 1 2 3 4;
#X obj 316 163 route 1 2 3 4;
#X obj 279 219 s master_vol;
#X obj 639 264 tgl 15 0 empty empty empty 17 7 0 10 -262144 -1 -1 0
1;
#X obj 279 100 route sound voice perc sys;
#N canvas 2 50 1020 718 percussion 0;
#X obj -191 8 inlet ctl;
#X obj 40 85 print perc undefined;
#X obj -191 100 noise-drums-bang;
#X obj -190 190 *~ 1;
#X obj -80 188 *~ 1;
#X floatatom -59 145 5 0 0 0 - - -, f 5;
#X obj 42 244 snapshot~;
#X floatatom 42 270 10 0 0 0 - - -, f 10;
#X obj 54 222 bng 15 250 50 0 empty empty empty 17 7 0 10 -262144 -1
-1;
#X obj 42 192 metro 50;
#X obj 42 169 tgl 15 0 empty empty empty 17 7 0 10 -262144 -1 -1 0
1;
#X obj -26 118 s mute_drums;
#X obj -189 227 *~ 5;
#X obj -79 225 *~ 5;
#X obj -191 48 route low high cont mark vol mute cont2;
#X obj -188 366 send~ percussion_signal_left;
#X obj -117 342 send~ percussion_signal_right;
#X connect 0 0 14 0;
#X connect 2 0 3 0;
#X connect 2 1 4 0;
#X connect 2 2 3 0;
#X connect 2 3 4 0;
#X connect 2 4 3 0;
#X connect 2 5 4 0;
#X connect 2 6 3 0;
#X connect 2 7 4 0;
#X connect 2 8 3 0;
#X connect 2 9 4 0;
#X connect 3 0 6 0;
#X connect 3 0 12 0;
#X connect 4 0 6 0;
#X connect 4 0 13 0;
#X connect 5 0 4 1;
#X connect 5 0 3 1;
#X connect 6 0 7 0;
#X connect 8 0 6 0;
#X connect 9 0 6 0;
#X connect 10 0 9 0;
#X connect 12 0 15 0;
#X connect 13 0 16 0;
#X connect 14 0 2 2;
#X connect 14 1 2 3;
#X connect 14 2 2 1;
#X connect 14 3 2 4;
#X connect 14 4 5 0;
#X connect 14 5 11 0;
#X connect 14 6 2 0;
#X connect 14 7 1 0;
#X restore 355 243 pd percussion;
#X obj 545 123 spigot;
#X obj 545 148 print wild;
#X obj 528 124 tgl 15 0 empty empty empty 17 7 0 10 -262144 -1 -1 0
1;
#X obj 231 244 route 1 2 3 4;
#X obj 393 123 route log meter speed;
#X obj 475 168 s global_speed;
#X obj 279 124 route vol pan;
#X obj 279 72 inlet;
#X obj 639 62 inlet;
#X obj 369 344 s voice_pan_1;
#X obj 499 404 s voice_pan_4;
#X obj 449 384 s voice_pan_3;
#X obj 409 364 s voice_pan_2;
#X obj 85 331 s raw_voice_1_message;
#X obj 84 360 s raw_voice_2_message;
#X obj 85 390 s raw_voice_3_message;
#X obj 85 420 s raw_voice_4_message;
#X obj 65 332 bng 15 250 50 0 empty empty empty 17 7 0 10 -262144 -1
-1;
#X connect 1 0 0 0;
#X connect 2 0 4 0;
#X connect 3 0 17 0;
#X connect 3 1 20 0;
#X connect 3 2 19 0;
#X connect 3 3 18 0;
#X connect 5 0 1 1;
#X connect 6 0 14 0;
#X connect 6 1 11 0;
#X connect 6 2 7 0;
#X connect 6 3 12 0;
#X connect 6 4 8 0;
#X connect 8 0 9 0;
#X connect 10 0 8 1;
#X connect 11 0 21 0;
#X connect 11 0 25 0;
#X connect 11 1 22 0;
#X connect 11 2 23 0;
#X connect 11 3 24 0;
#X connect 12 0 1 1;
#X connect 12 2 13 0;
#X connect 14 0 2 0;
#X connect 14 1 3 0;
#X connect 15 0 6 0;
#X connect 16 0 5 0;
#X restore 91 38 pd message_dispatcher;
#X obj 190 221 voice 2 30 30 30 30 300;
#X obj 22 220 voice 1 30 30 30 30 300;
#X obj 524 223 voice 4 30 30 30 30 300;
#X obj 358 222 voice 3 30 30 30 30 300;
#X obj 190 197 voice_message_dispatcher 2;
#X obj 22 196 voice_message_dispatcher 1;
#X obj 358 197 voice_message_dispatcher 3;
#X obj 524 197 voice_message_dispatcher 4;
#X connect 2 0 1 0;
#X connect 3 0 13 0;
#X connect 4 0 17 0;
#X connect 5 0 6 0;
#X connect 6 0 2 0;
#X connect 8 0 7 0;
#X connect 9 0 11 0;
#X connect 13 0 12 0;
#X connect 15 0 8 1;
#X connect 16 0 38 3;
#X connect 16 1 38 4;
#X connect 16 2 38 5;
#X connect 16 3 38 6;
#X connect 17 0 3 0;
#X connect 18 0 8 0;
#X connect 18 0 14 0;
#X connect 18 0 20 0;
#X connect 18 0 40 0;
#X connect 19 0 16 0;
#X connect 19 1 38 0;
#X connect 19 2 38 1;
#X connect 20 0 37 0;
#X connect 20 1 34 0;
#X connect 20 2 21 0;
#X connect 20 3 35 0;
#X connect 20 4 22 0;
#X connect 22 0 23 0;
#X connect 24 0 22 1;
#X connect 25 0 27 0;
#X connect 26 0 25 0;
#X connect 29 0 28 3;
#X connect 30 0 25 0;
#X connect 31 0 32 0;
#X connect 31 1 33 0;
#X connect 32 0 0 0;
#X connect 32 0 3 0;
#X connect 32 0 25 1;
#X connect 32 0 28 1;
#X connect 33 0 0 1;
#X connect 33 0 3 0;
#X connect 33 0 25 2;
#X connect 33 0 28 2;
#X connect 34 4 19 0;
#X connect 35 0 8 1;
#X connect 35 1 38 2;
#X connect 35 2 36 0;
#X connect 37 0 9 0;
#X connect 37 1 10 0;
#X connect 37 2 2 0;
#X connect 39 0 31 2;
#X connect 39 1 31 5;
#X connect 39 2 31 8;
#X connect 39 3 31 11;
#X connect 39 4 31 14;
#X connect 39 5 31 15;
#X connect 45 0 41 0;
#X connect 46 0 42 0;
#X connect 47 0 44 0;
#X connect 48 0 43 0;
#X coords 0 718 1 717 85 60 0;
