#N canvas 2 48 1020 718 12;
#X msg 69 144 set;
#X msg 46 171 addsemi;
#X obj 23 114 t b b b;
#X obj 23 92 bng 15 250 50 0 empty empty empty 17 7 0 10 -262144 -1
-1;
#X obj 209 164 list split 1;
#X obj 209 94 until;
#X obj 209 132 list append;
#X obj 209 60 t b b l;
#X obj 290 199 bang;
#X msg 209 198 add2 \$1;
#X obj 259 237 t b b b;
#X obj 462 331 loadbang;
#X obj 259 268 delay 1;
#X msg 303 33 0.2 0 0.2 0 0.2 0 0.2 0 0.2 0 0.2 0 0.2 0 0.2 0 0.2;
#X obj 24 30 table \$1 512;
#X obj 23 198 symbol \$1;
#X msg 23 227 add2 \$1 sinesum 512;
#X obj 462 361 symbol \$1;
#X msg 462 392 \; \$1 sinesum 512 0.5 0.25 0.125;
#X msg 23 376 \; sines4 sinesum 512 0.2 0 0.2 0 0.2 0 0.2 0 0.2 0 0.2
0 0.2 0 0.2 0 0.2;
#X obj 259 298 symbol \$1;
#X msg 259 326 \; \$1 normalize;
#X obj 209 31 inlet;
#X connect 0 0 19 0;
#X connect 1 0 19 0;
#X connect 2 0 15 0;
#X connect 2 1 1 0;
#X connect 2 2 0 0;
#X connect 3 0 2 0;
#X connect 4 0 9 0;
#X connect 4 1 6 1;
#X connect 4 2 8 0;
#X connect 5 0 6 0;
#X connect 6 0 4 0;
#X connect 7 0 5 0;
#X connect 7 1 3 0;
#X connect 7 2 6 1;
#X connect 8 0 10 0;
#X connect 9 0 19 0;
#X connect 10 0 12 0;
#X connect 10 1 19 0;
#X connect 10 2 5 1;
#X connect 11 0 17 0;
#X connect 12 0 20 0;
#X connect 13 0 7 0;
#X connect 15 0 16 0;
#X connect 16 0 19 0;
#X connect 17 0 18 0;
#X connect 20 0 21 0;
#X connect 22 0 7 0;
