#N canvas 2 48 1020 718 10;
#X obj 71 246 del 250;
#X floatatom 116 382 5 0 0 0 - - -, f 5;
#X obj 71 309 0;
#X obj 110 83 inlet;
#X text 148 83 note or duration, f 19;
#X obj 71 381 outlet;
#X msg 98 219 stop;
#X obj 71 190 t b b;
#X floatatom 665 159 5 0 0 0 - - -, f 5;
#X obj 387 256 s adsr_voice_\$1;
#X obj 318 288 s mute_voice_\$1;
#X obj 248 320 s volume_voice_\$1;
#X obj 179 354 s wavetable_sines\$1;
#X obj 456 226 s peak_level_voice_\$1;
#X obj 352 76 list-abs/list-l2s;
#X symbolatom 352 103 80 0 0 0 - - -, f 80;
#X obj 352 32 r raw_voice_\$1_message;
#X floatatom 235 443 5 0 0 0 - - -, f 5;
#X floatatom 521 557 5 0 0 0 - - -, f 5;
#X floatatom 617 592 5 0 0 0 - - -, f 5;
#X floatatom 426 521 5 0 0 0 - - -, f 5;
#X floatatom 330 481 5 0 0 0 - - -, f 5;
#X msg 248 392 500 1 5 43 47;
#X obj 235 423 unpack f f f f f f f, f 96;
#X floatatom 712 627 5 0 0 0 - - -, f 5;
#X floatatom 808 663 5 0 0 0 - - -, f 5;
#X text 349 373 duration \, start_index \, end_index \, start_note
\, end_note \, start_multiplier \, end_multiplier, f 37;
#X obj 235 460 s rendezvous_duration_\$1;
#X obj 330 501 s rendezvous_start_index_\$1;
#X obj 426 537 s rendezvous_end_index_\$1;
#X obj 521 573 s rendezvous_start_note_\$1;
#X obj 617 608 s rendezvous_end_note_\$1;
#X obj 808 679 s rendezvous_end_multiplier_\$1;
#X obj 712 643 s rendezvous_start_multiplier_\$1;
#X obj 525 327 list;
#X obj 110 129 route dur wavetable volume mute adsr peak_level rendezvous
adsr_enable, f 93;
#X obj 595 187 s adsr_enable_voice\$1;
#X msg 71 277 0;
#X connect 0 0 37 0;
#X connect 2 0 1 0;
#X connect 2 0 5 0;
#X connect 3 0 35 0;
#X connect 6 0 0 0;
#X connect 7 0 0 0;
#X connect 7 1 6 0;
#X connect 8 0 1 0;
#X connect 8 0 7 0;
#X connect 8 0 2 0;
#X connect 14 0 15 0;
#X connect 16 0 14 0;
#X connect 16 0 35 0;
#X connect 17 0 27 0;
#X connect 18 0 30 0;
#X connect 19 0 8 0;
#X connect 19 0 31 0;
#X connect 20 0 29 0;
#X connect 21 0 28 0;
#X connect 22 0 23 0;
#X connect 23 0 17 0;
#X connect 23 1 21 0;
#X connect 23 2 20 0;
#X connect 23 3 18 0;
#X connect 23 4 19 0;
#X connect 23 5 24 0;
#X connect 23 6 25 0;
#X connect 24 0 33 0;
#X connect 25 0 32 0;
#X connect 34 0 23 0;
#X connect 35 0 0 1;
#X connect 35 1 12 0;
#X connect 35 2 11 0;
#X connect 35 3 10 0;
#X connect 35 4 9 0;
#X connect 35 5 13 0;
#X connect 35 6 34 0;
#X connect 35 7 36 0;
#X connect 35 8 8 0;
#X connect 37 0 2 0;
