#N canvas 2 48 1020 718 10;
#X obj 71 265 del 250;
#X floatatom 116 382 5 0 0 0 - - -, f 5;
#X obj 71 309 0;
#X obj 110 83 inlet;
#X text 148 83 note or duration, f 19;
#X obj 71 381 outlet;
#X msg 98 238 stop;
#X obj 71 209 t b b;
#X floatatom 389 156 5 0 0 0 - - -, f 5;
#X obj 296 211 s adsr_voice_\$1;
#X obj 249 243 s mute_voice_\$1;
#X obj 203 275 s volume_voice_\$1;
#X obj 156 306 s wavetable_sines\$1;
#X obj 342 181 s peak_level_voice_\$1;
#X obj 110 129 route dur wavetable volume mute adsr peak_level;
#X obj 352 76 list-abs/list-l2s;
#X symbolatom 352 103 80 0 0 0 - - -, f 80;
#X obj 352 32 r raw_voice_\$1_message;
#X connect 0 0 2 0;
#X connect 2 0 1 0;
#X connect 2 0 5 0;
#X connect 3 0 14 0;
#X connect 6 0 0 0;
#X connect 7 0 0 0;
#X connect 7 1 6 0;
#X connect 8 0 1 0;
#X connect 8 0 7 0;
#X connect 8 0 2 0;
#X connect 14 0 0 1;
#X connect 14 1 12 0;
#X connect 14 2 11 0;
#X connect 14 3 10 0;
#X connect 14 4 9 0;
#X connect 14 5 13 0;
#X connect 14 6 8 0;
#X connect 15 0 16 0;
#X connect 17 0 14 0;
#X connect 17 0 15 0;
