#N canvas 2 48 1020 718 10;
#X obj 170 158 inlet;
#X obj 657 269 inlet;
#X text 166 139 trigger;
#X obj 170 180 sel 0;
#X obj 403 300 t b;
#X obj 714 269 inlet;
#X obj 589 520 line~;
#X obj 781 264 inlet;
#X obj 838 269 inlet;
#X obj 911 268 inlet;
#X msg 170 202 stop;
#X obj 188 680 outlet~;
#X text 324 453 and pack with;
#X text 325 475 attack time;
#X text 253 203 if zero;
#X text 252 219 release;
#X text 234 237 and cancel;
#X text 265 254 decay;
#X text 500 382 recall sustain value;
#X text 537 455 pack with decay time;
#X text 827 409 on release ramp;
#X text 828 426 back to zero;
#X obj 723 406 * 0.01;
#X text 235 -1 ADSR ENVELOPE;
#X text 710 247 attack;
#X text 777 246 decay;
#X text 831 247 sustain;
#X text 908 247 release;
#X text 337 228 attack;
#X obj 339 249 moses;
#X obj 339 275 t b b;
#X msg 366 381 0;
#X text 301 350 optionally;
#X text 291 368 bash to zero;
#X text 306 323 ATTACK:;
#X text 454 164 test for negative trigger;
#X text 469 189 the output;
#X text 525 432 multiply by peak level;
#X text 498 405 convert from percent;
#X text 377 417 ... then;
#X text 325 436 recall peak level;
#X text 463 209 ... do this;
#X text 430 -2 Arguments: level \, attack time \, decay time \, sustain
level \, release time. A \, D \, and R are in msec and S is in percent.
This patch is used as an abstraction in various examples.;
#X obj 118 135 mtof;
#X obj 91 2 inlet;
#X text 464 176 if so \, zero;
#X obj 239 554 *~;
#X obj 779 124 loadbang;
#X obj 779 145 bng 15 250 50 0 empty empty empty 17 7 0 10 -262144
-1 -1;
#X msg 778 224 30;
#X msg 713 222 20;
#X msg 849 228 30;
#X msg 654 225 1;
#X obj 461 140 inlet;
#X obj 300 678 outlet~;
#X obj 91 29 sel 0;
#X msg 916 230 666;
#X floatatom 52 231 5 0 0 0 - - -, f 5;
#X obj 52 373 pack f f;
#X msg 158 346 0;
#X obj 95 336 + 0;
#X obj 113 375 pack f f;
#X obj 284 554 *~;
#X obj 343 534 * 0.5;
#X obj 342 556 + 0.5;
#X floatatom 110 313 5 0 0 0 - - -, f 5;
#X msg 343 504 0;
#X msg 399 504 -0.7;
#X msg 371 504 0.7;
#X obj 911 321 r global_speed;
#X floatatom 911 371 5 0 0 0 - - -, f 5;
#X obj 911 347 * 0.5;
#X obj 225 642 pan/gpan~;
#X obj 51 503 *~ 1;
#X obj 203 505 *~ 1;
#X obj 110 275 r binaural_diff_voice_\$1;
#X obj 97 230 r slide_msec_voice_\$1;
#X obj 647 567 r wavetable_sines\$1;
#X obj 647 595 sinesum_from_message sines\$1;
#X obj 52 480 tabosc4~ sines\$1;
#X obj 202 482 tabosc4~ sines\$1;
#X obj 723 382 f \$5;
#X obj 834 383 pack 0 \$6;
#X obj 723 456 pack 0 \$4;
#X obj 723 358 del \$3;
#X obj 403 358 pack 0 \$3;
#X obj 403 333 f \$2;
#X obj 723 432 * \$1;
#X text 464 228 in any case;
#X text 531 349 on attack \, set a delay for sustain;
#X text 502 363 comment;
#X text 626 245 peak level;
#X obj 32 680 send~ voice\$1_signal_left;
#X obj 350 678 send~ voice\$1_signal_right;
#X obj 648 130 r adsr_voice_\$1;
#X obj 648 152 unpack f f f f;
#X floatatom 715 298 5 0 0 0 - - -, f 5;
#X floatatom 775 297 5 0 0 0 - - -, f 5;
#X floatatom 643 292 10 0 0 0 - - -, f 10;
#X obj 574 198 r peak_level_voice_\$1;
#X floatatom 114 252 10 0 0 0 - - -, f 10;
#X obj 52 456 line~;
#X obj 203 458 line~;
#X obj 245 584 vsl 105 54 80 800 0 0 empty empty empty 0 -9 0 10 -262144
-1 -1 0 1;
#X obj 205 554 line;
#X obj 210 642 bng 15 250 50 0 empty empty empty 17 7 0 10 -262144
-1 -1;
#X obj 417 119 r voice_pan_\$1;
#X obj 163 74 tgl 15 0 empty empty empty 17 7 0 10 -262144 -1 -1 0
1;
#X floatatom 194 117 5 0 0 0 - - -, f 5;
#X floatatom 125 116 5 0 0 0 - - -, f 5;
#X obj 239 74 - 1;
#X obj 118 95 spigot 1;
#X obj 194 96 spigot 0;
#X msg 163 51 0;
#X obj 199 10 r rendezvous_start_note_\$1;
#N canvas 2 48 1020 718 parse_rendezvous_data 1;
#X obj 282 81 r rendezvous_start_index_\$1;
#X floatatom 303 221 5 0 0 0 - - -, f 5;
#X obj 80 106 r rendezvous_duration_\$1;
#X obj 271 106 r rendezvous_end_index_\$1;
#X obj 465 81 r rendezvous_start_note_\$1;
#X obj 433 106 r rendezvous_end_note_\$1;
#X obj 583 106 r rendezvous_start_multiplier_\$1;
#X obj 781 106 r rendezvous_end_multiplier_\$1;
#X obj 108 57 bng 15 250 50 0 empty empty empty 17 7 0 10 -262144 -1
-1;
#X obj 228 228 abs;
#X obj 165 388 metro;
#X floatatom 232 279 5 0 0 0 - - -, f 5;
#X obj 165 365 tgl 15 0 empty empty empty 17 7 0 10 -262144 -1 -1 0
1;
#X obj 165 415 bng 15 250 50 0 empty empty empty 17 7 0 10 -262144
-1 -1;
#X obj 282 439 f;
#X obj 256 439 + 1;
#X floatatom 256 462 5 0 0 0 - - -, f 5;
#X floatatom 271 310 5 0 0 0 - - -, f 5;
#X obj 271 237 > 0;
#X obj 271 262 * 2;
#X obj 271 287 - 1;
#X floatatom 347 163 5 0 0 0 - - -, f 5;
#X obj 127 512 vsl 64 128 -1 1 0 0 empty empty empty 0 -9 0 10 -262144
-1 -1 8978 1;
#X obj 259 489 hsl 398 15 -0 512 0 0 empty empty empty -2 -8 0 10 -262144
-1 -1 5505 1;
#X obj 271 202 - 1;
#X floatatom 193 233 5 0 0 0 - - -, f 5;
#X floatatom 153 132 5 0 0 0 - - -, f 5;
#X obj 165 298 loadbang;
#X msg 165 317 1;
#X obj 271 179 f;
#X floatatom 379 163 5 0 0 0 - - -, f 5;
#X obj 66 130 bng 15 250 50 0 empty empty empty 17 7 0 10 -262144 -1
-1;
#X obj 80 148 delay 4;
#X obj 271 135 bng 15 250 50 0 empty empty empty 17 7 0 10 -262144
-1 -1;
#X obj 271 157 delay 3;
#X obj 75 489 tabread controller_wavetable;
#X floatatom 75 511 5 0 0 0 - - -, f 5;
#X obj 193 255 / 1;
#X obj 80 169 f 4000;
#X obj 80 310 delay 4000;
#X msg 80 332 0;
#X obj 80 283 t b f b;
#X obj 433 132 delay 2;
#X obj 541 135 delay 4;
#X obj 433 156 f;
#X obj 704 166 f;
#X floatatom 433 181 5 0 0 0 - - -, f 5;
#X obj 488 162 f;
#X floatatom 488 188 5 0 0 0 - - -, f 5;
#X connect 0 0 14 0;
#X connect 0 0 21 0;
#X connect 0 0 24 1;
#X connect 2 0 8 0;
#X connect 2 0 26 0;
#X connect 2 0 31 0;
#X connect 2 0 38 1;
#X connect 3 0 29 1;
#X connect 3 0 30 0;
#X connect 3 0 33 0;
#X connect 4 0 43 0;
#X connect 4 0 47 1;
#X connect 5 0 44 1;
#X connect 5 0 42 0;
#X connect 9 0 37 1;
#X connect 10 0 13 0;
#X connect 10 0 14 0;
#X connect 12 0 10 0;
#X connect 14 0 15 0;
#X connect 15 0 14 1;
#X connect 15 0 16 0;
#X connect 16 0 23 0;
#X connect 16 0 35 0;
#X connect 17 0 15 1;
#X connect 18 0 19 0;
#X connect 19 0 20 0;
#X connect 20 0 17 0;
#X connect 24 0 1 0;
#X connect 24 0 18 0;
#X connect 24 0 9 0;
#X connect 25 0 37 0;
#X connect 27 0 28 0;
#X connect 28 0 12 0;
#X connect 29 0 24 0;
#X connect 31 0 32 0;
#X connect 32 0 38 0;
#X connect 33 0 34 0;
#X connect 34 0 29 0;
#X connect 35 0 22 0;
#X connect 35 0 36 0;
#X connect 37 0 10 1;
#X connect 37 0 11 0;
#X connect 38 0 25 0;
#X connect 38 0 41 0;
#X connect 39 0 40 0;
#X connect 40 0 12 0;
#X connect 41 0 39 0;
#X connect 41 1 39 1;
#X connect 41 2 28 0;
#X connect 42 0 44 0;
#X connect 42 0 47 0;
#X connect 44 0 46 0;
#X connect 47 0 48 0;
#X coords 0 718 1 717 85 60 0;
#X restore 354 81 pd parse_rendezvous_data \$1;
#X connect 0 0 3 0;
#X connect 1 0 98 0;
#X connect 3 0 10 0;
#X connect 3 0 82 0;
#X connect 3 1 29 0;
#X connect 3 1 105 0;
#X connect 4 0 84 0;
#X connect 4 0 86 0;
#X connect 5 0 96 0;
#X connect 6 0 46 1;
#X connect 6 0 62 1;
#X connect 7 0 97 0;
#X connect 8 0 81 1;
#X connect 9 0 82 1;
#X connect 10 0 84 0;
#X connect 22 0 87 0;
#X connect 29 0 30 0;
#X connect 29 1 4 0;
#X connect 30 0 4 0;
#X connect 30 1 31 0;
#X connect 31 0 6 0;
#X connect 43 0 57 0;
#X connect 44 0 3 0;
#X connect 44 0 55 0;
#X connect 46 0 72 0;
#X connect 47 0 48 0;
#X connect 48 0 52 0;
#X connect 48 0 50 0;
#X connect 48 0 49 0;
#X connect 48 0 51 0;
#X connect 48 0 56 0;
#X connect 48 0 59 0;
#X connect 49 0 97 0;
#X connect 50 0 96 0;
#X connect 51 0 81 1;
#X connect 52 0 98 0;
#X connect 53 0 63 0;
#X connect 55 1 111 0;
#X connect 56 0 82 1;
#X connect 57 0 58 0;
#X connect 57 0 60 0;
#X connect 58 0 101 0;
#X connect 58 0 104 0;
#X connect 59 0 58 1;
#X connect 59 0 61 1;
#X connect 60 0 61 0;
#X connect 61 0 102 0;
#X connect 62 0 72 1;
#X connect 63 0 64 0;
#X connect 64 0 72 2;
#X connect 65 0 60 1;
#X connect 66 0 63 0;
#X connect 67 0 63 0;
#X connect 68 0 63 0;
#X connect 69 0 71 0;
#X connect 71 0 70 0;
#X connect 71 0 82 1;
#X connect 72 0 11 0;
#X connect 72 0 92 0;
#X connect 72 1 54 0;
#X connect 72 1 93 0;
#X connect 73 0 46 0;
#X connect 74 0 62 0;
#X connect 75 0 65 0;
#X connect 76 0 58 1;
#X connect 76 0 61 1;
#X connect 76 0 100 0;
#X connect 77 0 78 0;
#X connect 79 0 73 0;
#X connect 80 0 74 0;
#X connect 81 0 22 0;
#X connect 82 0 6 0;
#X connect 83 0 6 0;
#X connect 84 0 81 0;
#X connect 85 0 6 0;
#X connect 86 0 85 0;
#X connect 87 0 83 0;
#X connect 94 0 95 0;
#X connect 95 0 96 0;
#X connect 95 1 97 0;
#X connect 95 2 81 1;
#X connect 95 3 82 1;
#X connect 96 0 84 1;
#X connect 96 0 85 1;
#X connect 97 0 83 1;
#X connect 98 0 86 1;
#X connect 98 0 87 1;
#X connect 99 0 98 0;
#X connect 101 0 79 0;
#X connect 102 0 80 0;
#X connect 104 0 103 0;
#X connect 106 0 63 0;
#X connect 107 0 110 0;
#X connect 107 0 111 1;
#X connect 110 0 112 1;
#X connect 111 0 109 0;
#X connect 111 0 43 0;
#X connect 112 0 108 0;
#X connect 112 0 43 0;
#X connect 113 0 107 0;
#X connect 114 0 112 0;
#X connect 114 0 113 0;
#X coords 0 -1 1 1 150 80 1 200 580;
