#N canvas 2 48 1362 718 10;
#X obj 312 118 inlet;
#X obj 657 269 inlet;
#X text 309 100 trigger;
#X obj 312 140 sel 0;
#X obj 403 300 t b;
#X obj 714 269 inlet;
#X obj 551 496 line~;
#X obj 781 264 inlet;
#X obj 838 269 inlet;
#X obj 911 268 inlet;
#X msg 312 162 stop;
#X obj 188 680 outlet~;
#X text 324 446 and pack with;
#X text 325 462 attack time;
#X text 253 203 if zero;
#X text 252 219 release;
#X text 234 237 and cancel;
#X text 265 254 decay;
#X text 500 382 recall sustain value;
#X text 537 455 pack with decay time;
#X text 827 409 on release ramp;
#X text 828 426 back to zero;
#X obj 723 406 * 0.01;
#X text 710 247 attack;
#X text 777 246 decay;
#X text 831 247 sustain;
#X text 908 247 release;
#X text 337 228 attack;
#X obj 339 249 moses;
#X obj 339 275 t b b;
#X msg 366 381 0;
#X text 301 350 optionally;
#X text 291 368 bash to zero;
#X text 306 323 ATTACK:;
#X text 454 164 test for negative trigger;
#X text 469 189 the output;
#X text 525 432 multiply by peak level;
#X text 498 405 convert from percent;
#X text 377 410 ... then;
#X text 325 429 recall peak level;
#X text 463 209 ... do this;
#X text 430 -2 Arguments: level \, attack time \, decay time \, sustain
level \, release time. A \, D \, and R are in msec and S is in percent.
This patch is used as an abstraction in various examples.;
#X obj 52 168 mtof;
#X obj 25 17 inlet;
#X text 464 176 if so \, zero;
#X obj 239 554 *~;
#X obj 779 124 loadbang;
#X obj 779 145 bng 15 250 50 0 empty empty empty 17 7 0 10 -262144
-1 -1;
#X msg 778 224 30;
#X msg 713 222 20;
#X msg 849 228 30;
#X msg 654 225 1;
#X obj 461 140 inlet;
#X obj 300 678 outlet~;
#X obj 25 44 sel 0;
#X msg 916 230 666;
#X floatatom 52 231 5 0 0 0 - - -, f 5;
#X obj 52 393 pack f f;
#X obj 95 365 + 0;
#X obj 113 395 pack f f;
#X obj 282 554 *~;
#X obj 338 514 * 0.5;
#X obj 338 554 + 0.5;
#X floatatom 110 346 5 0 0 0 - - -, f 5;
#X msg 338 484 0;
#X msg 394 484 -0.7;
#X msg 366 484 0.7;
#X obj 911 321 r global_speed;
#X floatatom 911 371 5 0 0 0 - - -, f 5;
#X obj 911 347 * 0.5;
#X obj 225 642 pan/gpan~;
#X obj 51 503 *~ 1;
#X obj 203 505 *~ 1;
#X obj 110 322 r binaural_diff_voice_\$1;
#X obj 97 230 r slide_msec_voice_\$1;
#X obj 647 567 r wavetable_sines\$1;
#X obj 52 480 tabosc4~ sines\$1;
#X obj 202 482 tabosc4~ sines\$1;
#X obj 723 382 f \$5;
#X obj 834 383 pack 0 \$6;
#X obj 723 456 pack 0 \$4;
#X obj 723 358 del \$3;
#X obj 403 358 pack 0 \$3;
#X obj 403 333 f \$2;
#X obj 723 432 * \$1;
#X text 464 228 in any case;
#X text 531 349 on attack \, set a delay for sustain;
#X text 502 363 comment;
#X text 626 245 peak level;
#X obj 32 680 send~ voice\$1_signal_left;
#X obj 350 678 send~ voice\$1_signal_right;
#X obj 648 130 r adsr_voice_\$1;
#X obj 648 152 unpack f f f f;
#X floatatom 715 298 5 0 0 0 - - -, f 5;
#X floatatom 775 297 5 0 0 0 - - -, f 5;
#X floatatom 643 292 10 0 0 0 - - -, f 10;
#X obj 574 198 r peak_level_voice_\$1;
#X floatatom 97 305 10 0 0 0 - - -, f 10;
#X obj 52 456 line~;
#X obj 203 458 line~;
#X obj 245 584 vsl 105 54 80 800 0 0 empty empty empty 0 -9 0 10 -262144
-1 -1 1982 1;
#X obj 205 554 line;
#X obj 210 642 bng 15 250 50 0 empty empty empty 17 7 0 10 -262144
-1 -1;
#X obj 417 119 r voice_pan_\$1;
#X obj 97 89 tgl 15 0 empty empty empty 17 7 0 10 -262144 -1 -1 1 1
;
#X floatatom 59 131 5 0 0 0 - - -, f 5;
#X obj 52 110 spigot 1;
#X msg 97 66 0;
#X obj 97 17 r rendezvous_start_note_\$1;
#N canvas 2 50 1020 718 parse_rendezvous_data 0;
#X obj 282 2 r rendezvous_start_index_\$1;
#X floatatom 243 141 5 0 0 0 - - -, f 5;
#X obj 26 26 r rendezvous_duration_\$1;
#X obj 211 26 r rendezvous_end_index_\$1;
#X obj 624 314 r rendezvous_start_multiplier_\$1;
#X obj 733 350 r rendezvous_end_multiplier_\$1;
#X obj 168 148 abs;
#X obj 105 288 metro;
#X floatatom 157 177 5 0 0 0 - - -, f 5;
#X obj 105 269 tgl 15 0 empty empty empty 17 7 0 10 -262144 -1 -1 0
1;
#X obj 105 310 bng 15 250 50 0 empty empty empty 17 7 0 10 -262144
-1 -1;
#X obj 222 326 f;
#X obj 196 326 + 1;
#X floatatom 196 349 5 0 0 0 - - -, f 5;
#X floatatom 211 230 5 0 0 0 - - -, f 5;
#X obj 211 157 > 0;
#X obj 211 182 * 2;
#X obj 211 207 - 1;
#X floatatom 282 83 5 0 0 0 - - -, f 5;
#X obj 128 398 vsl 64 128 -1 1 0 0 empty empty empty 0 -9 0 10 -262144
-1 -1 4 1;
#X obj 241 349 hsl 398 15 -0 512 0 0 empty empty empty -2 -8 0 10 -262144
-1 -1 36443 1;
#X obj 211 122 - 1;
#X floatatom 132 153 5 0 0 0 - - -, f 5;
#X floatatom 53 48 5 0 0 0 - - -, f 5;
#X msg 105 199 1;
#X obj 211 99 f;
#X floatatom 314 83 5 0 0 0 - - -, f 5;
#X obj 17 49 bng 15 250 50 0 empty empty empty 17 7 0 10 -262144 -1
-1;
#X obj 26 68 delay 4;
#X obj 211 55 bng 15 250 50 0 empty empty empty 17 7 0 10 -262144 -1
-1;
#X obj 211 77 delay 3;
#X obj 196 374 tabread controller_wavetable;
#X floatatom 212 433 5 0 0 0 - - -, f 5;
#X obj 132 175 / 1;
#X obj 26 89 f 4000;
#X obj 26 198 delay 4000;
#X msg 26 240 0;
#X obj 26 171 t b f b;
#X obj 155 563 outlet;
#X floatatom 378 511 5 0 0 0 - - -, f 5;
#X obj 51 218 loadbang;
#X obj 406 318 r rendezvous_start_note_\$1;
#X obj 468 370 r rendezvous_end_note_\$1;
#X obj 468 533 vsl 64 128 10 70 0 0 empty empty empty 0 -9 0 10 -262144
-1 -1 10583 1;
#X obj 288 533 vsl 64 128 10 70 0 0 empty empty empty 0 -9 0 10 -262144
-1 -1 12277 1;
#X obj 378 534 vsl 64 128 10 70 0 0 empty empty empty 0 -9 0 10 -262144
-1 -1 10584 1;
#X floatatom 468 511 5 0 0 0 - - -, f 5;
#X floatatom 288 511 5 0 0 0 - - -, f 5;
#X floatatom 298 399 5 0 0 0 - - -, f 5;
#X text 304 417 current;
#X text 368 416 startnote;
#X text 442 416 endnote;
#X text 504 417 startrange;
#X text 590 418 endrange;
#X obj 298 433 expr $f2 + (($f1 - $f4) / ($f5 - $f4)) * ($f3 - $f2)
, f 73;
#X obj 39 562 outlet;
#X text 79 563 line speed;
#X text 197 564 current note;
#X obj 8 356 s rendezvous_current_index_\$1;
#X obj 196 476 s rendezvous_current_controller_value_\$1;
#X floatatom 668 342 5 0 0 0 - - -, f 5;
#X floatatom 752 378 5 0 0 0 - - -, f 5;
#X connect 0 0 11 0;
#X connect 0 0 18 0;
#X connect 0 0 21 1;
#X connect 2 0 23 0;
#X connect 2 0 27 0;
#X connect 2 0 34 1;
#X connect 3 0 25 1;
#X connect 3 0 26 0;
#X connect 3 0 29 0;
#X connect 4 0 54 3;
#X connect 4 0 60 0;
#X connect 5 0 54 4;
#X connect 5 0 61 0;
#X connect 6 0 33 1;
#X connect 7 0 10 0;
#X connect 7 0 11 0;
#X connect 9 0 7 0;
#X connect 11 0 12 0;
#X connect 12 0 11 1;
#X connect 12 0 13 0;
#X connect 12 0 58 0;
#X connect 13 0 20 0;
#X connect 13 0 31 0;
#X connect 14 0 12 1;
#X connect 15 0 16 0;
#X connect 16 0 17 0;
#X connect 17 0 14 0;
#X connect 21 0 1 0;
#X connect 21 0 15 0;
#X connect 21 0 6 0;
#X connect 22 0 33 0;
#X connect 24 0 9 0;
#X connect 25 0 21 0;
#X connect 27 0 28 0;
#X connect 28 0 34 0;
#X connect 29 0 30 0;
#X connect 30 0 25 0;
#X connect 31 0 19 0;
#X connect 31 0 32 0;
#X connect 31 0 54 0;
#X connect 31 0 59 0;
#X connect 33 0 7 1;
#X connect 33 0 8 0;
#X connect 33 0 55 0;
#X connect 34 0 22 0;
#X connect 34 0 37 0;
#X connect 35 0 36 0;
#X connect 36 0 9 0;
#X connect 37 0 35 0;
#X connect 37 1 35 1;
#X connect 37 2 24 0;
#X connect 39 0 45 0;
#X connect 40 0 36 0;
#X connect 41 0 47 0;
#X connect 41 0 54 1;
#X connect 42 0 46 0;
#X connect 42 0 54 2;
#X connect 46 0 43 0;
#X connect 47 0 44 0;
#X connect 48 0 54 0;
#X connect 54 0 39 0;
#X connect 54 0 38 0;
#X coords 0 718 1 717 85 60 0;
#X restore 161 37 pd parse_rendezvous_data \$1;
#X obj 126 256 loadbang;
#X msg 126 276 0;
#X msg 129 66 20;
#X obj 647 595 sinesum_from_message sines\$1;
#X obj 216 101 spigot 1;
#X obj 261 61 r adsr_enable_voice\$1;
#X obj 261 83 tgl 15 0 empty empty empty 17 7 0 10 -262144 -1 -1 0
1;
#X obj 312 140 sel 0;
#X obj 269 134 sel 0;
#X msg 269 157 0.5;
#X msg 70 66 1;
#X obj 70 40 loadbang;
#X connect 0 0 3 0;
#X connect 1 0 95 0;
#X connect 3 0 10 0;
#X connect 3 0 79 0;
#X connect 3 1 28 0;
#X connect 3 1 102 0;
#X connect 4 0 81 0;
#X connect 4 0 83 0;
#X connect 5 0 93 0;
#X connect 6 0 45 1;
#X connect 6 0 60 1;
#X connect 7 0 94 0;
#X connect 8 0 78 1;
#X connect 9 0 79 1;
#X connect 10 0 81 0;
#X connect 22 0 84 0;
#X connect 28 0 29 0;
#X connect 28 1 4 0;
#X connect 29 0 4 0;
#X connect 29 1 30 0;
#X connect 30 0 6 0;
#X connect 42 0 56 0;
#X connect 43 0 54 0;
#X connect 43 0 114 0;
#X connect 45 0 70 0;
#X connect 46 0 47 0;
#X connect 47 0 51 0;
#X connect 47 0 49 0;
#X connect 47 0 48 0;
#X connect 47 0 50 0;
#X connect 47 0 55 0;
#X connect 48 0 94 0;
#X connect 49 0 93 0;
#X connect 50 0 78 1;
#X connect 51 0 95 0;
#X connect 52 0 61 0;
#X connect 54 1 106 0;
#X connect 55 0 79 1;
#X connect 56 0 57 0;
#X connect 56 0 58 0;
#X connect 57 0 98 0;
#X connect 57 0 101 0;
#X connect 58 0 59 0;
#X connect 59 0 99 0;
#X connect 60 0 70 1;
#X connect 61 0 62 0;
#X connect 62 0 70 2;
#X connect 63 0 58 1;
#X connect 64 0 61 0;
#X connect 65 0 61 0;
#X connect 66 0 61 0;
#X connect 67 0 69 0;
#X connect 69 0 68 0;
#X connect 69 0 79 1;
#X connect 70 0 11 0;
#X connect 70 0 89 0;
#X connect 70 1 53 0;
#X connect 70 1 90 0;
#X connect 71 0 45 0;
#X connect 72 0 60 0;
#X connect 73 0 63 0;
#X connect 74 0 97 0;
#X connect 75 0 113 0;
#X connect 76 0 71 0;
#X connect 77 0 72 0;
#X connect 78 0 22 0;
#X connect 79 0 6 0;
#X connect 80 0 6 0;
#X connect 81 0 78 0;
#X connect 82 0 6 0;
#X connect 83 0 82 0;
#X connect 84 0 80 0;
#X connect 91 0 92 0;
#X connect 92 0 93 0;
#X connect 92 1 94 0;
#X connect 92 2 78 1;
#X connect 92 3 79 1;
#X connect 93 0 81 1;
#X connect 93 0 82 1;
#X connect 94 0 80 1;
#X connect 95 0 83 1;
#X connect 95 0 84 1;
#X connect 96 0 95 0;
#X connect 97 0 59 1;
#X connect 97 0 57 1;
#X connect 98 0 76 0;
#X connect 99 0 77 0;
#X connect 101 0 100 0;
#X connect 103 0 61 0;
#X connect 104 0 106 1;
#X connect 106 0 105 0;
#X connect 106 0 42 0;
#X connect 107 0 104 0;
#X connect 108 0 107 0;
#X connect 108 0 112 0;
#X connect 109 0 97 0;
#X connect 109 1 42 0;
#X connect 110 0 111 0;
#X connect 111 0 97 0;
#X connect 114 0 3 0;
#X connect 115 0 116 0;
#X connect 116 0 114 1;
#X connect 116 0 118 0;
#X connect 118 0 119 0;
#X connect 119 0 6 0;
#X connect 120 0 104 0;
#X connect 121 0 120 0;
#X coords 0 -1 1 1 150 80 1 200 580;
